<?xml version="1.0" standalone="no"?>
<!DOCTYPE svg PUBLIC "-//W3C//DTD SVG 1.1//EN" "http://www.w3.org/Graphics/SVG/1.1/DTD/svg11.dtd" >
<svg xmlns="http://www.w3.org/2000/svg">
<metadata>
Created by FontPrep 20130207 at Tue Apr 15 13:28:34 2014
 By Jeff Langston
Digitized data copyright (c) 2007, Google Corporation.
</metadata>
<defs>
<font id="790bc3cf220116af605ebd32c5ad4fe3" horiz-adv-x='1024' >
  <font-face 
    font-family="DroidSansMonoForPowerline"
    font-weight="400"
    font-stretch="normal"
    units-per-em="2048"
    panose-1="2 11 6 9 3 8 4 2 2 4"
    ascent="1638"
    descent="-410"
    x-height="1098"
    cap-height="1462"
    bbox="-312 -555 1387 2163"
    underline-thickness="102"
    underline-position="-103"
    unicode-range="U+0020-FFFD"
  />
<missing-glyph 
d="M297 104h633v1254h-633v-1254zM193 1462h841v-1462h-841v1462z" />
    <glyph glyph-name=".notdef" 
d="M297 104h633v1254h-633v-1254zM193 1462h841v-1462h-841v1462z" />
    <glyph glyph-name=".null" 
 />
    <glyph glyph-name="nonmarkingreturn" 
 />
    <glyph glyph-name="space" unicode=" " 
 />
    <glyph glyph-name="exclam" unicode="!" 
d="M614 250q127 0 127 -140t-127 -139q-127 -1 -127 139t127 140zM676 414h-121l-51 1048h223z" />
    <glyph glyph-name="quotedbl" unicode="&#x22;" 
d="M944 1462l-41 -528h-155l-41 528h237zM522 1462l-41 -528h-155l-41 528h237z" />
    <glyph glyph-name="numbersign" unicode="#" 
d="M436 565h291l64 328h-291zM1112 565v-137h-266l-82 -428h-148l84 428h-290l-82 -428h-144l78 428h-217v137h244l65 328h-233v137h258l82 432h147l-82 -432h293l84 432h144l-84 -432h221v-137h-248l-64 -328h240z" />
    <glyph glyph-name="dollar" unicode="$" 
d="M868 446q0 127 -184 189v-373q184 28 184 184zM375 1049q1 -78 41 -121t131 -74v369q-172 -29 -172 -174zM684 -119h-137v221q-228 0 -365 70v172q196 -92 365 -92v434q-193 64 -271 146t-77 216q0 134 92 220t256 106v180h137v-176q187 -9 336 -78l-66 -145
q-140 62 -270 72v-422q200 -69 280 -149t80 -210q0 -280 -360 -335v-230z" />
    <glyph glyph-name="percent" unicode="%" 
d="M935 100q140 0 140 228t-140 227q-140 1 -140 -227t140 -228zM938 -18q-134 0 -214 94t-81 256q0 162 79 253t212 91t214 -93t81 -253q-1 -160 -79 -254t-212 -94zM1057 1462l-729 -1462h-158l729 1462h158zM292 903q140 -1 140 227t-140 228t-140 -228t140 -227z
M294 784q-134 0 -214 94t-80 257q0 162 79 253t212 91t214 -93t81 -254q0 -160 -78 -254q-80 -94 -214 -94z" />
    <glyph glyph-name="ampersand" unicode="&#x26;" 
d="M252 387q0 -105 67 -175t160 -71q160 0 299 146l-323 401q-203 -123 -203 -301zM741 1169q1 74 -49 120t-134 46q-84 -1 -134 -45t-49 -125q0 -118 133 -268q134 79 184 139t49 133zM467 -20q-189 0 -297 107t-109 294q-1 131 63 229t236 199q-163 192 -163 348
q-1 156 95 242t270 86q174 1 266 -85t92 -235q0 -203 -318 -389l281 -348q71 121 104 266h184q-53 -234 -178 -403l234 -291h-217l-131 166q-174 -186 -412 -186z" />
    <glyph glyph-name="quotesingle" unicode="'" 
d="M733 1462l-41 -528h-155l-41 528h237z" />
    <glyph glyph-name="parenleft" unicode="(" 
d="M483 567q0 -519 447 -891h-191q-444 353 -444 888t444 898h193q-449 -376 -449 -895z" />
    <glyph glyph-name="parenright" unicode=")" 
d="M745 567q0 520 -448 895h192q445 -361 445 -898t-445 -888h-190q446 371 446 891z" />
    <glyph glyph-name="asterisk" unicode="*" 
d="M715 1556l-43 -393l397 111l27 -193l-379 -28l246 -326l-179 -96l-176 358l-157 -358l-185 96l242 326l-375 28l29 193l391 -111l-43 393h205z" />
    <glyph glyph-name="plus" unicode="+" 
d="M539 647h-387v150h387v389h149v-389h387v-150h-387v-385h-149v385z" />
    <glyph glyph-name="comma" unicode="," 
d="M770 262l16 -24q-57 -224 -194 -527h-152q76 323 111 551h219z" />
    <glyph glyph-name="hyphen" unicode="-" 
d="M285 465v168h659v-168h-659z" />
    <glyph glyph-name="period" unicode="." 
d="M463 135q-1 166 151 166t152 -166t-152 -166t-151 166z" />
    <glyph glyph-name="slash" unicode="/" 
d="M1016 1462l-627 -1462h-178l627 1462h178z" />
    <glyph glyph-name="zero" unicode="0" 
d="M613 135q146 1 215 141t69 456t-69 456t-215 141q-145 1 -213 -139t-68 -458t68 -457q68 -140 213 -140zM612 -20q-229 0 -347 194t-118 559q0 752 465 752q232 1 350 -193t119 -559q0 -753 -469 -753z" />
    <glyph glyph-name="one" unicode="1" 
d="M758 0h-176v913q0 122 8 361q-39 -43 -121 -113l-147 -121l-97 123l383 299h150v-1462z" />
    <glyph glyph-name="two" unicode="2" 
d="M1069 0h-911v156l350 381q195 213 257 317t62 224q1 120 -63 186t-172 65q-160 0 -318 -137l-102 119q192 172 422 172q194 0 306 -106t112 -285q0 -119 -59 -244t-291 -375l-281 -299v-8h688v-166z" />
    <glyph glyph-name="three" unicode="3" 
d="M1055 416q0 -204 -138 -320q-137 -116 -389 -116t-397 79v170q184 -96 383 -96q354 0 354 289q0 258 -381 258h-133v151h133q160 0 248 76q88 75 88 189t-68 174t-182 59q-178 0 -344 -121l-92 125q187 150 436 150q205 0 321 -99q116 -98 116 -250t-82 -245t-234 -119
v-6q361 -47 361 -348z" />
    <glyph glyph-name="four" unicode="4" 
d="M737 494v356q0 176 13 432h-9q-36 -102 -90 -180l-411 -608h497zM1126 328h-213v-328h-176v328h-676v159l664 983h188v-976h213v-166z" />
    <glyph glyph-name="five" unicode="5" 
d="M532 135q336 0 336 314q0 294 -344 294q-89 0 -231 -26l-90 57l55 688h690v-166h-532l-39 -419q107 20 209 20q210 -1 340 -115t129 -330q0 -216 -138 -344q-137 -128 -375 -128t-370 79v172q144 -96 360 -96z" />
    <glyph glyph-name="six" unicode="6" 
d="M899 462q-1 154 -69 232t-195 78t-213 -81t-86 -185q0 -152 81 -262t210 -111q129 0 201 88q72 87 71 241zM799 1333q-225 0 -337 -141t-122 -447h12q94 170 298 170t314 -119t111 -336q-1 -216 -121 -348t-330 -132t-340 168t-130 477q0 858 639 858q104 0 172 -19v-155
q-71 24 -166 24z" />
    <glyph glyph-name="seven" unicode="7" 
d="M143 1296v166h940v-145l-555 -1317h-194l563 1296h-754z" />
    <glyph glyph-name="eight" unicode="8" 
d="M334 371q0 -240 276 -240q136 -1 210 65t75 170q0 104 -63 172q-63 70 -214 144l-30 14q-254 -121 -254 -325zM848 1126q0 101 -63 154t-171 53t-170 -53q-62 -52 -63 -148t49 -158t186 -126q232 103 232 278zM1073 381q0 -181 -126 -291q-125 -110 -337 -110t-333 104
t-121 289q0 257 282 393q-235 146 -235 369q1 161 117 255t297 95q181 0 295 -95t114 -257q0 -230 -262 -359q309 -160 309 -393z" />
    <glyph glyph-name="nine" unicode="9" 
d="M330 1000q0 -154 68 -232t196 -78q127 0 213 82t86 184q0 151 -80 262q-81 111 -211 111t-201 -87q-71 -88 -71 -242zM430 129q224 0 336 141t123 447h-12q-96 -170 -299 -170q-204 0 -314 118t-110 336t120 350t332 132t340 -171t129 -474q0 -858 -639 -858
q-105 0 -172 18v156q67 -25 166 -25z" />
    <glyph glyph-name="colon" unicode=":" 
d="M614 250q127 0 127 -140t-127 -139q-127 -1 -127 139t127 140zM614 1126q127 0 127 -139t-127 -139t-127 139t127 139z" />
    <glyph glyph-name="semicolon" unicode=";" 
d="M709 238l14 -23q-51 -197 -176 -479h-137q62 255 100 502h199zM621 1126q127 0 127 -139t-127 -139t-127 139t127 139z" />
    <glyph glyph-name="less" unicode="&#x3c;" 
d="M1075 221l-923 451v102l923 451v-160l-715 -342l715 -342v-160z" />
    <glyph glyph-name="equal" unicode="=" 
d="M152 442v150h923v-150h-923zM152 852v149h923v-149h-923z" />
    <glyph glyph-name="greater" unicode="&#x3e;" 
d="M152 381l714 342l-714 342v160l923 -451v-102l-923 -451v160z" />
    <glyph glyph-name="question" unicode="?" 
d="M553 250q127 0 127 -140t-127 -139q-127 -1 -127 139t127 140zM465 414v37q0 120 46 195q47 74 169 164t164 148t41 154t-75 154t-227 57q-153 0 -350 -90l-65 153q208 97 424 97q216 1 342 -97t125 -262q1 -133 -53 -216q-54 -82 -184 -180t-164 -152q-33 -54 -33 -144
v-18h-160z" />
    <glyph glyph-name="at" unicode="@" 
d="M649 936q-89 0 -137 -94t-47 -240q0 -252 129 -252t143 312l15 253q-54 21 -103 21zM565 221q-120 1 -190 105t-70 295t97 317q96 126 244 127q148 0 267 -47l-22 -416q-2 -38 -2 -69v-7q0 -176 72 -176q100 0 100 383q0 278 -111 436t-299 158q-227 0 -353 -192
q-126 -191 -126 -515t130 -494t368 -171q181 0 346 78v-133q-158 -82 -352 -82q-298 0 -466 207t-167 591q0 384 167 614q167 232 455 232q249 0 397 -196t148 -535q0 -231 -64 -371t-178 -139q-128 0 -157 180h-4q-74 -180 -230 -180z" />
    <glyph glyph-name="A" unicode="A" 
d="M807 618l-133 424q-39 124 -62 226q-20 -99 -46 -183l-144 -467h385zM1004 0l-144 453h-491l-146 -453h-190l483 1468h195l485 -1468h-192z" />
    <glyph glyph-name="B" unicode="B" 
d="M322 686v-528h307q311 0 311 274q0 254 -324 254h-294zM322 842h284q156 0 228 55t71 179t-77 175q-76 52 -242 52h-264v-461zM135 1462h440q273 0 397 -88t124 -282q0 -128 -78 -213t-213 -103v-10q332 -54 332 -342q1 -198 -127 -311t-348 -113h-527v1462z" />
    <glyph glyph-name="C" unicode="C" 
d="M766 -20q-309 0 -473 196t-164 550t179 555q179 202 489 202q220 0 383 -86l-78 -156q-154 78 -305 78q-215 -1 -343 -159t-128 -437t120 -429t351 -151q130 0 327 58v-162q-146 -59 -358 -59z" />
    <glyph glyph-name="D" unicode="D" 
d="M322 1303v-1143h96q532 0 532 572t-493 571h-135zM135 0v1462h342q317 0 493 -189t177 -539q0 -350 -183 -542t-528 -192h-301z" />
    <glyph glyph-name="E" unicode="E" 
d="M1059 0h-842v1462h842v-164h-656v-452h617v-162h-617v-520h656v-164z" />
    <glyph glyph-name="F" unicode="F" 
d="M430 0h-186v1462h841v-164h-655v-516h617v-164h-617v-618z" />
    <glyph glyph-name="G" unicode="G" 
d="M672 772h422v-717q-195 -75 -420 -75q-262 0 -410 200t-147 552q0 352 162 552t446 199q192 0 346 -86l-72 -162q-146 84 -280 84q-192 1 -299 -155t-107 -433q0 -588 394 -588q97 0 202 29v436h-237v164z" />
    <glyph glyph-name="H" unicode="H" 
d="M1094 0h-187v682h-585v-682h-187v1462h187v-616h585v616h187v-1462z" />
    <glyph glyph-name="I" unicode="I" 
d="M1001 0h-776v123l295 20v1176l-295 20v123h776v-123l-294 -20v-1176l294 -20v-123z" />
    <glyph glyph-name="J" unicode="J" 
d="M453 143q154 -1 247 79t93 227v1013h186v-1011q-1 -215 -141 -343t-367 -128t-334 59v166q162 -62 316 -62z" />
    <glyph glyph-name="K" unicode="K" 
d="M397 0h-186v1462h186v-731l121 168l453 563h209l-521 -637l539 -825h-211l-450 698l-140 -114v-584z" />
    <glyph glyph-name="L" unicode="L" 
d="M233 0v1462h187v-1296h635v-166h-822z" />
    <glyph glyph-name="M" unicode="M" 
d="M264 874v-874h-151v1462h247l248 -1192h6l250 1192h252v-1462h-153v887q0 102 14 391h-8l-283 -1278h-154l-278 1280h-8q18 -266 18 -406z" />
    <glyph glyph-name="N" unicode="N" 
d="M1092 0h-215l-580 1210h-8q18 -277 18 -417v-793h-172v1462h213l578 -1204h6q-14 303 -14 404v800h174v-1462z" />
    <glyph glyph-name="O" unicode="O" 
d="M616 143q174 0 254 145q80 144 80 446t-82 444t-250 143q-337 0 -337 -589t335 -589zM616 -20q-532 0 -532 752t534 753q256 1 392 -195t137 -557q0 -361 -138 -557t-393 -196z" />
    <glyph glyph-name="P" unicode="P" 
d="M362 727h170q198 0 284 72t85 225q0 279 -338 279h-201v-576zM362 569v-569h-186v1462h404q514 0 514 -428q0 -219 -138 -342t-403 -123h-191z" />
    <glyph glyph-name="Q" unicode="Q" 
d="M616 143q174 0 254 145q80 144 80 446t-82 444t-250 143q-337 0 -337 -589t335 -589zM616 -20q-532 0 -532 752t534 753q256 1 392 -195t137 -557q0 -526 -285 -694q85 -180 279 -311l-121 -142q-236 171 -328 400q-36 -6 -76 -6z" />
    <glyph glyph-name="R" unicode="R" 
d="M373 762h164q171 0 252 66t81 208t-80 205q-80 62 -258 62h-159v-541zM373 604v-604h-187v1462h357q520 0 520 -415q0 -287 -289 -392l397 -655h-219l-350 604h-229z" />
    <glyph glyph-name="S" unicode="S" 
d="M555 141q350 0 350 240q-1 104 -71 160t-282 131q-212 74 -302 176t-90 270t128 266t356 99q226 0 413 -78l-64 -164q-193 78 -360 78q-293 0 -293 -209q0 -102 66 -164t290 -142q226 -80 308 -172q82 -94 83 -241q-1 -191 -139 -301t-398 -110t-409 69v178
q211 -86 414 -86z" />
    <glyph glyph-name="T" unicode="T" 
d="M707 0h-187v1298h-418v164h1022v-164h-417v-1298z" />
    <glyph glyph-name="U" unicode="U" 
d="M1104 1464v-948q0 -260 -126 -398t-370 -138q-483 0 -483 540v942h186v-932q0 -387 307 -387q295 0 300 389v932h186z" />
    <glyph glyph-name="V" unicode="V" 
d="M997 1462h199l-489 -1462h-187l-487 1462h196l295 -927q41 -127 88 -334q31 145 93 340z" />
    <glyph glyph-name="W" unicode="W" 
d="M528 1008h177l145 -521q61 -219 72 -307q2 53 65 619l70 663h170l-187 -1462h-190l-168 580q-40 138 -66 282q-32 -173 -65 -284l-156 -578h-190l-203 1462h170l88 -663q23 -176 40 -378t17 -241q24 151 70 312z" />
    <glyph glyph-name="X" unicode="X" 
d="M1174 0h-211l-355 635l-366 -635h-189l453 764l-422 698h199l331 -559l334 559h191l-422 -692z" />
    <glyph glyph-name="Y" unicode="Y" 
d="M707 0h-187v559l-487 903h203l376 -739l381 739h201l-487 -893v-569z" />
    <glyph glyph-name="Z" unicode="Z" 
d="M1124 0h-1022v145l793 1151h-772v166h981v-145l-793 -1151h813v-166z" />
    <glyph glyph-name="bracketleft" unicode="[" 
d="M940 -324h-528v1786h528v-149h-346v-1487h346v-150z" />
    <glyph glyph-name="backslash" unicode="\" 
d="M389 1462l627 -1462h-178l-627 1462h178z" />
    <glyph glyph-name="bracketright" unicode="]" 
d="M289 -174h346v1487h-346v149h528v-1786h-528v150z" />
    <glyph glyph-name="asciicircum" unicode="^" 
d="M111 549l424 924h102l481 -924h-162l-368 735l-318 -735h-159z" />
    <glyph glyph-name="underscore" unicode="_" 
d="M1243 -324h-1259v140h1259v-140z" />
    <glyph glyph-name="grave" unicode="`" 
d="M811 1241h-121q-166 142 -272 307v21h219q86 -178 174 -301v-27z" />
    <glyph glyph-name="a" unicode="a" 
d="M324 305q0 -178 200 -178q146 -1 234 81t88 230v99l-162 -7q-196 -8 -278 -62t-82 -163zM466 -20q-146 0 -238 86t-93 241q0 332 510 348l203 7v69q0 236 -244 236q-147 0 -328 -82l-63 137q196 96 403 96q206 0 308 -87t102 -279v-752h-131l-37 152h-8
q-77 -96 -158 -134q-80 -38 -226 -38z" />
    <glyph glyph-name="b" unicode="b" 
d="M340 552q0 -228 70 -324t221 -97q272 0 272 418t-274 418q-155 0 -222 -94q-67 -93 -67 -321zM158 0v1556h182v-376q0 -81 -8 -226h8q107 164 315 164q209 0 323 -150t114 -418q0 -270 -115 -420t-319 -150t-318 159h-12l-37 -139h-133z" />
    <glyph glyph-name="c" unicode="c" 
d="M731 958q-371 0 -371 -410t361 -409q157 0 321 62v-160q-134 -61 -329 -61q-257 0 -399 146t-142 422t145 423t408 147q178 0 336 -59l-62 -158q-150 57 -268 57z" />
    <glyph glyph-name="d" unicode="d" 
d="M889 547q1 227 -69 323t-222 97q-272 0 -272 -418t274 -418q152 1 218 89t71 286v41zM571 -20q-205 0 -319 150t-115 418q0 270 115 420t318 150t319 -160h12q-12 129 -12 162v436h182v-1556h-147l-27 147h-8q-113 -167 -318 -167z" />
    <glyph glyph-name="e" unicode="e" 
d="M899 662q1 305 -273 305t-300 -305h573zM1096 514h-774q8 -375 344 -375q195 0 370 76v-160q-166 -75 -364 -75q-245 0 -392 150t-147 413q-1 263 135 419t356 156t346 -134t126 -357v-113z" />
    <glyph glyph-name="f" unicode="f" 
d="M1044 961h-389v-961h-182v961h-317v110l317 33v96q0 193 90 280t299 87q129 0 252 -35l-41 -143q-104 28 -217 28t-157 -50t-44 -165v-104h389v-137z" />
    <glyph glyph-name="g" unicode="g" 
d="M692 18h-188q-230 0 -230 -198q0 -174 271 -174q395 0 395 223q0 89 -50 119t-198 30zM592 987q-225 -1 -225 -235t225 -234t225 234t-225 235zM1126 1098v-113l-196 -27q65 -86 65 -230q-1 -144 -107 -240t-296 -95q-55 0 -86 6q-100 -56 -100 -133q0 -84 161 -84h187
q174 0 266 -77t92 -220q0 -377 -565 -377q-217 0 -331 80t-114 226q0 212 240 270q-96 46 -96 156t133 190q-89 36 -140 122t-51 187q0 183 106 281t304 98q86 0 150 -20h378z" />
    <glyph glyph-name="h" unicode="h" 
d="M887 0v707q0 260 -238 260q-307 0 -307 -398v-569h-182v1556h182v-462l-8 -144h10q103 168 336 168q389 0 389 -401v-717h-182z" />
    <glyph glyph-name="i" unicode="i" 
d="M272 1098h451v-955l352 -20v-123h-878v123l344 20v811l-269 21v123zM633 1321q-107 1 -107 115t106 114t107 -114q1 -58 -31 -86t-75 -29z" />
    <glyph glyph-name="j" unicode="j" 
d="M405 -342q135 0 201 57t66 158v1081l-420 21v123h602v-1215q0 -179 -113 -277t-298 -98t-308 35v154q134 -39 270 -39zM744 1550q106 0 106 -114t-106 -115q-106 1 -107 115q1 114 107 114z" />
    <glyph glyph-name="k" unicode="k" 
d="M395 0h-180v1556h180v-714l-16 -289h4l135 152l395 393h222l-494 -475l522 -623h-213l-426 504l-129 -82v-422z" />
    <glyph glyph-name="l" unicode="l" 
d="M264 1556h451v-1413l352 -20v-123h-879v123l344 20v1270l-268 21v122z" />
    <glyph glyph-name="m" unicode="m" 
d="M977 0v707q-1 146 -27 203t-88 57q-86 0 -126 -83t-40 -278v-606h-161v707q0 260 -125 260q-84 1 -120 -79t-36 -319v-569h-162v1098h127l27 -148h10q67 168 201 168q163 0 213 -182h6q76 182 212 182t193 -92q58 -92 58 -309v-717h-162z" />
    <glyph glyph-name="n" unicode="n" 
d="M887 0v707q0 260 -238 260q-307 0 -307 -398v-569h-182v1098h147l27 -148h10q103 168 336 168q389 0 389 -401v-717h-182z" />
    <glyph glyph-name="o" unicode="o" 
d="M614 131q310 0 310 418t-310 418t-311 -418q1 -418 311 -418zM616 -20q-222 0 -362 156t-139 416q-1 262 135 414t360 152t363 -155t139 -416t-137 -414t-359 -153z" />
    <glyph glyph-name="p" unicode="p" 
d="M340 551q0 -227 70 -323t221 -97q272 0 272 418t-274 418q-153 0 -219 -88t-70 -287v-41zM340 -23v-469h-182v1590h147l27 -148h8q110 168 316 168t322 -150q114 -150 114 -418q0 -270 -115 -420t-319 -150t-318 159h-12q12 -129 12 -162z" />
    <glyph glyph-name="q" unicode="q" 
d="M889 547q1 227 -69 323t-222 97q-272 0 -272 -418t274 -418q152 1 218 89t71 286v41zM1071 1098v-1590h-182v469q0 41 12 170h-12q-113 -167 -318 -167t-319 150t-115 418q0 270 115 420q114 150 318 150t319 -168h8l27 148h147z" />
    <glyph glyph-name="r" unicode="r" 
d="M786 952q-164 0 -252 -92t-88 -268v-592h-182v1098h148l22 -201h8q76 119 163 170t209 51t245 -45l-49 -166q-123 45 -224 45z" />
    <glyph glyph-name="s" unicode="s" 
d="M573 129q275 0 275 162q0 57 -49 99t-254 118t-265 148t-61 171q-1 135 111 213t310 78t368 -74l-60 -149q-182 72 -319 72q-236 0 -236 -133q1 -62 51 -98t246 -107t266 -145t70 -183q0 -149 -117 -235t-348 -86t-358 69v166q193 -86 370 -86z" />
    <glyph glyph-name="t" unicode="t" 
d="M768 -20q-362 0 -362 344v637h-267v94l267 49l77 287h105v-293h438v-137h-438v-637q0 -195 192 -195q93 0 240 21v-138q-130 -32 -252 -32z" />
    <glyph glyph-name="u" unicode="u" 
d="M551 -20q-391 0 -391 401v717h182v-707q0 -260 236 -260q161 1 235 93t74 304v570h182v-1098h-147l-27 147h-10q-105 -167 -334 -167z" />
    <glyph glyph-name="v" unicode="v" 
d="M498 0l-416 1098h188l240 -652q85 -231 100 -325h6q7 44 101 325l239 652h189l-416 -1098h-231z" />
    <glyph glyph-name="w" unicode="w" 
d="M813 0l-131 596l-68 330h-6l-65 -334l-135 -592h-189l-223 1098h162l98 -543q34 -186 57 -393h6q31 185 68 358l133 578h193l127 -578q43 -195 67 -358h6q31 242 60 393l102 543h158l-225 -1098h-195z" />
    <glyph glyph-name="x" unicode="x" 
d="M510 563l-393 535h207l290 -410l291 410h207l-395 -535l413 -563h-206l-310 436l-311 -436h-207z" />
    <glyph glyph-name="y" unicode="y" 
d="M268 -492q-86 0 -168 17v145q62 -12 147 -12t139 41t95 141l58 150l-457 1108h188l262 -654q82 -205 89 -290h6q23 112 90 292l239 652h189l-475 -1241q-67 -173 -156 -261t-246 -88z" />
    <glyph glyph-name="z" unicode="z" 
d="M1044 0h-862v125l660 836h-627v137h811v-146l-647 -815h665v-137z" />
    <glyph glyph-name="braceleft" unicode="{" 
d="M745 -16q0 -80 56 -118t200 -40v-150q-438 6 -438 293v334q0 189 -338 189v155q338 0 338 189v333q0 287 438 293v-149q-144 -1 -200 -39t-56 -119v-332q0 -207 -233 -248v-12q233 -41 233 -248v-331z" />
    <glyph glyph-name="bar" unicode="|" 
d="M539 1556h149v-2048h-149v2048z" />
    <glyph glyph-name="braceright" unicode="}" 
d="M483 315q0 207 234 248v12q-234 41 -234 248v332q-1 81 -57 119t-199 39v149q439 -6 439 -293v-333q0 -189 338 -189v-155q-338 0 -338 -189v-334q0 -287 -439 -293v150q143 1 199 39t57 119v331z" />
    <glyph glyph-name="asciitilde" unicode="~" 
d="M399 856q100 0 239 -60t210 -59q108 0 227 121v-162q-99 -108 -248 -108q-100 0 -239 60t-209 59q-108 0 -227 -121v162q99 108 247 108z" />
    <glyph glyph-name="nonbreakingspace" unicode="&#xa0;" 
 />
    <glyph glyph-name="exclamdown" unicode="&#xa1;" 
d="M553 676h121l51 -1049h-223zM614 840q-127 0 -127 139t127 139t127 -139t-127 -139z" />
    <glyph glyph-name="cent" unicode="&#xa2;" 
d="M731 1159q-371 1 -371 -409t361 -410q153 0 321 61v-159q-122 -59 -299 -62v-200h-137v206q-434 69 -434 560t434 565v172h137v-164q162 -3 318 -59l-62 -158q-150 57 -268 57z" />
    <glyph glyph-name="sterling" unicode="&#xa3;" 
d="M725 1329q-223 0 -223 -246v-295h377v-137h-377v-211q0 -196 -140 -274h748v-166h-991v154q200 49 200 284v213h-198v137h198v324q1 168 109 268t294 101q186 0 341 -80l-66 -144q-141 72 -272 72z" />
    <glyph glyph-name="currency" unicode="&#xa4;" 
d="M615 483q99 0 171 70q72 71 72 171t-72 172t-171 71q-100 0 -170 -71t-70 -172q1 -101 71 -171t169 -70zM614 1102q114 0 213 -68l129 129l99 -96l-129 -129q67 -101 67 -218t-67 -212l127 -127l-97 -96l-129 127q-99 -66 -215 -66t-213 68l-127 -127l-96 96l127 127
q-65 95 -65 211t65 215l-129 129l98 98l127 -129q101 68 215 68z" />
    <glyph glyph-name="yen" unicode="&#xa5;" 
d="M1004 694v-137h-302v-158h302v-137h-302v-262h-178v262h-301v137h301v158h-301v137h234l-379 768h192l342 -739l346 739h191l-385 -768h240z" />
    <glyph glyph-name="brokenbar" unicode="&#xa6;" 
d="M539 289h149v-781h-149v781zM539 1556h149v-780h-149v780z" />
    <glyph glyph-name="section" unicode="&#xa7;" 
d="M827 748q1 98 -73 154t-207 104q-133 -48 -133 -175q0 -73 56 -127t208 -116l35 -15q114 76 114 175zM260 1303q0 120 104 192t272 72t331 -72l-56 -139q-156 67 -276 67q-201 0 -201 -116q0 -54 50 -93q50 -38 201 -100q152 -62 226 -140t74 -190q0 -182 -145 -270
q145 -80 145 -222q-1 -142 -111 -222t-310 -80t-320 65v158q171 -82 323 -82q240 0 240 141q0 57 -43 97q-44 40 -218 113t-230 148t-56 179q0 179 160 258q-160 80 -160 236z" />
    <glyph glyph-name="dieresis" unicode="&#xa8;" 
d="M801 1497q96 -1 96 -103t-96 -102t-96 102t96 103zM426 1497q96 -1 96 -103t-96 -102t-96 102t96 103z" />
    <glyph glyph-name="copyright" unicode="&#xa9;" 
d="M653 272q-195 0 -300 124t-105 334q0 212 110 335t301 123q128 0 254 -62l-61 -127q-110 54 -193 54q-121 1 -186 -85t-65 -237q0 -323 251 -323q94 0 215 45v-131q-107 -50 -221 -50zM614 88q240 0 370 170t130 473t-130 473t-370 170t-370 -171t-129 -472
q-1 -301 129 -472t370 -171zM614 1483q286 0 448 -204q162 -205 161 -549q0 -344 -162 -547q-161 -203 -447 -203t-447 204t-161 546q0 344 160 548q162 204 448 205z" />
    <glyph glyph-name="ordfeminine" unicode="&#xaa;" 
d="M428 987q0 -90 104 -90t168 55q62 55 62 146v20l-100 -2q-114 -2 -174 -28t-60 -101zM498 784q-222 0 -222 205q0 115 85 167t276 58l125 5v10q0 133 -152 133q-112 0 -245 -51l-41 110q138 58 294 58q291 0 291 -238v-444h-110l-33 118q-104 -131 -268 -131z" />
    <glyph glyph-name="guillemotleft" unicode="&#xab;" 
d="M604 553l309 414l117 -78l-237 -348l237 -348l-117 -78l-309 411v27zM197 553l309 414l117 -78l-238 -348l238 -348l-117 -78l-309 411v27z" />
    <glyph glyph-name="logicalnot" unicode="&#xac;" 
d="M1075 797v-535h-149v385h-774v150h923z" />
    <glyph glyph-name="uni00AD" unicode="&#xad;" 
d="M285 465v168h659v-168h-659z" />
    <glyph glyph-name="registered" unicode="&#xae;" 
d="M506 768h72q170 0 170 141q0 73 -42 103t-131 30h-69v-274zM506 637v-352h-158v893h234q325 0 325 -265q0 -163 -159 -233l237 -395h-178l-207 352h-94zM614 88q240 0 370 170t130 473t-130 473t-370 170t-370 -171t-129 -472q-1 -301 129 -472t370 -171zM614 1483
q286 0 448 -204q162 -205 161 -549q0 -344 -162 -547q-161 -203 -447 -203t-447 204t-161 546q0 344 160 548q162 204 448 205z" />
    <glyph glyph-name="overscore" unicode="&#xaf;" 
d="M1249 1556h-1269v140h1269v-140z" />
    <glyph glyph-name="degree" unicode="&#xb0;" 
d="M614 977q80 0 136 56q57 55 57 135q1 80 -57 137t-136 57t-136 -58q-56 -58 -56 -136q0 -79 56 -135t136 -56zM614 1483q130 1 222 -93q94 -94 94 -223t-93 -221t-223 -92t-223 92q-92 92 -92 222q1 128 93 222t222 93z" />
    <glyph glyph-name="plusminus" unicode="&#xb1;" 
d="M152 0v150h923v-150h-923zM539 647h-387v150h387v389h149v-389h387v-150h-387v-385h-149v385z" />
    <glyph glyph-name="twosuperior" unicode="&#xb2;" 
d="M879 672h-531v102l187 199q111 119 141 169t31 107q0 115 -111 115q-81 0 -164 -76l-78 86q118 103 242 103t189 -60t65 -164q0 -66 -35 -134t-164 -197l-135 -136h363v-114z" />
    <glyph glyph-name="threesuperior" unicode="&#xb3;" 
d="M846 899q0 -116 -74 -180t-210 -64t-220 50v124q110 -65 203 -65q149 0 149 137q0 125 -147 125h-72v104h70q123 0 123 127q0 111 -97 111q-71 0 -161 -70l-66 86q111 93 229 93q118 -1 182 -55t64 -148q0 -139 -149 -189q176 -39 176 -186z" />
    <glyph glyph-name="acute" unicode="&#xb4;" 
d="M811 1569v-21q-112 -173 -272 -307h-121v27q94 133 174 301h219z" />
    <glyph glyph-name="mu" unicode="&#xb5;" 
d="M362 391q0 -260 218 -260q148 0 217 91t69 306v570h183v-1098h-148l-27 147h-10q-96 -167 -295 -167q-139 0 -213 88q6 -153 6 -240v-320h-182v1590h182v-707z" />
    <glyph glyph-name="paragraph" unicode="&#xb6;" 
d="M1079 -260h-121v1657h-206v-1657h-121v819q-61 -18 -146 -18q-419 0 -419 501q0 258 108 386t342 128h563v-1816z" />
    <glyph glyph-name="periodcentered" unicode="&#xb7;" 
d="M614 862q127 0 127 -139t-127 -139t-127 139t127 139z" />
    <glyph glyph-name="cedilla" unicode="&#xb8;" 
d="M508 -381q151 0 151 92q0 74 -172 113l91 176h120l-57 -115q160 -37 160 -172q0 -205 -291 -205q-34 0 -82 9v108q33 -6 80 -6z" />
    <glyph glyph-name="onesuperior" unicode="&#xb9;" 
d="M721 1460v-788h-146v465q0 69 9 200q-41 -44 -74 -65l-70 -51l-73 88l219 151h135z" />
    <glyph glyph-name="ordmasculine" unicode="&#xba;" 
d="M614 903q182 -1 181 227q1 228 -181 228t-182 -228t182 -227zM616 784q-148 0 -242 93t-93 255q0 162 90 255q90 92 240 92q149 -1 243 -93t94 -255t-92 -255t-240 -92z" />
    <glyph glyph-name="guillemotright" unicode="&#xbb;" 
d="M623 526l-310 -411l-116 78l237 348l-237 348l116 78l310 -414v-27zM1030 526l-309 -411l-117 78l238 348l-238 348l117 78l309 -414v-27z" />
    <glyph glyph-name="onequarter" unicode="&#xbc;" 
d="M981 288v176q0 82 6 172q-40 -73 -80 -131l-156 -217h230zM1208 175h-84v-174h-143v174h-375v98l377 523h141v-508h84v-113zM1057 1462l-729 -1462h-158l729 1462h158zM376 1460v-788h-146v465q0 69 9 200q-41 -44 -74 -65l-70 -51l-73 88l219 151h135z" />
    <glyph glyph-name="onehalf" unicode="&#xbd;" 
d="M1225 1h-531v102l187 199q111 118 141 168t31 108q0 115 -111 115q-81 0 -164 -76l-78 86q118 103 242 103t189 -60t65 -164q0 -66 -35 -134t-164 -197l-135 -136h363v-114zM992 1462l-729 -1462h-158l729 1462h158zM357 1460v-788h-146v465q0 69 9 200q-41 -44 -74 -65
l-70 -51l-73 88l219 151h135z" />
    <glyph glyph-name="threequarters" unicode="&#xbe;" 
d="M1002 288v176q0 82 6 172q-40 -73 -80 -131l-156 -217h230zM1229 175h-84v-174h-143v174h-375v98l377 523h141v-508h84v-113zM1110 1462l-729 -1462h-158l729 1462h158zM525 899q-1 -116 -75 -180t-210 -64t-219 50v124q110 -65 203 -65q149 0 149 137q0 125 -147 125
h-72v104h70q123 0 123 127q0 111 -97 111q-71 0 -161 -70l-66 86q111 93 229 93q118 -1 182 -55t64 -148q0 -139 -149 -189q176 -39 176 -186z" />
    <glyph glyph-name="questiondown" unicode="&#xbf;" 
d="M762 676v-37q0 -119 -44 -193t-163 -159q-129 -97 -171 -155t-42 -155t74 -153t232 -57q156 0 345 90l62 -144q-219 -106 -429 -106q-210 -1 -334 97t-124 246t54 232q54 82 184 180q132 98 164 152t32 143v19h160zM674 840q-127 0 -127 139t127 139t127 -139t-127 -139z
" />
    <glyph glyph-name="Agrave" unicode="&#xc0;" 
d="M734 1579h-121q-166 142 -272 307v21h219q86 -178 174 -301v-27zM807 618l-133 424q-39 124 -62 226q-20 -99 -46 -183l-144 -467h385zM1004 0l-144 453h-491l-146 -453h-190l483 1468h195l485 -1468h-192z" />
    <glyph glyph-name="Aacute" unicode="&#xc1;" 
d="M913 1907v-21q-112 -173 -272 -307h-121v27q94 133 174 301h219zM807 618l-133 424q-39 124 -62 226q-20 -99 -46 -183l-144 -467h385zM1004 0l-144 453h-491l-146 -453h-190l483 1468h195l485 -1468h-192z" />
    <glyph glyph-name="Acircumflex" unicode="&#xc2;" 
d="M946 1579h-121q-85 56 -211 186q-133 -136 -211 -186h-120v27q25 29 59 67q139 155 176 234h193q37 -79 176 -234l59 -67v-27zM807 618l-133 424q-39 124 -62 226q-20 -99 -46 -183l-144 -467h385zM1004 0l-144 453h-491l-146 -453h-190l483 1468h195l485 -1468h-192z
" />
    <glyph glyph-name="Atilde" unicode="&#xc3;" 
d="M464 1843q58 0 160 -56t137 -56q80 0 106 114h105q-27 -264 -211 -264q-57 1 -157 57t-140 56q-82 0 -107 -115h-104q25 264 211 264zM807 618l-133 424q-39 124 -62 226q-20 -99 -46 -183l-144 -467h385zM1004 0l-144 453h-491l-146 -453h-190l483 1468h195l485 -1468
h-192z" />
    <glyph glyph-name="Adieresis" unicode="&#xc4;" 
d="M801 1835q96 -1 96 -103t-96 -102t-96 102t96 103zM426 1835q96 -1 96 -103t-96 -102t-96 102t96 103zM807 618l-133 424q-39 124 -62 226q-20 -99 -46 -183l-144 -467h385zM1004 0l-144 453h-491l-146 -453h-190l483 1468h195l485 -1468h-192z" />
    <glyph glyph-name="Aring" unicode="&#xc5;" 
d="M610 1694q-50 0 -80 -30q-32 -30 -32 -83q0 -113 112 -113q50 0 82 30t31 83q1 53 -31 83t-82 30zM807 618l-133 424q-39 124 -62 226q-20 -99 -46 -183l-144 -467h385zM387 1581q1 99 61 157t162 58t166 -59t64 -154q0 -130 -105 -188l461 -1395h-192l-144 453h-491
l-146 -453h-190l458 1392q-104 56 -104 189z" />
    <glyph glyph-name="AE" unicode="&#xc6;" 
d="M557 618v680h-106l-146 -680h252zM1210 0h-653v453h-289l-96 -453h-172l338 1462h872v-164h-477v-452h438v-162h-438v-520h477v-164z" />
    <glyph glyph-name="Ccedilla" unicode="&#xc7;" 
d="M588 -381q151 0 151 92q0 74 -172 113l84 163q-226 31 -358 189q-164 196 -164 550t179 555q179 202 489 202q220 0 383 -86l-78 -156q-154 78 -305 78q-215 -1 -343 -159t-128 -437t120 -429t351 -151q130 0 327 58v-162q-145 -59 -356 -59l-47 -95q160 -37 160 -172
q0 -205 -291 -205q-34 0 -82 9v108q33 -6 80 -6z" />
    <glyph glyph-name="Egrave" unicode="&#xc8;" 
d="M738 1579h-121q-166 142 -272 307v21h219q86 -178 174 -301v-27zM1059 0h-842v1462h842v-164h-656v-452h617v-162h-617v-520h656v-164z" />
    <glyph glyph-name="Eacute" unicode="&#xc9;" 
d="M874 1907v-21q-112 -173 -272 -307h-121v27q94 133 174 301h219zM1059 0h-842v1462h842v-164h-656v-452h617v-162h-617v-520h656v-164z" />
    <glyph glyph-name="Ecircumflex" unicode="&#xca;" 
d="M981 1579h-121q-85 56 -211 186q-133 -136 -211 -186h-120v27q25 29 59 67q139 155 176 234h193q37 -79 176 -234l59 -67v-27zM1059 0h-842v1462h842v-164h-656v-452h617v-162h-617v-520h656v-164z" />
    <glyph glyph-name="Edieresis" unicode="&#xcb;" 
d="M826 1835q96 -1 96 -103t-96 -102t-96 102t96 103zM451 1835q96 -1 96 -103t-96 -102t-96 102t96 103zM1059 0h-842v1462h842v-164h-656v-452h617v-162h-617v-520h656v-164z" />
    <glyph glyph-name="Igrave" unicode="&#xcc;" 
d="M703 1579h-121q-166 142 -272 307v21h219q86 -178 174 -301v-27zM1001 0h-776v123l295 20v1176l-295 20v123h776v-123l-294 -20v-1176l294 -20v-123z" />
    <glyph glyph-name="Iacute" unicode="&#xcd;" 
d="M930 1907v-21q-112 -173 -272 -307h-121v27q94 133 174 301h219zM1001 0h-776v123l295 20v1176l-295 20v123h776v-123l-294 -20v-1176l294 -20v-123z" />
    <glyph glyph-name="Icircumflex" unicode="&#xce;" 
d="M946 1579h-121q-85 56 -211 186q-133 -136 -211 -186h-120v27q25 29 59 67q139 155 176 234h193q37 -79 176 -234l59 -67v-27zM1001 0h-776v123l295 20v1176l-295 20v123h776v-123l-294 -20v-1176l294 -20v-123z" />
    <glyph glyph-name="Idieresis" unicode="&#xcf;" 
d="M803 1835q96 -1 96 -103t-96 -102t-96 102t96 103zM428 1835q96 -1 96 -103t-96 -102t-96 102t96 103zM1001 0h-776v123l295 20v1176l-295 20v123h776v-123l-294 -20v-1176l294 -20v-123z" />
    <glyph glyph-name="Eth" unicode="&#xd0;" 
d="M322 1303v-482h380v-162h-380v-499h96q532 0 532 572t-493 571h-135zM135 0v659h-135v162h135v641h342q317 0 493 -189t177 -539q0 -350 -183 -542t-528 -192h-301z" />
    <glyph glyph-name="Ntilde" unicode="&#xd1;" 
d="M469 1843q59 0 161 -56t136 -56q80 0 106 114h105q-27 -264 -211 -264q-57 1 -157 57t-140 56q-82 0 -107 -115h-104q25 264 211 264zM1092 0h-215l-580 1210h-8q18 -277 18 -417v-793h-172v1462h213l578 -1204h6q-14 303 -14 404v800h174v-1462z" />
    <glyph glyph-name="Ograve" unicode="&#xd2;" 
d="M730 1579h-121q-166 142 -272 307v21h219q86 -178 174 -301v-27zM616 143q174 0 254 145q80 144 80 446t-82 444t-250 143q-337 0 -337 -589t335 -589zM616 -20q-532 0 -532 752t534 753q256 1 392 -195t137 -557q0 -361 -138 -557t-393 -196z" />
    <glyph glyph-name="Oacute" unicode="&#xd3;" 
d="M901 1907v-21q-112 -173 -272 -307h-121v27q94 133 174 301h219zM616 143q174 0 254 145q80 144 80 446t-82 444t-250 143q-337 0 -337 -589t335 -589zM616 -20q-532 0 -532 752t534 753q256 1 392 -195t137 -557q0 -361 -138 -557t-393 -196z" />
    <glyph glyph-name="Ocircumflex" unicode="&#xd4;" 
d="M946 1579h-121q-85 56 -211 186q-133 -136 -211 -186h-120v27q25 29 59 67q139 155 176 234h193q37 -79 176 -234l59 -67v-27zM616 143q174 0 254 145q80 144 80 446t-82 444t-250 143q-337 0 -337 -589t335 -589zM616 -20q-532 0 -532 752t534 753q256 1 392 -195
t137 -557q0 -361 -138 -557t-393 -196z" />
    <glyph glyph-name="Otilde" unicode="&#xd5;" 
d="M473 1843q59 0 161 -56t136 -56q80 0 106 114h105q-27 -264 -211 -264q-57 1 -157 57t-140 56q-82 0 -107 -115h-104q25 264 211 264zM616 143q174 0 254 145q80 144 80 446t-82 444t-250 143q-337 0 -337 -589t335 -589zM616 -20q-532 0 -532 752t534 753
q256 1 392 -195t137 -557q0 -361 -138 -557t-393 -196z" />
    <glyph glyph-name="Odieresis" unicode="&#xd6;" 
d="M803 1835q96 -1 96 -103t-96 -102t-96 102t96 103zM428 1835q96 -1 96 -103t-96 -102t-96 102t96 103zM616 143q174 0 254 145q80 144 80 446t-82 444t-250 143q-337 0 -337 -589t335 -589zM616 -20q-532 0 -532 752t534 753q256 1 392 -195t137 -557q0 -361 -138 -557
t-393 -196z" />
    <glyph glyph-name="multiply" unicode="&#xd7;" 
d="M508 723l-318 319l105 105l317 -318l322 318l104 -103l-321 -321l319 -320l-102 -102l-322 317l-317 -315l-102 103z" />
    <glyph glyph-name="Oslash" unicode="&#xd8;" 
d="M616 143q174 0 254 145t80 445q0 209 -35 328l-512 -832q80 -86 213 -86zM618 1321q-337 0 -337 -588q0 -212 38 -342l515 836q-80 94 -216 94zM84 735q0 750 534 750q186 0 310 -105l92 152l137 -78l-125 -201q115 -189 115 -535t-138 -542t-393 -196q-189 0 -307 94
l-92 -150l-137 78l121 197q-117 184 -117 536z" />
    <glyph glyph-name="Ugrave" unicode="&#xd9;" 
d="M742 1579h-121q-166 142 -272 307v21h219q86 -178 174 -301v-27zM1104 1464v-948q0 -260 -126 -398t-370 -138q-483 0 -483 540v942h186v-932q0 -387 307 -387q295 0 300 389v932h186z" />
    <glyph glyph-name="Uacute" unicode="&#xda;" 
d="M887 1907v-21q-112 -173 -272 -307h-121v27q94 133 174 301h219zM1104 1464v-948q0 -260 -126 -398t-370 -138q-483 0 -483 540v942h186v-932q0 -387 307 -387q295 0 300 389v932h186z" />
    <glyph glyph-name="Ucircumflex" unicode="&#xdb;" 
d="M946 1579h-121q-85 56 -211 186q-133 -136 -211 -186h-120v27q25 29 59 67q139 155 176 234h193q37 -79 176 -234l59 -67v-27zM1104 1464v-948q0 -260 -126 -398t-370 -138q-483 0 -483 540v942h186v-932q0 -387 307 -387q295 0 300 389v932h186z" />
    <glyph glyph-name="Udieresis" unicode="&#xdc;" 
d="M803 1835q96 -1 96 -103t-96 -102t-96 102t96 103zM428 1835q96 -1 96 -103t-96 -102t-96 102t96 103zM1104 1464v-948q0 -260 -126 -398t-370 -138q-483 0 -483 540v942h186v-932q0 -387 307 -387q295 0 300 389v932h186z" />
    <glyph glyph-name="Yacute" unicode="&#xdd;" 
d="M887 1907v-21q-112 -173 -272 -307h-121v27q94 133 174 301h219zM707 0h-187v559l-487 903h203l376 -739l381 739h201l-487 -893v-569z" />
    <glyph glyph-name="Thorn" unicode="&#xde;" 
d="M362 475h170q198 0 284 72t85 225q0 279 -338 279h-201v-576zM362 317v-317h-186v1462h186v-252h218q514 0 514 -428q0 -219 -138 -342t-403 -123h-191z" />
    <glyph glyph-name="germandbls" unicode="&#xdf;" 
d="M756 129q213 0 213 174q1 81 -45 132t-156 121t-161 130q-50 61 -50 148q0 117 129 223t129 196q-1 164 -235 164t-234 -215v-1202h-182v1200q0 367 424 367q194 1 302 -79t109 -220q0 -140 -133 -257q-84 -74 -108 -105t-25 -67q0 -36 29 -66t162 -118t180 -166t47 -176
q0 -161 -100 -247q-101 -86 -283 -86t-289 69v166q143 -86 277 -86z" />
    <glyph glyph-name="agrave" unicode="&#xe0;" 
d="M726 1241h-121q-166 142 -272 307v21h219q86 -178 174 -301v-27zM324 305q0 -178 200 -178q146 -1 234 81t88 230v99l-162 -7q-196 -8 -278 -62t-82 -163zM466 -20q-146 0 -238 86t-93 241q0 332 510 348l203 7v69q0 236 -244 236q-147 0 -328 -82l-63 137q196 96 403 96
q206 0 308 -87t102 -279v-752h-131l-37 152h-8q-77 -96 -158 -134q-80 -38 -226 -38z" />
    <glyph glyph-name="aacute" unicode="&#xe1;" 
d="M895 1569v-21q-112 -173 -272 -307h-121v27q94 133 174 301h219zM324 305q0 -178 200 -178q146 -1 234 81t88 230v99l-162 -7q-196 -8 -278 -62t-82 -163zM466 -20q-146 0 -238 86t-93 241q0 332 510 348l203 7v69q0 236 -244 236q-147 0 -328 -82l-63 137q196 96 403 96
q206 0 308 -87t102 -279v-752h-131l-37 152h-8q-77 -96 -158 -134q-80 -38 -226 -38z" />
    <glyph glyph-name="acircumflex" unicode="&#xe2;" 
d="M954 1241h-121q-85 56 -211 186q-133 -136 -211 -186h-120v27q25 29 59 67q139 155 176 234h193q37 -79 176 -234l59 -67v-27zM324 305q0 -178 200 -178q146 -1 234 81t88 230v99l-162 -7q-196 -8 -278 -62t-82 -163zM466 -20q-146 0 -238 86t-93 241q0 332 510 348
l203 7v69q0 236 -244 236q-147 0 -328 -82l-63 137q196 96 403 96q206 0 308 -87t102 -279v-752h-131l-37 152h-8q-77 -96 -158 -134q-80 -38 -226 -38z" />
    <glyph glyph-name="atilde" unicode="&#xe3;" 
d="M475 1505q59 0 161 -56t136 -56q80 0 106 114h105q-27 -264 -211 -264q-57 1 -157 57t-140 56q-82 0 -107 -115h-104q25 264 211 264zM324 305q0 -178 200 -178q146 -1 234 81t88 230v99l-162 -7q-196 -8 -278 -62t-82 -163zM466 -20q-146 0 -238 86t-93 241
q0 332 510 348l203 7v69q0 236 -244 236q-147 0 -328 -82l-63 137q196 96 403 96q206 0 308 -87t102 -279v-752h-131l-37 152h-8q-77 -96 -158 -134q-80 -38 -226 -38z" />
    <glyph glyph-name="adieresis" unicode="&#xe4;" 
d="M813 1497q96 -1 96 -103t-96 -102t-96 102t96 103zM438 1497q96 -1 96 -103t-96 -102t-96 102t96 103zM324 305q0 -178 200 -178q146 -1 234 81t88 230v99l-162 -7q-196 -8 -278 -62t-82 -163zM466 -20q-146 0 -238 86t-93 241q0 332 510 348l203 7v69q0 236 -244 236
q-147 0 -328 -82l-63 137q196 96 403 96q206 0 308 -87t102 -279v-752h-131l-37 152h-8q-77 -96 -158 -134q-80 -38 -226 -38z" />
    <glyph glyph-name="aring" unicode="&#xe5;" 
d="M610 1569q-50 0 -82 -30t-31 -83q0 -113 112 -113q49 0 81 30t32 83t-32 83q-30 30 -80 30zM610 1241q-102 0 -164 58q-60 58 -60 157t60 157t162 58t166 -59q64 -60 65 -156t-63 -156t-166 -59zM324 305q0 -178 200 -178q146 -1 234 81t88 230v99l-162 -7
q-196 -8 -278 -62t-82 -163zM466 -20q-146 0 -238 86t-93 241q0 332 510 348l203 7v69q0 236 -244 236q-147 0 -328 -82l-63 137q196 96 403 96q206 0 308 -87t102 -279v-752h-131l-37 152h-8q-77 -96 -158 -134q-80 -38 -226 -38z" />
    <glyph glyph-name="ae" unicode="&#xe6;" 
d="M215 305q0 -83 32 -131t87 -47q82 1 134 83t52 228v99l-88 -7q-217 -17 -217 -225zM1010 662q0 141 -40 223t-110 82t-115 -78t-51 -227h316zM522 731q0 236 -139 236q-107 0 -211 -82l-57 137q131 96 276 96q188 0 246 -178q78 178 240 178q137 0 223 -136t86 -355v-113
h-496q3 -192 67 -284t172 -91q108 0 230 76v-162q-107 -73 -241 -73q-222 0 -316 229q-105 -229 -301 -229q-115 0 -185 86t-71 241q0 332 328 348l149 7v69z" />
    <glyph glyph-name="ccedilla" unicode="&#xe7;" 
d="M557 -381q151 0 151 92q0 74 -172 113l83 161q-190 23 -305 141q-142 146 -142 422t145 423t408 147q178 0 336 -59l-62 -158q-150 57 -268 57q-371 0 -371 -410t361 -409q157 0 321 62v-160q-126 -57 -305 -61l-47 -95q160 -37 160 -172q0 -205 -291 -205q-34 0 -82 9
v108q33 -6 80 -6z" />
    <glyph glyph-name="egrave" unicode="&#xe8;" 
d="M767 1241h-121q-166 142 -272 307v21h219q86 -178 174 -301v-27zM899 662q1 305 -273 305t-300 -305h573zM1096 514h-774q8 -375 344 -375q195 0 370 76v-160q-166 -75 -364 -75q-245 0 -392 150t-147 413q-1 263 135 419t356 156t346 -134t126 -357v-113z" />
    <glyph glyph-name="eacute" unicode="&#xe9;" 
d="M893 1569v-21q-112 -173 -272 -307h-121v27q94 133 174 301h219zM899 662q1 305 -273 305t-300 -305h573zM1096 514h-774q8 -375 344 -375q195 0 370 76v-160q-166 -75 -364 -75q-245 0 -392 150t-147 413q-1 263 135 419t356 156t346 -134t126 -357v-113z" />
    <glyph glyph-name="ecircumflex" unicode="&#xea;" 
d="M962 1241h-121q-85 56 -211 186q-133 -136 -211 -186h-120v27q25 29 59 67q139 155 176 234h193q37 -79 176 -234l59 -67v-27zM899 662q1 305 -273 305t-300 -305h573zM1096 514h-774q8 -375 344 -375q195 0 370 76v-160q-166 -75 -364 -75q-245 0 -392 150t-147 413
q-1 263 135 419t356 156t346 -134t126 -357v-113z" />
    <glyph glyph-name="edieresis" unicode="&#xeb;" 
d="M819 1497q96 -1 96 -103t-96 -102t-96 102t96 103zM444 1497q96 -1 96 -103t-96 -102t-96 102t96 103zM899 662q1 305 -273 305t-300 -305h573zM1096 514h-774q8 -375 344 -375q195 0 370 76v-160q-166 -75 -364 -75q-245 0 -392 150t-147 413q-1 263 135 419t356 156
t346 -134t126 -357v-113z" />
    <glyph glyph-name="igrave" unicode="&#xec;" 
d="M726 1241h-121q-166 142 -272 307v21h219q86 -178 174 -301v-27zM272 1098h451v-955l352 -20v-123h-878v123l344 20v811l-269 21v123z" />
    <glyph glyph-name="iacute" unicode="&#xed;" 
d="M924 1569v-21q-112 -173 -272 -307h-121v27q94 133 174 301h219zM272 1098h451v-955l352 -20v-123h-878v123l344 20v811l-269 21v123z" />
    <glyph glyph-name="icircumflex" unicode="&#xee;" 
d="M946 1241h-121q-85 56 -211 186q-133 -136 -211 -186h-120v27q25 29 59 67q139 155 176 234h193q37 -79 176 -234l59 -67v-27zM272 1098h451v-955l352 -20v-123h-878v123l344 20v811l-269 21v123z" />
    <glyph glyph-name="idieresis" unicode="&#xef;" 
d="M801 1497q96 -1 96 -103t-96 -102t-96 102t96 103zM426 1497q96 -1 96 -103t-96 -102t-96 102t96 103zM272 1098h451v-955l352 -20v-123h-878v123l344 20v811l-269 21v123z" />
    <glyph glyph-name="eth" unicode="&#xf0;" 
d="M614 823q-286 0 -286 -346t288 -346q154 -1 222 99t67 296q1 129 -77 213t-214 84zM1094 573q0 -277 -128 -435t-348 -158q-219 0 -351 134t-132 365q1 232 121 362t332 130t301 -119l8 4q-58 226 -242 391l-256 -153l-73 114l217 131q-104 71 -172 109l69 123
q143 -70 246 -148l227 138l74 -113l-194 -117q301 -291 301 -758z" />
    <glyph glyph-name="ntilde" unicode="&#xf1;" 
d="M471 1505q59 0 161 -56t136 -56q80 0 106 114h105q-27 -264 -211 -264q-57 1 -157 57t-140 56q-82 0 -107 -115h-104q25 264 211 264zM887 0v707q0 260 -238 260q-307 0 -307 -398v-569h-182v1098h147l27 -148h10q103 168 336 168q389 0 389 -401v-717h-182z" />
    <glyph glyph-name="ograve" unicode="&#xf2;" 
d="M771 1241h-121q-166 142 -272 307v21h219q86 -178 174 -301v-27zM614 131q310 0 310 418t-310 418t-311 -418q1 -418 311 -418zM616 -20q-222 0 -362 156t-139 416q-1 262 135 414t360 152t363 -155t139 -416t-137 -414t-359 -153z" />
    <glyph glyph-name="oacute" unicode="&#xf3;" 
d="M891 1569v-21q-112 -173 -272 -307h-121v27q94 133 174 301h219zM614 131q310 0 310 418t-310 418t-311 -418q1 -418 311 -418zM616 -20q-222 0 -362 156t-139 416q-1 262 135 414t360 152t363 -155t139 -416t-137 -414t-359 -153z" />
    <glyph glyph-name="ocircumflex" unicode="&#xf4;" 
d="M941 1241h-121q-85 56 -211 186q-133 -136 -211 -186h-120v27q25 29 59 67q139 155 176 234h193q37 -79 176 -234l59 -67v-27zM614 131q310 0 310 418t-310 418t-311 -418q1 -418 311 -418zM616 -20q-222 0 -362 156t-139 416q-1 262 135 414t360 152t363 -155t139 -416
t-137 -414t-359 -153z" />
    <glyph glyph-name="otilde" unicode="&#xf5;" 
d="M465 1505q59 0 161 -56t136 -56q80 0 106 114h105q-27 -264 -211 -264q-57 1 -157 57t-140 56q-82 0 -107 -115h-104q25 264 211 264zM614 131q310 0 310 418t-310 418t-311 -418q1 -418 311 -418zM616 -20q-222 0 -362 156t-139 416q-1 262 135 414t360 152t363 -155
t139 -416t-137 -414t-359 -153z" />
    <glyph glyph-name="odieresis" unicode="&#xf6;" 
d="M794 1497q96 -1 96 -103t-96 -102t-96 102t96 103zM419 1497q96 -1 96 -103t-96 -102t-96 102t96 103zM614 131q310 0 310 418t-310 418t-311 -418q1 -418 311 -418zM616 -20q-222 0 -362 156t-139 416q-1 262 135 414t360 152t363 -155t139 -416t-137 -414t-359 -153z
" />
    <glyph glyph-name="divide" unicode="&#xf7;" 
d="M498 373q0 125 114 125t115 -125q-1 -125 -115 -125t-114 125zM152 647v150h923v-150h-923zM498 1071q0 125 114 125t115 -125q-1 -125 -115 -125t-114 125z" />
    <glyph glyph-name="oslash" unicode="&#xf8;" 
d="M621 131q161 -1 232 105t71 292t-52 289l-405 -653q61 -33 154 -33zM606 967q-161 1 -232 -103t-71 -298t53 -290l406 656q-66 35 -156 35zM115 552q0 266 133 416t368 150q128 0 236 -57l76 119l131 -84l-84 -131q137 -157 137 -421t-134 -414t-368 -150q-129 0 -233 53
l-76 -119l-131 84l84 131q-139 158 -139 423z" />
    <glyph glyph-name="ugrave" unicode="&#xf9;" 
d="M734 1241h-121q-166 142 -272 307v21h219q86 -178 174 -301v-27zM551 -20q-391 0 -391 401v717h182v-707q0 -260 236 -260q161 1 235 93t74 304v570h182v-1098h-147l-27 147h-10q-105 -167 -334 -167z" />
    <glyph glyph-name="uacute" unicode="&#xfa;" 
d="M893 1569v-21q-112 -173 -272 -307h-121v27q94 133 174 301h219zM551 -20q-391 0 -391 401v717h182v-707q0 -260 236 -260q161 1 235 93t74 304v570h182v-1098h-147l-27 147h-10q-105 -167 -334 -167z" />
    <glyph glyph-name="ucircumflex" unicode="&#xfb;" 
d="M954 1241h-121q-85 56 -211 186q-133 -136 -211 -186h-120v27q25 29 59 67q139 155 176 234h193q37 -79 176 -234l59 -67v-27zM551 -20q-391 0 -391 401v717h182v-707q0 -260 236 -260q161 1 235 93t74 304v570h182v-1098h-147l-27 147h-10q-105 -167 -334 -167z" />
    <glyph glyph-name="udieresis" unicode="&#xfc;" 
d="M803 1497q96 -1 96 -103t-96 -102t-96 102t96 103zM428 1497q96 -1 96 -103t-96 -102t-96 102t96 103zM551 -20q-391 0 -391 401v717h182v-707q0 -260 236 -260q161 1 235 93t74 304v570h182v-1098h-147l-27 147h-10q-105 -167 -334 -167z" />
    <glyph glyph-name="yacute" unicode="&#xfd;" 
d="M887 1569v-21q-112 -173 -272 -307h-121v27q94 133 174 301h219zM268 -492q-86 0 -168 17v145q62 -12 147 -12t139 41t95 141l58 150l-457 1108h188l262 -654q82 -205 89 -290h6q23 112 90 292l239 652h189l-475 -1241q-67 -173 -156 -261t-246 -88z" />
    <glyph glyph-name="thorn" unicode="&#xfe;" 
d="M340 551q0 -227 70 -323t221 -97q272 0 272 418t-274 418q-153 0 -219 -88t-70 -287v-41zM656 1118q206 0 322 -150q114 -150 114 -418q0 -270 -115 -420t-319 -150t-318 159h-12q12 -129 12 -162v-469h-182v2048h182v-458l-8 -148h8q110 168 316 168z" />
    <glyph glyph-name="ydieresis" unicode="&#xff;" 
d="M809 1497q96 -1 96 -103t-96 -102t-96 102t96 103zM434 1497q96 -1 96 -103t-96 -102t-96 102t96 103zM268 -492q-86 0 -168 17v145q62 -12 147 -12t139 41t95 141l58 150l-457 1108h188l262 -654q82 -205 89 -290h6q23 112 90 292l239 652h189l-475 -1241
q-67 -173 -156 -261t-246 -88z" />
    <glyph glyph-name="Amacron" unicode="&#x100;" 
d="M326 1729h575v-150h-575v150zM807 618l-133 424q-39 124 -62 226q-20 -99 -46 -183l-144 -467h385zM1004 0l-144 453h-491l-146 -453h-190l483 1468h195l485 -1468h-192z" />
    <glyph glyph-name="amacron" unicode="&#x101;" 
d="M317 1391h575v-150h-575v150zM324 305q0 -178 200 -178q146 -1 234 81t88 230v99l-162 -7q-196 -8 -278 -62t-82 -163zM466 -20q-146 0 -238 86t-93 241q0 332 510 348l203 7v69q0 236 -244 236q-147 0 -328 -82l-63 137q196 96 403 96q206 0 308 -87t102 -279v-752h-131
l-37 152h-8q-77 -96 -158 -134q-80 -38 -226 -38z" />
    <glyph glyph-name="Abreve" unicode="&#x102;" 
d="M607 1579q-280 0 -297 277h109q7 -76 47 -100t143 -25q181 0 191 125h112q-9 -127 -89 -202t-216 -75zM807 618l-133 424q-39 124 -62 226q-20 -99 -46 -183l-144 -467h385zM1004 0l-144 453h-491l-146 -453h-190l483 1468h195l485 -1468h-192z" />
    <glyph glyph-name="abreve" unicode="&#x103;" 
d="M599 1241q-280 0 -297 277h109q7 -76 47 -100t143 -25q181 0 191 125h112q-9 -127 -89 -202t-216 -75zM324 305q0 -178 200 -178q146 -1 234 81t88 230v99l-162 -7q-196 -8 -278 -62t-82 -163zM466 -20q-146 0 -238 86t-93 241q0 332 510 348l203 7v69q0 236 -244 236
q-147 0 -328 -82l-63 137q196 96 403 96q206 0 308 -87t102 -279v-752h-131l-37 152h-8q-77 -96 -158 -134q-80 -38 -226 -38z" />
    <glyph glyph-name="Aogonek" unicode="&#x104;" 
d="M1040 -455q-101 1 -164 55t-63 148q0 144 190 252h1l-144 453h-491l-146 -453h-190l483 1468h195l485 -1468h-62q-170 -125 -170 -238q0 -96 127 -96q66 0 123 15v-113q-73 -23 -174 -23zM807 618l-133 424q-39 124 -62 226q-20 -99 -46 -183l-144 -467h385z" />
    <glyph glyph-name="aogonek" unicode="&#x105;" 
d="M932 -455q-101 1 -164 55t-63 148q0 144 190 252l-37 152h-8q-77 -96 -158 -134q-80 -38 -226 -38t-238 86t-93 241q0 332 510 348l203 7v69q0 236 -244 236q-147 0 -328 -82l-63 137q196 96 403 96q206 0 308 -87t102 -279v-752q-170 -125 -170 -238q0 -96 127 -96
q66 0 123 15v-113q-73 -23 -174 -23zM324 305q0 -178 200 -178q146 -1 234 81t88 230v99l-162 -7q-196 -8 -278 -62t-82 -163z" />
    <glyph glyph-name="Cacute" unicode="&#x106;" 
d="M1053 1907v-21q-112 -173 -272 -307h-121v27q94 133 174 301h219zM766 -20q-309 0 -473 196t-164 550t179 555q179 202 489 202q220 0 383 -86l-78 -156q-154 78 -305 78q-215 -1 -343 -159t-128 -437t120 -429t351 -151q130 0 327 58v-162q-146 -59 -358 -59z" />
    <glyph glyph-name="cacute" unicode="&#x107;" 
d="M971 1569v-21q-112 -173 -272 -307h-121v27q94 133 174 301h219zM731 958q-371 0 -371 -410t361 -409q157 0 321 62v-160q-134 -61 -329 -61q-257 0 -399 146t-142 422t145 423t408 147q178 0 336 -59l-62 -158q-150 57 -268 57z" />
    <glyph glyph-name="Ccircumflex" unicode="&#x108;" 
d="M1106 1579h-121q-85 56 -211 186q-133 -136 -211 -186h-120v27q25 29 59 67q139 155 176 234h193q37 -79 176 -234l59 -67v-27zM766 -20q-309 0 -473 196t-164 550t179 555q179 202 489 202q220 0 383 -86l-78 -156q-154 78 -305 78q-215 -1 -343 -159t-128 -437
t120 -429t351 -151q130 0 327 58v-162q-146 -59 -358 -59z" />
    <glyph glyph-name="ccircumflex" unicode="&#x109;" 
d="M1030 1241h-121q-85 56 -211 186q-133 -136 -211 -186h-120v27q25 29 59 67q139 155 176 234h193q37 -79 176 -234l59 -67v-27zM731 958q-371 0 -371 -410t361 -409q157 0 321 62v-160q-134 -61 -329 -61q-257 0 -399 146t-142 422t145 423t408 147q178 0 336 -59
l-62 -158q-150 57 -268 57z" />
    <glyph glyph-name="Cdot" unicode="&#x10a;" 
d="M778 1847q106 -1 107 -115q-1 -114 -107 -114t-106 114t106 115zM766 -20q-309 0 -473 196t-164 550t179 555q179 202 489 202q220 0 383 -86l-78 -156q-154 78 -305 78q-215 -1 -343 -159t-128 -437t120 -429t351 -151q130 0 327 58v-162q-146 -59 -358 -59z" />
    <glyph glyph-name="cdot" unicode="&#x10b;" 
d="M698 1509q106 -1 107 -115q-1 -114 -107 -114t-106 114t106 115zM731 958q-371 0 -371 -410t361 -409q157 0 321 62v-160q-134 -61 -329 -61q-257 0 -399 146t-142 422t145 423t408 147q178 0 336 -59l-62 -158q-150 57 -268 57z" />
    <glyph glyph-name="Ccaron" unicode="&#x10c;" 
d="M437 1907h120q82 -54 211 -187q122 128 211 187h121v-27q-25 -29 -59 -67q-141 -158 -176 -234h-193q-35 76 -176 234l-59 67v27zM766 -20q-309 0 -473 196t-164 550t179 555q179 202 489 202q220 0 383 -86l-78 -156q-154 78 -305 78q-215 -1 -343 -159t-128 -437
t120 -429t351 -151q130 0 327 58v-162q-146 -59 -358 -59z" />
    <glyph glyph-name="ccaron" unicode="&#x10d;" 
d="M375 1569h120q82 -54 211 -187q122 128 211 187h121v-27q-25 -29 -59 -67q-141 -158 -176 -234h-193q-35 76 -176 234l-59 67v27zM731 958q-371 0 -371 -410t361 -409q157 0 321 62v-160q-134 -61 -329 -61q-257 0 -399 146t-142 422t145 423t408 147q178 0 336 -59
l-62 -158q-150 57 -268 57z" />
    <glyph glyph-name="Dcaron" unicode="&#x10e;" 
d="M274 1907h120q82 -54 211 -187q122 128 211 187h121v-27q-25 -29 -59 -67q-141 -158 -176 -234h-193q-35 76 -176 234l-59 67v27zM322 1303v-1143h96q532 0 532 572t-493 571h-135zM135 0v1462h342q317 0 493 -189t177 -539q0 -350 -183 -542t-528 -192h-301z" />
    <glyph glyph-name="dcaron" unicode="&#x10f;" 
d="M1315 1556v-20q0 -14 -42 -113t-103 -194h-96v26l26 107q26 116 35 194h180zM831 547q1 227 -69 323t-222 97q-272 0 -272 -418t274 -418q152 1 218 89t71 286v41zM513 -20q-205 0 -319 150t-115 418q0 270 115 420t318 150t319 -160h12q-12 129 -12 162v436h182v-1556
h-147l-27 147h-8q-113 -167 -318 -167z" />
    <glyph glyph-name="Dcroat" unicode="&#x110;" 
d="M322 1303v-482h380v-162h-380v-499h96q532 0 532 572t-493 571h-135zM135 0v659h-135v162h135v641h342q317 0 493 -189t177 -539q0 -350 -183 -542t-528 -192h-301z" />
    <glyph glyph-name="dcroat" unicode="&#x111;" 
d="M889 526q1 216 -69 308t-222 92q-272 0 -272 -398t274 -397q151 0 218 83t71 273v39zM571 -20q-205 0 -319 144t-115 403q0 259 115 405t319 145q204 0 318 -159h12q-12 126 -12 161v158h-379v137h379v182h182v-182h156v-137h-156v-1237h-147l-27 147h-8
q-113 -167 -318 -167z" />
    <glyph glyph-name="Emacron" unicode="&#x112;" 
d="M336 1729h575v-150h-575v150zM1059 0h-842v1462h842v-164h-656v-452h617v-162h-617v-520h656v-164z" />
    <glyph glyph-name="emacron" unicode="&#x113;" 
d="M346 1391h575v-150h-575v150zM899 662q1 305 -273 305t-300 -305h573zM1096 514h-774q8 -375 344 -375q195 0 370 76v-160q-166 -75 -364 -75q-245 0 -392 150t-147 413q-1 263 135 419t356 156t346 -134t126 -357v-113z" />
    <glyph glyph-name="Ebreve" unicode="&#x114;" 
d="M639 1579q-280 0 -297 277h109q7 -76 47 -100t143 -25q181 0 191 125h112q-9 -127 -89 -202t-216 -75zM1059 0h-842v1462h842v-164h-656v-452h617v-162h-617v-520h656v-164z" />
    <glyph glyph-name="ebreve" unicode="&#x115;" 
d="M626 1241q-280 0 -297 277h109q6 -76 46 -100t144 -25q181 0 191 125h112q-9 -127 -89 -202t-216 -75zM899 662q1 305 -273 305t-300 -305h573zM1096 514h-774q8 -375 344 -375q195 0 370 76v-160q-166 -75 -364 -75q-245 0 -392 150t-147 413q-1 263 135 419t356 156
t346 -134t126 -357v-113z" />
    <glyph glyph-name="Edotaccent" unicode="&#x116;" 
d="M650 1818q106 0 106 -114t-106 -115q-106 1 -107 115q1 114 107 114zM1059 0h-842v1462h842v-164h-656v-452h617v-162h-617v-520h656v-164z" />
    <glyph glyph-name="edotaccent" unicode="&#x117;" 
d="M638 1509q106 -1 106 -115t-106 -114t-107 114q1 114 107 115zM899 662q1 305 -273 305t-300 -305h573zM1096 514h-774q8 -375 344 -375q195 0 370 76v-160q-166 -75 -364 -75q-245 0 -392 150t-147 413q-1 263 135 419t356 156t346 -134t126 -357v-113z" />
    <glyph glyph-name="Eogonek" unicode="&#x118;" 
d="M846 -455q-101 1 -164 55t-63 148q0 144 190 252h-592v1462h842v-164h-656v-452h617v-162h-617v-520h656v-164h-119q-170 -125 -170 -238q0 -96 127 -96q66 0 123 15v-113q-73 -23 -174 -23z" />
    <glyph glyph-name="eogonek" unicode="&#x119;" 
d="M868 -424q-101 0 -164 54t-63 159q0 104 118 195q-43 -4 -87 -4q-245 0 -392 150t-147 413q-1 263 135 419t356 156t346 -134t126 -357v-113h-774q8 -375 344 -375q195 0 370 76v-160q-42 -19 -86 -33q-158 -120 -158 -229q0 -96 127 -96q66 0 123 15v-113
q-73 -23 -174 -23zM899 662q1 305 -273 305t-300 -305h573z" />
    <glyph glyph-name="Ecaron" unicode="&#x11a;" 
d="M318 1907h120q82 -54 211 -187q122 128 211 187h121v-27q-25 -29 -59 -67q-141 -158 -176 -234h-193q-35 76 -176 234l-59 67v27zM1059 0h-842v1462h842v-164h-656v-452h617v-162h-617v-520h656v-164z" />
    <glyph glyph-name="ecaron" unicode="&#x11b;" 
d="M308 1569h120q82 -54 211 -187q122 128 211 187h121v-27q-25 -29 -59 -67q-141 -158 -176 -234h-193q-35 76 -176 234l-59 67v27zM899 662q1 305 -273 305t-300 -305h573zM1096 514h-774q8 -375 344 -375q195 0 370 76v-160q-166 -75 -364 -75q-245 0 -392 150t-147 413
q-1 263 135 419t356 156t346 -134t126 -357v-113z" />
    <glyph glyph-name="Gcircumflex" unicode="&#x11c;" 
d="M1026 1579h-121q-85 56 -211 186q-133 -136 -211 -186h-120v27q25 29 59 67q139 155 176 234h193q37 -79 176 -234l59 -67v-27zM672 772h422v-717q-195 -75 -420 -75q-262 0 -410 200t-147 552q0 352 162 552t446 199q192 0 346 -86l-72 -162q-146 84 -280 84
q-192 1 -299 -155t-107 -433q0 -588 394 -588q97 0 202 29v436h-237v164z" />
    <glyph glyph-name="gcircumflex" unicode="&#x11d;" 
d="M937 1241h-121q-85 56 -211 186q-133 -136 -211 -186h-120v27q25 29 59 67q139 155 176 234h193q37 -79 176 -234l59 -67v-27zM692 18h-188q-230 0 -230 -198q0 -174 271 -174q395 0 395 223q0 89 -50 119t-198 30zM592 987q-225 -1 -225 -235t225 -234t225 234t-225 235
zM1126 1098v-113l-196 -27q65 -86 65 -230q-1 -144 -107 -240t-296 -95q-55 0 -86 6q-100 -56 -100 -133q0 -84 161 -84h187q174 0 266 -77t92 -220q0 -377 -565 -377q-217 0 -331 80t-114 226q0 212 240 270q-96 46 -96 156t133 190q-89 36 -140 122t-51 187q0 183 106 281
t304 98q86 0 150 -20h378z" />
    <glyph glyph-name="Gbreve" unicode="&#x11e;" 
d="M708 1579q-280 0 -297 277h109q6 -76 46 -100t144 -25q181 0 191 125h112q-9 -127 -89 -202t-216 -75zM672 772h422v-717q-195 -75 -420 -75q-262 0 -410 200t-147 552q0 352 162 552t446 199q192 0 346 -86l-72 -162q-146 84 -280 84q-192 1 -299 -155t-107 -433
q0 -588 394 -588q97 0 202 29v436h-237v164z" />
    <glyph glyph-name="gbreve" unicode="&#x11f;" 
d="M597 1241q-280 0 -297 277h109q7 -76 47 -100t143 -25q181 0 191 125h112q-9 -127 -89 -202t-216 -75zM692 18h-188q-230 0 -230 -198q0 -174 271 -174q395 0 395 223q0 89 -50 119t-198 30zM592 987q-225 -1 -225 -235t225 -234t225 234t-225 235zM1126 1098v-113
l-196 -27q65 -86 65 -230q-1 -144 -107 -240t-296 -95q-55 0 -86 6q-100 -56 -100 -133q0 -84 161 -84h187q174 0 266 -77t92 -220q0 -377 -565 -377q-217 0 -331 80t-114 226q0 212 240 270q-96 46 -96 156t133 190q-89 36 -140 122t-51 187q0 183 106 281t304 98
q86 0 150 -20h378z" />
    <glyph glyph-name="Gdot" unicode="&#x120;" 
d="M724 1847q106 -1 106 -115t-106 -114t-107 114q1 114 107 115zM672 772h422v-717q-195 -75 -420 -75q-262 0 -410 200t-147 552q0 352 162 552t446 199q192 0 346 -86l-72 -162q-146 84 -280 84q-192 1 -299 -155t-107 -433q0 -588 394 -588q97 0 202 29v436h-237v164z
" />
    <glyph glyph-name="gdot" unicode="&#x121;" 
d="M614 1509q106 -1 106 -115t-106 -114t-107 114q1 114 107 115zM692 18h-188q-230 0 -230 -198q0 -174 271 -174q395 0 395 223q0 89 -50 119t-198 30zM592 987q-225 -1 -225 -235t225 -234t225 234t-225 235zM1126 1098v-113l-196 -27q65 -86 65 -230q-1 -144 -107 -240
t-296 -95q-55 0 -86 6q-100 -56 -100 -133q0 -84 161 -84h187q174 0 266 -77t92 -220q0 -377 -565 -377q-217 0 -331 80t-114 226q0 212 240 270q-96 46 -96 156t133 190q-89 36 -140 122t-51 187q0 183 106 281t304 98q86 0 150 -20h378z" />
    <glyph glyph-name="Gcommaaccent" unicode="&#x122;" 
d="M802 -125v-20q0 -22 -48 -124t-115 -184h-99v27q62 140 84 301h178zM672 772h422v-717q-195 -75 -420 -75q-262 0 -410 200t-147 552q0 352 162 552t446 199q192 0 346 -86l-72 -162q-146 84 -280 84q-192 1 -299 -155t-107 -433q0 -588 394 -588q97 0 202 29v436h-237
v164z" />
    <glyph glyph-name="gcommaaccent" unicode="&#x123;" 
d="M528 1241v21q0 18 46 118t118 189h98v-27q-63 -153 -83 -301h-179zM692 18h-188q-230 0 -230 -198q0 -174 271 -174q395 0 395 223q0 89 -50 119t-198 30zM592 987q-225 -1 -225 -235t225 -234t225 234t-225 235zM1126 1098v-113l-196 -27q65 -86 65 -230
q-1 -144 -107 -240t-296 -95q-55 0 -86 6q-100 -56 -100 -133q0 -84 161 -84h187q174 0 266 -77t92 -220q0 -377 -565 -377q-217 0 -331 80t-114 226q0 212 240 270q-96 46 -96 156t133 190q-89 36 -140 122t-51 187q0 183 106 281t304 98q86 0 150 -20h378z" />
    <glyph glyph-name="Hcircumflex" unicode="&#x124;" 
d="M946 1579h-121q-85 56 -211 186q-133 -136 -211 -186h-120v27q25 29 59 67q139 155 176 234h193q37 -79 176 -234l59 -67v-27zM1094 0h-187v682h-585v-682h-187v1462h187v-616h585v616h187v-1462z" />
    <glyph glyph-name="hcircumflex" unicode="&#x125;" 
d="M960 1634h-121q-85 56 -211 186q-133 -136 -211 -186h-120v27q25 29 59 67q139 155 176 234h193q37 -79 176 -234l59 -67v-27zM887 0v707q0 260 -238 260q-307 0 -307 -398v-569h-182v1556h182v-462l-8 -144h10q103 168 336 168q389 0 389 -401v-717h-182z" />
    <glyph glyph-name="Hbar" unicode="&#x126;" 
d="M907 846v223h-585v-223h585zM135 1219v243h187v-243h585v243h187v-243h135v-150h-135v-1069h-187v682h-585v-682h-187v1069h-135v150h135z" />
    <glyph glyph-name="hbar" unicode="&#x127;" 
d="M887 0v666q0 260 -236 260q-161 0 -235 -94t-74 -304v-528h-182v1237h-156v137h156v182h184v-182h418v-137h-420v-184l-10 -144h10q108 168 346 168q192 1 286 -95t95 -306v-676h-182z" />
    <glyph glyph-name="Itilde" unicode="&#x128;" 
d="M465 1843q59 0 161 -56t136 -56q80 0 106 114h105q-27 -264 -211 -264q-57 1 -157 57t-140 56q-82 0 -107 -115h-104q25 264 211 264zM1001 0h-776v123l295 20v1176l-295 20v123h776v-123l-294 -20v-1176l294 -20v-123z" />
    <glyph glyph-name="itilde" unicode="&#x129;" 
d="M462 1505q58 0 160 -56t137 -56q80 0 106 114h105q-27 -264 -211 -264q-57 1 -157 57t-140 56q-82 0 -107 -115h-104q25 264 211 264zM272 1098h451v-955l352 -20v-123h-878v123l344 20v811l-269 21v123z" />
    <glyph glyph-name="Imacron" unicode="&#x12a;" 
d="M328 1729h575v-150h-575v150zM1001 0h-776v123l295 20v1176l-295 20v123h776v-123l-294 -20v-1176l294 -20v-123z" />
    <glyph glyph-name="imacron" unicode="&#x12b;" 
d="M326 1391h575v-150h-575v150zM272 1098h451v-955l352 -20v-123h-878v123l344 20v811l-269 21v123z" />
    <glyph glyph-name="Ibreve" unicode="&#x12c;" 
d="M610 1579q-280 0 -297 277h109q6 -76 46 -100t144 -25q181 0 191 125h112q-9 -127 -89 -202t-216 -75zM1001 0h-776v123l295 20v1176l-295 20v123h776v-123l-294 -20v-1176l294 -20v-123z" />
    <glyph glyph-name="ibreve" unicode="&#x12d;" 
d="M635 1241q-280 0 -297 277h109q7 -76 47 -100t143 -25q181 0 191 125h112q-9 -127 -89 -202t-216 -75zM272 1098h451v-955l352 -20v-123h-878v123l344 20v811l-269 21v123z" />
    <glyph glyph-name="Iogonek" unicode="&#x12e;" 
d="M649 -455q-101 1 -164 55t-63 148q0 144 190 252h-387v123l295 20v1176l-295 20v123h776v-123l-294 -20v-1176l294 -20v-123h-258q-170 -125 -170 -238q0 -96 127 -96q66 0 123 15v-113q-73 -23 -174 -23z" />
    <glyph glyph-name="iogonek" unicode="&#x12f;" 
d="M666 -455q-101 1 -164 55t-63 148q0 144 190 252h-432v123l344 20v811l-269 21v123h451v-955l352 -20v-123h-315q-170 -125 -170 -238q0 -96 127 -96q66 0 123 15v-113q-73 -23 -174 -23zM633 1321q-107 1 -107 115t106 114t107 -114q1 -58 -31 -86t-75 -29z" />
    <glyph glyph-name="Idotaccent" unicode="&#x130;" 
d="M614 1847q106 -1 107 -115q-1 -114 -107 -114t-106 114t106 115zM1001 0h-776v123l295 20v1176l-295 20v123h776v-123l-294 -20v-1176l294 -20v-123z" />
    <glyph glyph-name="dotlessi" unicode="&#x131;" 
d="M272 1098h451v-955l352 -20v-123h-878v123l344 20v811l-269 21v123z" />
    <glyph glyph-name="IJ" unicode="&#x132;" 
d="M678 141q194 0 194 283v1038h187v-1026q0 -456 -365 -456q-133 0 -202 43v163q93 -45 186 -45zM156 0v1462h186v-1462h-186z" />
    <glyph glyph-name="ij" unicode="&#x133;" 
d="M692 -342q164 0 164 215v1081l-215 21v123h397v-1215q0 -183 -85 -279t-222 -96t-229 35v154q88 -39 190 -39zM203 1098h182v-1098h-182v1098zM928 1321q-107 1 -107 115q1 114 107 114t106 -114q0 -58 -32 -86t-74 -29zM295 1321q-107 1 -107 115t106 114t107 -114
q1 -58 -31 -86t-75 -29z" />
    <glyph glyph-name="Jcircumflex" unicode="&#x134;" 
d="M1214 1579h-121q-85 56 -211 186q-133 -136 -211 -186h-120v27q25 29 59 67q139 155 176 234h193q37 -79 176 -234l59 -67v-27zM453 143q154 -1 247 79t93 227v1013h186v-1011q-1 -215 -141 -343t-367 -128t-334 59v166q162 -62 316 -62z" />
    <glyph glyph-name="jcircumflex" unicode="&#x135;" 
d="M405 -342q135 0 201 57t66 158v1081l-420 21v123h602v-1215q0 -179 -113 -277t-298 -98t-308 35v154q134 -39 270 -39zM966 1241h-121q-85 56 -211 186q-133 -136 -211 -186h-120v27q25 29 59 67q139 155 176 234h193q37 -79 176 -234l59 -67v-27z" />
    <glyph glyph-name="Kcommaaccent" unicode="&#x136;" 
d="M772 -125v-20q0 -22 -48 -124t-115 -184h-99v27q62 140 84 301h178zM397 0h-186v1462h186v-731l121 168l453 563h209l-521 -637l539 -825h-211l-450 698l-140 -114v-584z" />
    <glyph glyph-name="kcommaaccent" unicode="&#x137;" 
d="M747 -125v-20q0 -22 -48 -124t-115 -184h-99v27q62 140 84 301h178zM395 0h-180v1556h180v-714l-16 -289h4l135 152l395 393h222l-494 -475l522 -623h-213l-426 504l-129 -82v-422z" />
    <glyph glyph-name="kgreenlandic" unicode="&#x138;" 
d="M395 0h-180v1098h180v-291l-16 -299h4l137 166l402 424h213l-494 -510l522 -588h-213l-426 469l-129 -82v-387z" />
    <glyph glyph-name="Lacute" unicode="&#x139;" 
d="M656 1907v-21q-112 -173 -272 -307h-121v27q94 133 174 301h219zM233 0v1462h187v-1296h635v-166h-822z" />
    <glyph glyph-name="lacute" unicode="&#x13a;" 
d="M889 1964v-21q-112 -173 -272 -307h-121v27q94 133 174 301h219zM264 1556h451v-1413l352 -20v-123h-879v123l344 20v1270l-268 21v122z" />
    <glyph glyph-name="Lcommaaccent" unicode="&#x13b;" 
d="M753 -125v-20q0 -22 -48 -124t-115 -184h-99v27q62 140 84 301h178zM233 0v1462h187v-1296h635v-166h-822z" />
    <glyph glyph-name="lcommaaccent" unicode="&#x13c;" 
d="M723 -125v-20q0 -22 -48 -124t-115 -184h-99v27q62 140 84 301h178zM264 1556h451v-1413l352 -20v-123h-879v123l344 20v1270l-268 21v122z" />
    <glyph glyph-name="Lcaron" unicode="&#x13d;" 
d="M991 1463v-20q0 -14 -42 -113t-103 -194h-96v26l26 107q26 116 35 194h180zM233 0v1462h187v-1296h635v-166h-822z" />
    <glyph glyph-name="lcaron" unicode="&#x13e;" 
d="M1106 1556v-20q0 -14 -42 -113t-103 -194h-96v26l26 107q26 116 35 194h180zM264 1556h451v-1413l352 -20v-123h-879v123l344 20v1270l-268 21v122z" />
    <glyph glyph-name="Ldot" unicode="&#x13f;" 
d="M856 889q106 -1 107 -115q-1 -114 -107 -114t-106 114t106 115zM233 0v1462h187v-1296h635v-166h-822z" />
    <glyph glyph-name="ldot" unicode="&#x140;" 
d="M972 797q106 -1 107 -115q-1 -114 -107 -114t-106 114t106 115zM264 1556h451v-1413l352 -20v-123h-879v123l344 20v1270l-268 21v122z" />
    <glyph glyph-name="Lslash" unicode="&#x141;" 
d="M270 0v492l-125 -78l-73 125l198 125v798h187v-680l299 189l78 -125l-377 -238v-442h635v-166h-822z" />
    <glyph glyph-name="lslash" unicode="&#x142;" 
d="M264 1556h451v-673l164 108l77 -121l-241 -159v-568l352 -20v-123h-879v123l344 20v449l-141 -92l-78 121l219 143v649l-268 21v122z" />
    <glyph glyph-name="Nacute" unicode="&#x143;" 
d="M909 1907v-21q-112 -173 -272 -307h-121v27q94 133 174 301h219zM1092 0h-215l-580 1210h-8q18 -277 18 -417v-793h-172v1462h213l578 -1204h6q-14 303 -14 404v800h174v-1462z" />
    <glyph glyph-name="nacute" unicode="&#x144;" 
d="M922 1569v-21q-112 -173 -272 -307h-121v27q94 133 174 301h219zM887 0v707q0 260 -238 260q-307 0 -307 -398v-569h-182v1098h147l27 -148h10q103 168 336 168q389 0 389 -401v-717h-182z" />
    <glyph glyph-name="Ncommaaccent" unicode="&#x145;" 
d="M695 -125v-20q0 -22 -48 -124t-115 -184h-99v27q62 140 84 301h178zM1092 0h-215l-580 1210h-8q18 -277 18 -417v-793h-172v1462h213l578 -1204h6q-14 303 -14 404v800h174v-1462z" />
    <glyph glyph-name="ncommaaccent" unicode="&#x146;" 
d="M717 -125v-20q0 -22 -48 -124t-115 -184h-99v27q62 140 84 301h178zM887 0v707q0 260 -238 260q-307 0 -307 -398v-569h-182v1098h147l27 -148h10q103 168 336 168q389 0 389 -401v-717h-182z" />
    <glyph glyph-name="Ncaron" unicode="&#x147;" 
d="M280 1907h120q82 -54 211 -187q122 128 211 187h121v-27q-25 -29 -59 -67q-141 -158 -176 -234h-193q-35 76 -176 234l-59 67v27zM1092 0h-215l-580 1210h-8q18 -277 18 -417v-793h-172v1462h213l578 -1204h6q-14 303 -14 404v800h174v-1462z" />
    <glyph glyph-name="ncaron" unicode="&#x148;" 
d="M295 1569h120q82 -54 211 -187q122 128 211 187h121v-27q-25 -29 -59 -67q-141 -158 -176 -234h-193q-35 76 -176 234l-59 67v27zM887 0v707q0 260 -238 260q-307 0 -307 -398v-569h-182v1098h147l27 -148h10q103 168 336 168q389 0 389 -401v-717h-182z" />
    <glyph glyph-name="napostrophe" unicode="&#x149;" 
d="M948 0v707q0 260 -219 260q-285 0 -285 -398v-569h-182v1098h148l26 -148h10q42 78 128 123t190 45q366 0 366 -401v-717h-182zM283 1462l14 -22q-50 -197 -176 -479h-137q60 242 100 501h199z" />
    <glyph glyph-name="Eng" unicode="&#x14a;" 
d="M307 793v-793h-172v1462h213l578 -1128h10q-18 274 -18 403v725h174v-1442q0 -198 -100 -304t-287 -105q-94 0 -156 24v160q77 -20 158 -20q211 0 211 225l-621 1210h-8q18 -277 18 -417z" />
    <glyph glyph-name="eng" unicode="&#x14b;" 
d="M342 0h-182v1098h147l27 -148h10q103 168 336 168q389 0 389 -401v-875q0 -334 -291 -334q-81 0 -133 25v148q54 -21 115 -21q127 0 127 170v877q0 260 -238 260q-307 0 -307 -398v-569z" />
    <glyph glyph-name="Omacron" unicode="&#x14c;" 
d="M330 1729h575v-150h-575v150zM616 143q174 0 254 145q80 144 80 446t-82 444t-250 143q-337 0 -337 -589t335 -589zM616 -20q-532 0 -532 752t534 753q256 1 392 -195t137 -557q0 -361 -138 -557t-393 -196z" />
    <glyph glyph-name="omacron" unicode="&#x14d;" 
d="M326 1391h575v-150h-575v150zM614 131q310 0 310 418t-310 418t-311 -418q1 -418 311 -418zM616 -20q-222 0 -362 156t-139 416q-1 262 135 414t360 152t363 -155t139 -416t-137 -414t-359 -153z" />
    <glyph glyph-name="Obreve" unicode="&#x14e;" 
d="M609 1579q-280 0 -297 277h109q7 -76 47 -100t143 -25q181 0 191 125h112q-9 -127 -89 -202t-216 -75zM616 143q174 0 254 145q80 144 80 446t-82 444t-250 143q-337 0 -337 -589t335 -589zM616 -20q-532 0 -532 752t534 753q256 1 392 -195t137 -557q0 -361 -138 -557
t-393 -196z" />
    <glyph glyph-name="obreve" unicode="&#x14f;" 
d="M610 1241q-280 0 -297 277h109q6 -76 46 -100t144 -25q181 0 191 125h112q-9 -127 -89 -202t-216 -75zM614 131q310 0 310 418t-310 418t-311 -418q1 -418 311 -418zM616 -20q-222 0 -362 156t-139 416q-1 262 135 414t360 152t363 -155t139 -416t-137 -414t-359 -153z
" />
    <glyph glyph-name="Ohungarumlaut" unicode="&#x150;" 
d="M1061 1907v-21q-112 -173 -272 -307h-101v27q87 118 174 301h199zM698 1907v-21q-112 -173 -272 -307h-100v27q94 133 174 301h198zM616 143q174 0 254 145q80 144 80 446t-82 444t-250 143q-337 0 -337 -589t335 -589zM616 -20q-532 0 -532 752t534 753q256 1 392 -195
t137 -557q0 -361 -138 -557t-393 -196z" />
    <glyph glyph-name="ohungarumlaut" unicode="&#x151;" 
d="M1063 1569v-21q-112 -173 -272 -307h-101v27q87 118 174 301h199zM700 1569v-21q-112 -173 -272 -307h-100v27q94 133 174 301h198zM614 131q310 0 310 418t-310 418t-311 -418q1 -418 311 -418zM616 -20q-222 0 -362 156t-139 416q-1 262 135 414t360 152t363 -155
t139 -416t-137 -414t-359 -153z" />
    <glyph glyph-name="OE" unicode="&#x152;" 
d="M520 1321q-311 0 -311 -589t309 -589q70 0 133 33v1112q-58 33 -131 33zM1227 0h-574l-48 -10q-51 -10 -97 -10q-488 0 -488 752t512 753q82 0 154 -23h541v-164h-398v-452h359v-162h-359v-520h398v-164z" />
    <glyph glyph-name="oe" unicode="&#x153;" 
d="M997 662q0 305 -124 305t-136 -305h260zM397 131q168 0 168 418t-170 418q-90 0 -129 -103q-39 -104 -39 -314q-1 -210 39 -314t131 -105zM385 -20q-146 0 -237 154t-91 419t88 415q89 150 251 150t251 -217q84 217 242 217q131 0 208 -134t77 -357v-113h-439
q3 -375 189 -375q108 0 204 76v-162q-94 -73 -199 -73t-177 59t-101 162q-88 -221 -266 -221z" />
    <glyph glyph-name="Racute" unicode="&#x154;" 
d="M840 1907v-21q-112 -173 -272 -307h-121v27q94 133 174 301h219zM373 762h164q171 0 252 66t81 208t-80 205q-80 62 -258 62h-159v-541zM373 604v-604h-187v1462h357q520 0 520 -415q0 -287 -289 -392l397 -655h-219l-350 604h-229z" />
    <glyph glyph-name="racute" unicode="&#x155;" 
d="M903 1569v-21q-112 -173 -272 -307h-121v27q94 133 174 301h219zM786 952q-164 0 -252 -92t-88 -268v-592h-182v1098h148l22 -201h8q76 119 163 170t209 51t245 -45l-49 -166q-123 45 -224 45z" />
    <glyph glyph-name="Rcommaaccent" unicode="&#x156;" 
d="M742 -125v-20q0 -22 -48 -124t-115 -184h-99v27q62 140 84 301h178zM373 762h164q171 0 252 66t81 208t-80 205q-80 62 -258 62h-159v-541zM373 604v-604h-187v1462h357q520 0 520 -415q0 -287 -289 -392l397 -655h-219l-350 604h-229z" />
    <glyph glyph-name="rcommaaccent" unicode="&#x157;" 
d="M449 -125v-20q0 -22 -48 -124t-115 -184h-99v27q62 140 84 301h178zM786 952q-164 0 -252 -92t-88 -268v-592h-182v1098h148l22 -201h8q76 119 163 170t209 51t245 -45l-49 -166q-123 45 -224 45z" />
    <glyph glyph-name="Rcaron" unicode="&#x158;" 
d="M253 1907h120q82 -54 211 -187q122 128 211 187h121v-27q-25 -29 -59 -67q-141 -158 -176 -234h-193q-35 76 -176 234l-59 67v27zM373 762h164q171 0 252 66t81 208t-80 205q-80 62 -258 62h-159v-541zM373 604v-604h-187v1462h357q520 0 520 -415q0 -287 -289 -392
l397 -655h-219l-350 604h-229z" />
    <glyph glyph-name="rcaron" unicode="&#x159;" 
d="M295 1569h120q82 -54 211 -187q122 128 211 187h121v-27q-25 -29 -59 -67q-141 -158 -176 -234h-193q-35 76 -176 234l-59 67v27zM786 952q-164 0 -252 -92t-88 -268v-592h-182v1098h148l22 -201h8q76 119 163 170t209 51t245 -45l-49 -166q-123 45 -224 45z" />
    <glyph glyph-name="Sacute" unicode="&#x15a;" 
d="M907 1907v-21q-112 -173 -272 -307h-121v27q94 133 174 301h219zM555 141q350 0 350 240q-1 104 -71 160t-282 131q-212 74 -302 176t-90 270t128 266t356 99q226 0 413 -78l-64 -164q-193 78 -360 78q-293 0 -293 -209q0 -102 66 -164t290 -142q226 -80 308 -172
q82 -94 83 -241q-1 -191 -139 -301t-398 -110t-409 69v178q211 -86 414 -86z" />
    <glyph glyph-name="sacute" unicode="&#x15b;" 
d="M905 1569v-21q-112 -173 -272 -307h-121v27q94 133 174 301h219zM573 129q275 0 275 162q0 57 -49 99t-254 118t-265 148t-61 171q-1 135 111 213t310 78t368 -74l-60 -149q-182 72 -319 72q-236 0 -236 -133q1 -62 51 -98t246 -107t266 -145t70 -183q0 -149 -117 -235
t-348 -86t-358 69v166q193 -86 370 -86z" />
    <glyph glyph-name="Scircumflex" unicode="&#x15c;" 
d="M966 1579h-121q-85 56 -211 186q-133 -136 -211 -186h-120v27q25 29 59 67q139 155 176 234h193q37 -79 176 -234l59 -67v-27zM555 141q350 0 350 240q-1 104 -71 160t-282 131q-212 74 -302 176t-90 270t128 266t356 99q226 0 413 -78l-64 -164q-193 78 -360 78
q-293 0 -293 -209q0 -102 66 -164t290 -142q226 -80 308 -172q82 -94 83 -241q-1 -191 -139 -301t-398 -110t-409 69v178q211 -86 414 -86z" />
    <glyph glyph-name="scircumflex" unicode="&#x15d;" 
d="M969 1241h-121q-85 56 -211 186q-133 -136 -211 -186h-120v27q25 29 59 67q139 155 176 234h193q37 -79 176 -234l59 -67v-27zM573 129q275 0 275 162q0 57 -49 99t-254 118t-265 148t-61 171q-1 135 111 213t310 78t368 -74l-60 -149q-182 72 -319 72q-236 0 -236 -133
q1 -62 51 -98t246 -107t266 -145t70 -183q0 -149 -117 -235t-348 -86t-358 69v166q193 -86 370 -86z" />
    <glyph glyph-name="Scedilla" unicode="&#x15e;" 
d="M486 -381q151 0 151 92q0 74 -172 113l81 156q-258 1 -405 69v178q211 -86 414 -86q350 0 350 240q-1 104 -71 160t-282 131q-212 74 -302 176t-90 270t128 266t356 99q226 0 413 -78l-64 -164q-193 78 -360 78q-293 0 -293 -209q0 -102 66 -164t290 -142
q226 -80 308 -172q82 -94 83 -241q-1 -191 -139 -301q-106 -84 -279 -104l-50 -101q160 -37 160 -172q0 -205 -291 -205q-34 0 -82 9v108q33 -6 80 -6z" />
    <glyph glyph-name="scedilla" unicode="&#x15f;" 
d="M499 -381q151 0 151 92q0 74 -172 113l81 156q-234 3 -356 69v166q193 -86 370 -86q275 0 275 162q0 57 -49 99t-254 118t-265 148t-61 171q-1 135 111 213t310 78t368 -74l-60 -149q-182 72 -319 72q-236 0 -236 -133q1 -62 51 -98t246 -107t266 -145t70 -183
q0 -149 -117 -235q-87 -63 -227 -80l-50 -101q160 -37 160 -172q0 -205 -291 -205q-34 0 -82 9v108q33 -6 80 -6z" />
    <glyph glyph-name="Scaron" unicode="&#x160;" 
d="M314 1907h120q82 -54 211 -187q122 128 211 187h121v-27q-25 -29 -59 -67q-141 -158 -176 -234h-193q-35 76 -176 234l-59 67v27zM555 141q350 0 350 240q-1 104 -71 160t-282 131q-212 74 -302 176t-90 270t128 266t356 99q226 0 413 -78l-64 -164q-193 78 -360 78
q-293 0 -293 -209q0 -102 66 -164t290 -142q226 -80 308 -172q82 -94 83 -241q-1 -191 -139 -301t-398 -110t-409 69v178q211 -86 414 -86z" />
    <glyph glyph-name="scaron" unicode="&#x161;" 
d="M293 1569h120q82 -54 211 -187q122 128 211 187h121v-27q-25 -29 -59 -67q-141 -158 -176 -234h-193q-35 76 -176 234l-59 67v27zM573 129q275 0 275 162q0 57 -49 99t-254 118t-265 148t-61 171q-1 135 111 213t310 78t368 -74l-60 -149q-182 72 -319 72
q-236 0 -236 -133q1 -62 51 -98t246 -107t266 -145t70 -183q0 -149 -117 -235t-348 -86t-358 69v166q193 -86 370 -86z" />
    <glyph glyph-name="Tcedilla" unicode="&#x162;" 
d="M508 -381q151 0 151 92q0 74 -172 113l91 176h-58v1298h-418v164h1022v-164h-417v-1298h-9l-57 -115q160 -37 160 -172q0 -205 -291 -205q-34 0 -82 9v108q33 -6 80 -6z" />
    <glyph glyph-name="tcedilla" unicode="&#x163;" 
d="M548 -381q151 0 151 92q0 74 -172 113l91 175q-212 62 -212 325v637h-267v94l267 49l77 287h105v-293h438v-137h-438v-637q0 -195 192 -195q93 0 240 21v-138q-130 -32 -252 -32q-20 0 -39 1l-48 -96q160 -37 160 -172q0 -205 -291 -205q-34 0 -82 9v108q33 -6 80 -6z
" />
    <glyph glyph-name="Tcaron" unicode="&#x164;" 
d="M282 1907h120q82 -54 211 -187q122 128 211 187h121v-27q-25 -29 -59 -67q-141 -158 -176 -234h-193q-35 76 -176 234l-59 67v27zM707 0h-187v1298h-418v164h1022v-164h-417v-1298z" />
    <glyph glyph-name="tcaron" unicode="&#x165;" 
d="M1040 1556v-20q0 -14 -42 -113t-103 -194h-96v26l26 107q26 116 35 194h180zM768 -20q-362 0 -362 344v637h-267v94l267 49l77 287h105v-293h438v-137h-438v-637q0 -195 192 -195q93 0 240 21v-138q-130 -32 -252 -32z" />
    <glyph glyph-name="Tbar" unicode="&#x166;" 
d="M520 819v479h-418v164h1022v-164h-417v-479h294v-149h-294v-670h-187v670h-297v149h297z" />
    <glyph glyph-name="tbar" unicode="&#x167;" 
d="M768 -20q-362 0 -362 344v251h-162v138h162v248h-267v94l267 49l77 287h105v-293h438v-137h-438v-248h307v-138h-307v-251q0 -195 192 -195q93 0 240 21v-138q-130 -32 -252 -32z" />
    <glyph glyph-name="Utilde" unicode="&#x168;" 
d="M471 1843q59 0 161 -56t136 -56q80 0 106 114h105q-27 -264 -211 -264q-57 1 -157 57t-140 56q-82 0 -107 -115h-104q25 264 211 264zM1104 1464v-948q0 -260 -126 -398t-370 -138q-483 0 -483 540v942h186v-932q0 -387 307 -387q295 0 300 389v932h186z" />
    <glyph glyph-name="utilde" unicode="&#x169;" 
d="M467 1505q59 0 161 -56t136 -56q80 0 106 114h105q-27 -264 -211 -264q-57 1 -157 57t-140 56q-82 0 -107 -115h-104q25 264 211 264zM551 -20q-391 0 -391 401v717h182v-707q0 -260 236 -260q161 1 235 93t74 304v570h182v-1098h-147l-27 147h-10q-105 -167 -334 -167z
" />
    <glyph glyph-name="Umacron" unicode="&#x16a;" 
d="M326 1729h575v-150h-575v150zM1104 1464v-948q0 -260 -126 -398t-370 -138q-483 0 -483 540v942h186v-932q0 -387 307 -387q295 0 300 389v932h186z" />
    <glyph glyph-name="umacron" unicode="&#x16b;" 
d="M328 1391h575v-150h-575v150zM551 -20q-391 0 -391 401v717h182v-707q0 -260 236 -260q161 1 235 93t74 304v570h182v-1098h-147l-27 147h-10q-105 -167 -334 -167z" />
    <glyph glyph-name="Ubreve" unicode="&#x16c;" 
d="M609 1579q-280 0 -297 277h109q7 -76 47 -100t143 -25q181 0 191 125h112q-9 -127 -89 -202t-216 -75zM1104 1464v-948q0 -260 -126 -398t-370 -138q-483 0 -483 540v942h186v-932q0 -387 307 -387q295 0 300 389v932h186z" />
    <glyph glyph-name="ubreve" unicode="&#x16d;" 
d="M610 1241q-280 0 -297 277h109q6 -76 46 -100t144 -25q181 0 191 125h112q-9 -127 -89 -202t-216 -75zM551 -20q-391 0 -391 401v717h182v-707q0 -260 236 -260q161 1 235 93t74 304v570h182v-1098h-147l-27 147h-10q-105 -167 -334 -167z" />
    <glyph glyph-name="Uring" unicode="&#x16e;" 
d="M612 1907q-50 0 -80 -30q-32 -30 -32 -83q0 -113 112 -113q50 0 82 30t31 83q1 53 -31 83t-82 30zM612 1579q-102 0 -162 58t-61 157q1 99 61 157t162 58t166 -59q64 -60 64 -156t-64 -156t-166 -59zM1104 1464v-948q0 -260 -126 -398t-370 -138q-483 0 -483 540v942h186
v-932q0 -387 307 -387q295 0 300 389v932h186z" />
    <glyph glyph-name="uring" unicode="&#x16f;" 
d="M608 1569q-50 0 -82 -30t-31 -83q0 -113 112 -113q49 0 81 30t32 83t-32 83q-30 30 -80 30zM608 1241q-102 0 -164 58q-60 58 -60 157t60 157t162 58t166 -59q64 -60 65 -156t-63 -156t-166 -59zM551 -20q-391 0 -391 401v717h182v-707q0 -260 236 -260q161 1 235 93
t74 304v570h182v-1098h-147l-27 147h-10q-105 -167 -334 -167z" />
    <glyph glyph-name="Uhungarumlaut" unicode="&#x170;" 
d="M1057 1907v-21q-112 -173 -272 -307h-101v27q87 118 174 301h199zM694 1907v-21q-112 -173 -272 -307h-100v27q94 133 174 301h198zM1104 1464v-948q0 -260 -126 -398t-370 -138q-483 0 -483 540v942h186v-932q0 -387 307 -387q295 0 300 389v932h186z" />
    <glyph glyph-name="uhungarumlaut" unicode="&#x171;" 
d="M1061 1569v-21q-112 -173 -272 -307h-101v27q87 118 174 301h199zM698 1569v-21q-112 -173 -272 -307h-100v27q94 133 174 301h198zM551 -20q-391 0 -391 401v717h182v-707q0 -260 236 -260q161 1 235 93t74 304v570h182v-1098h-147l-27 147h-10q-105 -167 -334 -167z
" />
    <glyph glyph-name="Uogonek" unicode="&#x172;" 
d="M668 -455q-101 1 -164 55t-63 148q0 131 157 232q-473 6 -473 540v942h186v-932q0 -387 307 -387q295 0 300 389v932h186v-948q0 -260 -126 -398q-85 -93 -223 -123q-163 -122 -163 -233q0 -96 127 -96q66 0 123 15v-113q-73 -23 -174 -23z" />
    <glyph glyph-name="uogonek" unicode="&#x173;" 
d="M950 -455q-101 1 -164 55t-63 148q0 144 190 252h9l-27 147h-10q-105 -167 -334 -167q-391 0 -391 401v717h182v-707q0 -260 236 -260q161 1 235 93t74 304v570h182v-1098h-25q-170 -125 -170 -238q0 -96 127 -96q66 0 123 15v-113q-73 -23 -174 -23z" />
    <glyph glyph-name="Wcircumflex" unicode="&#x174;" 
d="M948 1579h-121q-85 56 -211 186q-133 -136 -211 -186h-120v27q25 29 59 67q139 155 176 234h193q37 -79 176 -234l59 -67v-27zM528 1008h177l145 -521q61 -219 72 -307q2 53 65 619l70 663h170l-187 -1462h-190l-168 580q-40 138 -66 282q-32 -173 -65 -284l-156 -578
h-190l-203 1462h170l88 -663q23 -176 40 -378t17 -241q24 151 70 312z" />
    <glyph glyph-name="wcircumflex" unicode="&#x175;" 
d="M943 1241h-121q-85 56 -211 186q-133 -136 -211 -186h-120v27q25 29 59 67q139 155 176 234h193q37 -79 176 -234l59 -67v-27zM813 0l-131 596l-68 330h-6l-65 -334l-135 -592h-189l-223 1098h162l98 -543q34 -186 57 -393h6q31 185 68 358l133 578h193l127 -578
q43 -195 67 -358h6q31 242 60 393l102 543h158l-225 -1098h-195z" />
    <glyph glyph-name="Ycircumflex" unicode="&#x176;" 
d="M945 1579h-121q-85 56 -211 186q-133 -136 -211 -186h-120v27q25 29 59 67q139 155 176 234h193q37 -79 176 -234l59 -67v-27zM707 0h-187v559l-487 903h203l376 -739l381 739h201l-487 -893v-569z" />
    <glyph glyph-name="ycircumflex" unicode="&#x177;" 
d="M948 1241h-121q-85 56 -211 186q-133 -136 -211 -186h-120v27q25 29 59 67q139 155 176 234h193q37 -79 176 -234l59 -67v-27zM268 -492q-86 0 -168 17v145q62 -12 147 -12t139 41t95 141l58 150l-457 1108h188l262 -654q82 -205 89 -290h6q23 112 90 292l239 652h189
l-475 -1241q-67 -173 -156 -261t-246 -88z" />
    <glyph glyph-name="Ydieresis" unicode="&#x178;" 
d="M803 1835q96 -1 96 -103t-96 -102t-96 102t96 103zM428 1835q96 -1 96 -103t-96 -102t-96 102t96 103zM707 0h-187v559l-487 903h203l376 -739l381 739h201l-487 -893v-569z" />
    <glyph glyph-name="Zacute" unicode="&#x179;" 
d="M868 1907v-21q-112 -173 -272 -307h-121v27q94 133 174 301h219zM1124 0h-1022v145l793 1151h-772v166h981v-145l-793 -1151h813v-166z" />
    <glyph glyph-name="zacute" unicode="&#x17a;" 
d="M889 1569v-21q-112 -173 -272 -307h-121v27q94 133 174 301h219zM1044 0h-862v125l660 836h-627v137h811v-146l-647 -815h665v-137z" />
    <glyph glyph-name="Zdotaccent" unicode="&#x17b;" 
d="M630 1847q106 -1 107 -115q-1 -114 -107 -114t-106 114t106 115zM1124 0h-1022v145l793 1151h-772v166h981v-145l-793 -1151h813v-166z" />
    <glyph glyph-name="zdotaccent" unicode="&#x17c;" 
d="M630 1509q106 -1 107 -115q-1 -114 -107 -114t-106 114t106 115zM1044 0h-862v125l660 836h-627v137h811v-146l-647 -815h665v-137z" />
    <glyph glyph-name="Zcaron" unicode="&#x17d;" 
d="M282 1907h120q82 -54 211 -187q122 128 211 187h121v-27q-25 -29 -59 -67q-141 -158 -176 -234h-193q-35 76 -176 234l-59 67v27zM1124 0h-1022v145l793 1151h-772v166h981v-145l-793 -1151h813v-166z" />
    <glyph glyph-name="zcaron" unicode="&#x17e;" 
d="M295 1569h120q82 -54 211 -187q122 128 211 187h121v-27q-25 -29 -59 -67q-141 -158 -176 -234h-193q-35 76 -176 234l-59 67v27zM1044 0h-862v125l660 836h-627v137h811v-146l-647 -815h665v-137z" />
    <glyph glyph-name="longs" unicode="&#x17f;" 
d="M752 1417q-120 0 -167 -48q-46 -48 -46 -167v-1202h-183v1200q0 190 90 278t299 89q125 0 273 -35l-41 -143q-105 28 -225 28z" />
    <glyph glyph-name="florin" unicode="&#x192;" 
d="M668 836v-961q0 -191 -76 -279t-256 -88q-51 0 -121 15v153q59 -18 115 -18q92 0 124 51t31 164v963h-194v75l194 68v137q1 190 77 278t255 89q97 0 197 -37l-47 -141q-79 28 -157 28t-110 -51t-32 -164v-145h245v-137h-245z" />
    <glyph glyph-name="Ohorn" unicode="&#x1a0;" 
d="M281 734q0 -287 78 -439t257 -152q262 -1 316 343q18 110 18 248q0 288 -77 437q-77 150 -255 150q-263 0 -319 -341q-18 -108 -18 -246zM1147 733q0 -539 -296 -699q-101 -54 -239 -54t-238 54t-166 153q-64 99 -94 239t-30 309q0 356 130 553t404 197q242 0 377 -176
q47 51 57 171q3 36 5 76h198l15 -22q-52 -246 -207 -340q84 -182 84 -461z" />
    <glyph glyph-name="ohorn" unicode="&#x1a1;" 
d="M614 967q-310 0 -311 -418q1 -418 311 -418t310 418t-310 418zM1112 578q0 -296 -138 -447t-358 -151q-219 0 -360 153t-141 419t137 416t351 150t347 -131q96 39 104 187q2 44 3 92h198l15 -23q-62 -287 -238 -362q80 -139 80 -303z" />
    <glyph glyph-name="Uhorn" unicode="&#x1af;" 
d="M950 475q0 -495 -414 -495q-214 0 -313 125q-98 125 -98 374v983h186v-973q1 -179 53 -262q52 -84 179 -84t174 86t47 263v970h186v-194q120 20 136 186q4 48 4 102h198l15 -22q-35 -160 -104 -248q-88 -113 -249 -145v-666z" />
    <glyph glyph-name="uhorn" unicode="&#x1b0;" 
d="M342 391q0 -260 174 -260q187 0 224 227q12 74 12 170v570h182v-123q134 15 151 185q5 50 5 106h198l15 -23q-35 -169 -107 -261q-94 -121 -262 -134v-848h-148l-26 147h-8q-85 -167 -275 -167q-239 0 -297 220q-20 76 -20 181v717h182v-707z" />
    <glyph glyph-name="uni01F0" unicode="&#x1f0;" 
d="M274 1569h120q82 -54 211 -187q122 128 211 187h121v-27q-25 -29 -59 -67q-141 -158 -176 -234h-193q-35 76 -176 234l-59 67v27zM405 -342q135 0 201 57t66 158v1081l-420 21v123h602v-1215q0 -179 -113 -277t-298 -98t-308 35v154q134 -39 270 -39z" />
    <glyph glyph-name="Aringacute" unicode="&#x1fa;" 
d="M883 2163v-21q-112 -173 -272 -307h-121v27q94 133 174 301h219zM612 1694q-50 0 -80 -30q-32 -30 -32 -83q0 -113 112 -113q50 0 82 30t31 83q1 53 -31 83t-82 30zM807 618l-133 424q-39 124 -62 226q-20 -99 -46 -183l-144 -467h385zM389 1581q1 99 61 157t162 58
t166 -59t64 -154q0 -131 -107 -189l461 -1394h-192l-144 453h-491l-146 -453h-190l458 1393q-102 56 -102 188z" />
    <glyph glyph-name="aringacute" unicode="&#x1fb;" 
d="M905 2048v-21q-112 -173 -272 -307h-121v27q94 133 174 301h219zM610 1569q-50 0 -80 -30q-32 -30 -32 -83q0 -113 112 -113q50 0 82 30t31 83q1 53 -31 83t-82 30zM610 1241q-102 0 -162 58t-61 157q1 99 61 157t162 58t166 -59q64 -60 64 -156t-64 -156t-166 -59z
M324 305q0 -178 200 -178q146 -1 234 81t88 230v99l-162 -7q-196 -8 -278 -62t-82 -163zM466 -20q-146 0 -238 86t-93 241q0 332 510 348l203 7v69q0 236 -244 236q-147 0 -328 -82l-63 137q196 96 403 96q206 0 308 -87t102 -279v-752h-131l-37 152h-8q-77 -96 -158 -134
q-80 -38 -226 -38z" />
    <glyph glyph-name="AEacute" unicode="&#x1fc;" 
d="M1024 1907v-21q-112 -173 -272 -307h-121v27q94 133 174 301h219zM557 618v680h-106l-146 -680h252zM1210 0h-653v453h-289l-96 -453h-172l338 1462h872v-164h-477v-452h438v-162h-438v-520h477v-164z" />
    <glyph glyph-name="aeacute" unicode="&#x1fd;" 
d="M924 1569v-21q-112 -173 -272 -307h-121v27q94 133 174 301h219zM215 305q0 -83 32 -131t87 -47q82 1 134 83t52 228v99l-88 -7q-217 -17 -217 -225zM1010 662q0 141 -40 223t-110 82t-115 -78t-51 -227h316zM522 731q0 236 -139 236q-107 0 -211 -82l-57 137
q131 96 276 96q188 0 246 -178q78 178 240 178q137 0 223 -136t86 -355v-113h-496q3 -192 67 -284t172 -91q108 0 230 76v-162q-107 -73 -241 -73q-222 0 -316 229q-105 -229 -301 -229q-115 0 -185 86t-71 241q0 332 328 348l149 7v69z" />
    <glyph glyph-name="Oslashacute" unicode="&#x1fe;" 
d="M868 1907v-21q-112 -173 -272 -307h-121v27q94 133 174 301h219zM616 143q174 0 254 145t80 445q0 209 -35 328l-512 -832q80 -86 213 -86zM618 1321q-337 0 -337 -588q0 -212 38 -342l515 836q-80 94 -216 94zM84 735q0 750 534 750q186 0 310 -105l92 152l137 -78
l-125 -201q115 -189 115 -535t-138 -542t-393 -196q-189 0 -307 94l-92 -150l-137 78l121 197q-117 184 -117 536z" />
    <glyph glyph-name="oslashacute" unicode="&#x1ff;" 
d="M891 1569v-21q-112 -173 -272 -307h-121v27q94 133 174 301h219zM621 131q161 -1 232 105t71 292t-52 289l-405 -653q61 -33 154 -33zM606 967q-161 1 -232 -103t-71 -298t53 -290l406 656q-66 35 -156 35zM115 552q0 266 133 416t368 150q128 0 236 -57l76 119l131 -84
l-84 -131q137 -157 137 -421t-134 -414t-368 -150q-129 0 -233 53l-76 -119l-131 84l84 131q-139 158 -139 423z" />
    <glyph glyph-name="Scommaaccent" unicode="&#x218;" 
d="M745 -125v-20q0 -22 -48 -124t-115 -184h-99v27q62 140 84 301h178zM555 141q350 0 350 240q-1 104 -71 160t-282 131q-212 74 -302 176t-90 270t128 266t356 99q226 0 413 -78l-64 -164q-193 78 -360 78q-293 0 -293 -209q0 -102 66 -164t290 -142q226 -80 308 -172
q82 -94 83 -241q-1 -191 -139 -301t-398 -110t-409 69v178q211 -86 414 -86z" />
    <glyph glyph-name="scommaaccent" unicode="&#x219;" 
d="M717 -125v-20q0 -22 -48 -124t-115 -184h-99v27q62 140 84 301h178zM573 129q275 0 275 162q0 57 -49 99t-254 118t-265 148t-61 171q-1 135 111 213t310 78t368 -74l-60 -149q-182 72 -319 72q-236 0 -236 -133q1 -62 51 -98t246 -107t266 -145t70 -183
q0 -149 -117 -235t-348 -86t-358 69v166q193 -86 370 -86z" />
    <glyph glyph-name="Tcommaaccent" unicode="&#x21a;" 
d="M711 -125v-20q0 -22 -48 -124t-115 -184h-99v27q62 140 84 301h178zM707 0h-187v1298h-418v164h1022v-164h-417v-1298z" />
    <glyph glyph-name="tcommaaccent" unicode="&#x21b;" 
d="M751 -125v-20q0 -22 -48 -124t-115 -184h-99v27q62 140 84 301h178zM768 -20q-362 0 -362 344v637h-267v94l267 49l77 287h105v-293h438v-137h-438v-637q0 -195 192 -195q93 0 240 21v-138q-130 -32 -252 -32z" />
    <glyph glyph-name="uni02BC" unicode="&#x2bc;" 
d="M766 1462l14 -22q-55 -213 -176 -479h-158q65 266 101 501h219z" />
    <glyph glyph-name="circumflex" unicode="&#x2c6;" 
d="M946 1241h-121q-85 56 -211 186q-133 -136 -211 -186h-120v27q25 29 59 67q139 155 176 234h193q37 -79 176 -234l59 -67v-27z" />
    <glyph glyph-name="caron" unicode="&#x2c7;" 
d="M283 1569h120q82 -54 211 -187q122 128 211 187h121v-27q-25 -29 -59 -67q-141 -158 -176 -234h-193q-35 76 -176 234l-59 67v27z" />
    <glyph glyph-name="macron" unicode="&#x2c9;" 
d="M326 1391h575v-150h-575v150z" />
    <glyph glyph-name="breve" unicode="&#x2d8;" 
d="M610 1241q-280 0 -297 277h109q6 -76 46 -100t144 -25q181 0 191 125h112q-9 -127 -89 -202t-216 -75z" />
    <glyph glyph-name="dotaccent" unicode="&#x2d9;" 
d="M614 1509q106 -1 107 -115q-1 -114 -107 -114t-106 114t106 115z" />
    <glyph glyph-name="ring" unicode="&#x2da;" 
d="M610 1569q-50 0 -80 -30q-32 -30 -32 -83q0 -113 112 -113q50 0 82 30t31 83q1 53 -31 83t-82 30zM610 1241q-102 0 -162 58t-61 157q1 99 61 157t162 58t166 -59q64 -60 64 -156t-64 -156t-166 -59z" />
    <glyph glyph-name="ogonek" unicode="&#x2db;" 
d="M641 -455q-101 1 -164 55t-63 148q0 144 190 252h131q-170 -125 -170 -238q0 -96 127 -96q66 0 123 15v-113q-73 -23 -174 -23z" />
    <glyph glyph-name="tilde" unicode="&#x2dc;" 
d="M465 1505q59 0 161 -56t136 -56q80 0 106 114h105q-27 -264 -211 -264q-57 1 -157 57t-140 56q-82 0 -107 -115h-104q25 264 211 264z" />
    <glyph glyph-name="hungarumlaut" unicode="&#x2dd;" 
d="M981 1569v-21q-112 -173 -272 -307h-101v27q87 118 174 301h199zM618 1569v-21q-112 -173 -272 -307h-100v27q94 133 174 301h198z" />
    <glyph glyph-name="uni02F3" unicode="&#x2f3;" 
d="M723 -340q1 53 -31 83t-82 30t-80 -30q-32 -30 -32 -83t28 -83t82 -30q52 0 84 30t31 83zM775 -497q-65 -58 -165 -58q-157 1 -207 125q-16 40 -16 90q0 100 61 157q61 58 161 58t166 -58q65 -58 65 -157t-65 -157z" />
    <glyph glyph-name="uni0300" unicode="&#x300;" 
d="M811 1241h-121q-166 142 -272 307v21h219q86 -178 174 -301v-27z" />
    <glyph glyph-name="uni0301" unicode="&#x301;" 
d="M811 1569v-21q-112 -173 -272 -307h-121v27q94 133 174 301h219z" />
    <glyph glyph-name="uni0303" unicode="&#x303;" 
d="M465 1505q59 0 161 -56t136 -56q80 0 106 114h105q-27 -264 -211 -264q-57 1 -157 57t-140 56q-82 0 -107 -115h-104q25 264 211 264z" />
    <glyph glyph-name="hook" unicode="&#x309;" 
d="M535 1679q266 0 266 -188q0 -133 -166 -172l-10 -111h-113l-14 176q120 18 150 62q12 16 11 41q0 82 -135 82q-64 0 -96 -6v108q43 8 107 8z" />
    <glyph glyph-name="uni030F" unicode="&#x30f;" 
d="M578 1241h-101q-107 87 -225 239q-32 40 -47 68v21h198q87 -185 175 -301v-27zM940 1241h-100q-102 83 -225 239q-32 40 -48 68v21h199q82 -173 174 -301v-27z" />
    <glyph glyph-name="dotbelow" unicode="&#x323;" 
d="M508 -246q0 60 30 88t76 27q44 1 76 -27t31 -72q0 -71 -30 -101q-30 -29 -76 -29q-47 0 -77 28q-30 26 -30 86z" />
    <glyph glyph-name="tonos" unicode="&#x384;" 
d="M748 1569v-21q0 -16 -50 -120t-110 -187h-109v27l30 107q30 114 40 194h199z" />
    <glyph glyph-name="dieresistonos" unicode="&#x385;" 
d="M832 1497q96 -1 96 -103t-96 -102t-97 102q1 102 97 103zM395 1292q-96 0 -96 102q1 102 97 103q96 0 96 -102q0 -49 -28 -76t-69 -27zM829 1716v-20q-93 -164 -215 -307h-82v26q50 139 91 301h206z" />
    <glyph glyph-name="Alphatonos" unicode="&#x386;" 
d="M305 1464v-21q1 -16 -49 -120t-111 -187h-109v27l30 107q30 114 40 194h199zM807 618l-133 424q-39 124 -62 226q-20 -99 -46 -183l-144 -467h385zM1004 0l-144 453h-491l-146 -453h-190l483 1468h195l485 -1468h-192z" />
    <glyph glyph-name="anoteleia" unicode="&#x387;" 
d="M614 862q127 0 127 -139t-127 -139t-127 139t127 139z" />
    <glyph glyph-name="Epsilontonos" unicode="&#x388;" 
d="M155 1464v-21q1 -16 -49 -120t-111 -187h-109v27l30 107q30 114 40 194h199zM1059 0h-842v1462h842v-164h-656v-452h617v-162h-617v-520h656v-164z" />
    <glyph glyph-name="Etatonos" unicode="&#x389;" 
d="M114 1464v-21q0 -16 -50 -120t-110 -187h-109v27l30 107q30 114 40 194h199zM1094 0h-187v682h-585v-682h-187v1462h187v-616h585v616h187v-1462z" />
    <glyph glyph-name="Iotatonos" unicode="&#x38a;" 
d="M176 1464v-21q0 -16 -50 -120t-110 -187h-109v27l30 107q30 114 40 194h199zM1001 0h-776v123l295 20v1176l-295 20v123h776v-123l-294 -20v-1176l294 -20v-123z" />
    <glyph glyph-name="Omicrontonos" unicode="&#x38c;" 
d="M137 1464v-21q1 -16 -49 -120t-111 -187h-109v27l30 107q30 114 40 194h199zM616 143q174 0 254 145q80 144 80 446t-82 444t-250 143q-337 0 -337 -589t335 -589zM616 -20q-532 0 -532 752t534 753q256 1 392 -195t137 -557q0 -361 -138 -557t-393 -196z" />
    <glyph glyph-name="Upsilontonos" unicode="&#x38e;" 
d="M32 1464v-21q0 -16 -50 -120t-110 -187h-109v27l30 107q30 114 40 194h199zM707 0h-187v559l-487 903h203l376 -739l381 739h201l-487 -893v-569z" />
    <glyph glyph-name="Omegatonos" unicode="&#x38f;" 
d="M135 1464v-21q1 -16 -49 -120t-111 -187h-109v27l30 107q30 114 40 194h199zM541 0h-467v164h266q-254 235 -254 661q0 312 140 486t390 174t390 -174t141 -486q0 -429 -256 -661h268v-164h-469v147q260 231 260 674q0 500 -336 500t-335 -500q0 -443 262 -674v-147z" />
    <glyph glyph-name="iotadieresistonos" unicode="&#x390;" 
d="M774 1497q96 -1 96 -103t-96 -102t-97 102q1 102 97 103zM337 1292q-96 0 -96 102q1 102 97 103q96 0 96 -102q0 -49 -28 -76t-69 -27zM771 1716v-20q-93 -164 -215 -307h-82v26q50 139 91 301h206zM610 1098v-774q0 -195 193 -195q112 0 213 21v-138q-93 -32 -225 -32
q-363 0 -363 344v774h182z" />
    <glyph glyph-name="Alpha" unicode="&#x391;" 
d="M807 618l-133 424q-39 124 -62 226q-20 -99 -46 -183l-144 -467h385zM1004 0l-144 453h-491l-146 -453h-190l483 1468h195l485 -1468h-192z" />
    <glyph glyph-name="Beta" unicode="&#x392;" 
d="M322 686v-528h307q311 0 311 274q0 254 -324 254h-294zM322 842h284q156 0 228 55t71 179t-77 175q-76 52 -242 52h-264v-461zM135 1462h440q273 0 397 -88t124 -282q0 -128 -78 -213t-213 -103v-10q332 -54 332 -342q1 -198 -127 -311t-348 -113h-527v1462z" />
    <glyph glyph-name="Gamma" unicode="&#x393;" 
d="M1071 1462v-166h-639v-1296h-186v1462h825z" />
    <glyph glyph-name="uni0394" unicode="&#x394;" 
d="M610 1257q-51 -223 -88 -333l-254 -758h686l-252 752q-52 155 -92 339zM1159 0h-1091v133l450 1329h187l454 -1337v-125z" />
    <glyph glyph-name="Epsilon" unicode="&#x395;" 
d="M1059 0h-842v1462h842v-164h-656v-452h617v-162h-617v-520h656v-164z" />
    <glyph glyph-name="Zeta" unicode="&#x396;" 
d="M1124 0h-1022v145l793 1151h-772v166h981v-145l-793 -1151h813v-166z" />
    <glyph glyph-name="Eta" unicode="&#x397;" 
d="M1094 0h-187v682h-585v-682h-187v1462h187v-616h585v616h187v-1462z" />
    <glyph glyph-name="Theta" unicode="&#x398;" 
d="M410 825h411v-161h-411v161zM616 143q174 0 254 145q80 144 80 446t-82 444t-250 143q-337 0 -337 -589t335 -589zM616 -20q-532 0 -532 752t534 753q256 1 392 -195t137 -557q0 -361 -138 -557t-393 -196z" />
    <glyph glyph-name="Iota" unicode="&#x399;" 
d="M1001 0h-776v123l295 20v1176l-295 20v123h776v-123l-294 -20v-1176l294 -20v-123z" />
    <glyph glyph-name="Kappa" unicode="&#x39a;" 
d="M397 0h-186v1462h186v-731l121 168l453 563h209l-521 -637l539 -825h-211l-450 698l-140 -114v-584z" />
    <glyph glyph-name="Lambda" unicode="&#x39b;" 
d="M1196 0h-199l-292 922q-63 199 -93 340q-45 -200 -88 -334l-295 -928h-196l487 1462h187z" />
    <glyph glyph-name="Mu" unicode="&#x39c;" 
d="M264 874v-874h-151v1462h247l248 -1192h6l250 1192h252v-1462h-153v887q0 102 14 391h-8l-283 -1278h-154l-278 1280h-8q18 -266 18 -406z" />
    <glyph glyph-name="Nu" unicode="&#x39d;" 
d="M1092 0h-215l-580 1210h-8q18 -277 18 -417v-793h-172v1462h213l578 -1204h6q-14 303 -14 404v800h174v-1462z" />
    <glyph glyph-name="Xi" unicode="&#x39e;" 
d="M1116 164v-164h-1005v164h1005zM233 846h760v-162h-760v162zM152 1462h923v-164h-923v164z" />
    <glyph glyph-name="Omicron" unicode="&#x39f;" 
d="M616 143q174 0 254 145q80 144 80 446t-82 444t-250 143q-337 0 -337 -589t335 -589zM616 -20q-532 0 -532 752t534 753q256 1 392 -195t137 -557q0 -361 -138 -557t-393 -196z" />
    <glyph glyph-name="Pi" unicode="&#x3a0;" 
d="M1094 0h-187v1298h-585v-1298h-187v1462h959v-1462z" />
    <glyph glyph-name="Rho" unicode="&#x3a1;" 
d="M362 727h170q198 0 284 72t85 225q0 279 -338 279h-201v-576zM362 569v-569h-186v1462h404q514 0 514 -428q0 -219 -138 -342t-403 -123h-191z" />
    <glyph glyph-name="Sigma" unicode="&#x3a3;" 
d="M131 0v152l414 614l-402 549v147h893v-164h-680l389 -530l-409 -604h760v-164h-965z" />
    <glyph glyph-name="Tau" unicode="&#x3a4;" 
d="M707 0h-187v1298h-418v164h1022v-164h-417v-1298z" />
    <glyph glyph-name="Upsilon" unicode="&#x3a5;" 
d="M707 0h-187v559l-487 903h203l376 -739l381 739h201l-487 -893v-569z" />
    <glyph glyph-name="Phi" unicode="&#x3a6;" 
d="M532 1143h-32q-143 -1 -222 -105t-79 -284t86 -286t241 -106h6v781zM698 362h7q155 0 241 106t86 286t-79 284t-222 105h-33v-781zM532 1483h166v-180h47q213 -1 336 -155t123 -390t-126 -394t-355 -159h-25v-225h-166v225h-24q-230 0 -356 159t-125 394t123 390t335 155
h47v180z" />
    <glyph glyph-name="Chi" unicode="&#x3a7;" 
d="M1174 0h-211l-355 635l-366 -635h-189l453 764l-422 698h199l331 -559l334 559h191l-422 -692z" />
    <glyph glyph-name="Psi" unicode="&#x3a8;" 
d="M1174 983q0 -287 -116 -412t-343 -125h-17v-446h-166v446h-16q-230 0 -344 126t-115 407v483h172v-479q0 -231 69 -305t218 -74h16v858h166v-858h17q149 0 217 72t69 303v483h173v-479z" />
    <glyph glyph-name="uni03A9" unicode="&#x3a9;" 
d="M541 0h-467v164h266q-254 235 -254 661q0 312 140 486t390 174t390 -174t141 -486q0 -429 -256 -661h268v-164h-469v147q260 231 260 674q0 500 -336 500t-335 -500q0 -443 262 -674v-147z" />
    <glyph glyph-name="Iotadieresis" unicode="&#x3aa;" 
d="M803 1835q96 -1 96 -103t-96 -102t-96 102t96 103zM428 1835q96 -1 96 -103t-96 -102t-96 102t96 103zM1001 0h-776v123l295 20v1176l-295 20v123h776v-123l-294 -20v-1176l294 -20v-123z" />
    <glyph glyph-name="Upsilondieresis" unicode="&#x3ab;" 
d="M803 1835q96 -1 96 -103t-96 -102t-96 102t96 103zM428 1835q96 -1 96 -103t-96 -102t-96 102t96 103zM707 0h-187v559l-487 903h203l376 -739l381 739h201l-487 -893v-569z" />
    <glyph glyph-name="alphatonos" unicode="&#x3ac;" 
d="M764 1569v-21q0 -16 -50 -120t-110 -187h-109v27l30 107q30 114 40 194h199zM852 547q0 227 -67 323t-214 97q-262 0 -262 -418t264 -418q147 0 211 92t68 309v15zM1034 659v-419q0 -111 84 -111q29 0 60 10v-133q-52 -26 -115 -26q-159 0 -199 167h-12
q-108 -167 -308 -167t-312 148t-111 420q0 272 115 421t323 149t303 -168h12q30 103 68 148h143q-51 -166 -51 -439z" />
    <glyph glyph-name="epsilontonos" unicode="&#x3ad;" 
d="M844 1569v-21q0 -16 -50 -120t-110 -187h-109v27l30 107q30 114 40 194h199zM840 647v-153h-160q-301 0 -301 -185q0 -180 283 -180q196 0 366 86v-160q-134 -75 -361 -75t-347 84t-119 235q0 193 237 268v11q-202 66 -202 249q0 135 112 213t314 78t370 -76l-63 -147
q-161 72 -316 72q-243 0 -243 -154q0 -166 276 -166h154z" />
    <glyph glyph-name="etatonos" unicode="&#x3ae;" 
d="M828 1569v-21q0 -16 -50 -120t-110 -187h-109v27l30 107q30 114 40 194h199zM887 -492v1199q0 260 -238 260q-307 0 -307 -398v-569h-182v1098h147l27 -148h10q102 168 336 168q389 0 389 -401v-1209h-182z" />
    <glyph glyph-name="iotatonos" unicode="&#x3af;" 
d="M739 1569v-21q1 -16 -49 -120t-111 -187h-109v27l30 107q30 114 40 194h199zM610 1098v-774q0 -195 193 -195q112 0 213 21v-138q-93 -32 -225 -32q-363 0 -363 344v774h182z" />
    <glyph glyph-name="upsilondieresistonos" unicode="&#x3b0;" 
d="M828 1497q96 -1 97 -103q-1 -102 -97 -102t-96 102t96 103zM392 1292q-96 0 -96 102t96 103q96 0 97 -102q0 -49 -28 -76t-69 -27zM826 1716v-20q-93 -164 -215 -307h-82v26q50 139 91 301h206zM160 1098h182v-590q0 -379 274 -379q150 0 218 116t67 358q0 242 -63 495
h182q63 -245 63 -498q0 -318 -115 -469t-358 -151q-450 0 -450 518v600z" />
    <glyph glyph-name="alpha" unicode="&#x3b1;" 
d="M852 547q0 227 -67 323t-214 97q-262 0 -262 -418t264 -418q147 0 211 92t68 309v15zM1034 659v-419q0 -111 84 -111q29 0 60 10v-133q-52 -26 -115 -26q-159 0 -199 167h-12q-108 -167 -308 -167t-312 148t-111 420q0 272 115 421t323 149t303 -168h12q30 103 68 148
h143q-51 -166 -51 -439z" />
    <glyph glyph-name="beta" unicode="&#x3b2;" 
d="M629 129q293 0 293 299q0 146 -95 228t-254 83h-94v152h70q143 0 223 75t80 197t-67 188t-181 66q-264 0 -264 -330v-878q135 -80 289 -80zM1104 414q0 -206 -122 -320t-324 -114q-201 0 -318 63v-535h-182v1588q0 226 119 348t322 123q203 0 321 -105t118 -288
q0 -136 -80 -227t-235 -118v-6q381 -48 381 -409z" />
    <glyph glyph-name="gamma" unicode="&#x3b3;" 
d="M629 -492h-191q0 207 101 504l-457 1086h192l242 -592q71 -174 107 -320h6q26 104 98 295l229 617h189l-406 -1035q-110 -280 -110 -555z" />
    <glyph glyph-name="delta" unicode="&#x3b4;" 
d="M328 434q0 -135 76 -219t206 -84q295 0 295 350q0 244 -221 373q-356 -100 -356 -420zM303 1286q0 133 91 207q90 74 270 74t374 -109l-73 -145q-169 106 -328 106q-74 -1 -117 -37t-43 -100t42 -114q42 -52 214 -152q361 -206 361 -518q0 -246 -130 -382t-348 -136
q-219 0 -350 124t-131 334q0 372 422 500q-254 145 -254 348z" />
    <glyph glyph-name="epsilon" unicode="&#x3b5;" 
d="M840 647v-153h-160q-301 0 -301 -185q0 -180 283 -180q196 0 366 86v-160q-134 -75 -361 -75t-347 84t-119 235q0 193 237 268v11q-202 66 -202 249q0 135 112 213t314 78t370 -76l-63 -147q-161 72 -316 72q-243 0 -243 -154q0 -166 276 -166h154z" />
    <glyph glyph-name="zeta" unicode="&#x3b6;" 
d="M223 1556h838v-141q-395 -288 -553 -485t-158 -453q0 -153 83 -217t283 -100q200 -34 276 -84t75 -162q0 -149 -121 -315h-170q121 162 121 260q1 57 -51 89t-264 65q-212 31 -316 143t-104 313q0 257 161 478t537 468q-215 -12 -352 -12h-285v153z" />
    <glyph glyph-name="eta" unicode="&#x3b7;" 
d="M887 -492v1199q0 260 -238 260q-307 0 -307 -398v-569h-182v1098h147l27 -148h10q102 168 336 168q389 0 389 -401v-1209h-182z" />
    <glyph glyph-name="theta" unicode="&#x3b8;" 
d="M612 131q142 0 210 128t73 411h-563q6 -278 72 -408t208 -131zM614 1323q-142 0 -208 -125t-74 -391h563q-7 260 -73 388t-208 128zM612 -20q-229 0 -347 192t-118 564q0 373 114 556t348 183q234 -1 353 -191t119 -555q0 -749 -469 -749z" />
    <glyph glyph-name="iota" unicode="&#x3b9;" 
d="M610 1098v-774q0 -195 193 -195q112 0 213 21v-138q-93 -32 -225 -32q-363 0 -363 344v774h182z" />
    <glyph glyph-name="kappa" unicode="&#x3ba;" 
d="M395 0h-180v1098h180v-291l-16 -299h4l137 166l402 424h213l-494 -510l522 -588h-213l-426 469l-129 -82v-387z" />
    <glyph glyph-name="lambda" unicode="&#x3bb;" 
d="M328 1419q-64 0 -113 -12v145q65 17 127 17q142 1 213 -67t141 -279l326 -983q37 -111 102 -111q29 0 60 10v-133q-50 -26 -124 -26t-116 40q-44 40 -72 127l-135 418q-69 214 -94 336h-6q-36 -138 -119 -321l-268 -580h-189l504 1083l-53 160q-34 104 -77 140t-107 36z
" />
    <glyph glyph-name="uni03BC" unicode="&#x3bc;" 
d="M342 391q0 -260 238 -260q160 0 234 93t73 304v570h182v-1098h-147l-27 147h-10q-97 -167 -301 -167q-173 0 -248 88q6 -153 6 -240v-320h-182v1590h182v-707z" />
    <glyph glyph-name="nu" unicode="&#x3bd;" 
d="M915 1098h183q0 -365 -100 -610t-326 -488h-187l-424 1098h189l223 -586q110 -289 121 -358h6q157 164 236 369t79 575z" />
    <glyph glyph-name="xi" unicode="&#x3be;" 
d="M985 887v-137h-201q-208 0 -316 -82t-108 -238q0 -157 146 -216q70 -28 240 -58t246 -81q76 -50 75 -161q0 -149 -121 -315h-170q121 162 121 262q1 53 -49 85t-238 62q-438 68 -438 414q0 134 76 240t207 147v12q-215 59 -215 279q0 114 75 189t260 126
q-176 -12 -280 -12h-62v153h764v-153h-69q-216 0 -364 -80t-148 -219q0 -113 92 -165t287 -52h190z" />
    <glyph glyph-name="omicron" unicode="&#x3bf;" 
d="M614 131q310 0 310 418t-310 418t-311 -418q1 -418 311 -418zM616 -20q-222 0 -362 156t-139 416q-1 262 135 414t360 152t363 -155t139 -416t-137 -414t-359 -153z" />
    <glyph glyph-name="pi" unicode="&#x3c0;" 
d="M1047 -20q-226 0 -226 262v702h-403v-944h-182v944h-222v74l138 80h1062v-154h-210v-690q0 -125 90 -125q46 0 90 21v-144q-52 -26 -137 -26z" />
    <glyph glyph-name="rho" unicode="&#x3c1;" 
d="M610 131q158 -1 221 105q64 106 64 315t-65 313t-209 103q-281 0 -281 -396v-340q112 -100 270 -100zM340 -201v-291h-182v1043q0 263 126 415t339 152q212 0 336 -154t124 -418q1 -266 -123 -416t-339 -150q-168 0 -281 90h-6q6 -174 6 -271z" />
    <glyph glyph-name="sigma1" unicode="&#x3c2;" 
d="M895 -139q0 59 -66 89t-229 58q-428 71 -428 508q0 602 567 602q164 0 322 -59l-62 -158q-158 57 -272 57q-367 0 -367 -440q0 -187 78 -254t269 -102q358 -66 358 -252q0 -141 -125 -311h-166q121 163 121 262z" />
    <glyph glyph-name="sigma" unicode="&#x3c3;" 
d="M684 944q-199 0 -283 -98t-84 -302q1 -205 77 -309t216 -104q140 -1 214 95q73 96 73 270q0 269 -154 448h-59zM1174 1098v-154h-267q178 -195 178 -435q-1 -241 -129 -385t-350 -144t-350 144q-127 144 -127 400q0 574 555 574h490z" />
    <glyph glyph-name="tau" unicode="&#x3c4;" 
d="M1081 1098v-154h-475v-606q0 -215 209 -215q107 0 191 20v-135q-84 -35 -220 -35q-362 0 -362 344v627h-318v74l134 80h841z" />
    <glyph glyph-name="upsilon" unicode="&#x3c5;" 
d="M160 1098h182v-590q0 -379 274 -379q150 0 218 116t67 358q0 242 -63 495h182q63 -245 63 -498q0 -318 -115 -469t-358 -151q-450 0 -450 518v600z" />
    <glyph glyph-name="phi" unicode="&#x3c6;" 
d="M987 564q0 404 -176 403q-129 0 -129 -228v-608q305 29 305 433zM524 -492v474q-450 25 -450 565q0 314 207 559l120 -90q-97 -129 -131 -232t-34 -237q0 -383 288 -416v606q0 381 281 381q164 0 257 -148t93 -405t-125 -413t-348 -170v-474h-158z" />
    <glyph glyph-name="chi" unicode="&#x3c7;" 
d="M1075 -342q54 0 90 8v-139q-66 -19 -143 -19q-76 0 -144 45t-139 222l-147 377l-354 -644h-195l475 830l-180 446q-68 168 -152 168q-29 0 -63 -10v143q53 17 131 17t134 -54q55 -54 110 -194l139 -348l311 592h178l-417 -776l186 -461q46 -115 86 -159t94 -44z" />
    <glyph glyph-name="psi" unicode="&#x3c8;" 
d="M682 1554v-1421q301 28 301 436q0 250 -63 529h172q63 -276 63 -523q0 -567 -473 -593v-474h-158v474q-232 8 -338 143t-106 430v543h172v-529q0 -422 272 -438v1423h158z" />
    <glyph glyph-name="omega" unicode="&#x3c9;" 
d="M256 532q0 -401 139 -401q67 0 105 71t37 197v306h157v-306q0 -130 40 -199t102 -69q139 0 139 401q0 306 -105 566h166q105 -258 105 -566q0 -552 -289 -552q-181 0 -231 178h-11q-50 -178 -231 -178q-289 0 -289 552q0 302 105 566h165q-104 -262 -104 -566z" />
    <glyph glyph-name="iotadieresis" unicode="&#x3ca;" 
d="M730 1497q96 -1 96 -103t-96 -102t-96 102t96 103zM355 1497q96 -1 96 -103t-96 -102t-96 102t96 103zM610 1098v-774q0 -195 193 -195q112 0 213 21v-138q-93 -32 -225 -32q-363 0 -363 344v774h182z" />
    <glyph glyph-name="upsilondieresis" unicode="&#x3cb;" 
d="M801 1497q96 -1 96 -103t-96 -102t-96 102t96 103zM426 1497q96 -1 96 -103t-96 -102t-96 102t96 103zM160 1098h182v-590q0 -379 274 -379q150 0 218 116t67 358q0 242 -63 495h182q63 -245 63 -498q0 -318 -115 -469t-358 -151q-450 0 -450 518v600z" />
    <glyph glyph-name="omicrontonos" unicode="&#x3cc;" 
d="M820 1569v-21q0 -16 -50 -120t-110 -187h-109v27l30 107q30 114 40 194h199zM614 131q310 0 310 418t-310 418t-311 -418q1 -418 311 -418zM616 -20q-222 0 -362 156t-139 416q-1 262 135 414t360 152t363 -155t139 -416t-137 -414t-359 -153z" />
    <glyph glyph-name="upsilontonos" unicode="&#x3cd;" 
d="M787 1569v-21q1 -16 -49 -120t-111 -187h-109v27l30 107q30 114 40 194h199zM160 1098h182v-590q0 -379 274 -379q150 0 218 116t67 358q0 242 -63 495h182q63 -245 63 -498q0 -318 -115 -469t-358 -151q-450 0 -450 518v600z" />
    <glyph glyph-name="omegatonos" unicode="&#x3ce;" 
d="M799 1569v-21q1 -16 -49 -120t-111 -187h-109v27l30 107q30 114 40 194h199zM256 532q0 -401 139 -401q67 0 105 71t37 197v306h157v-306q0 -130 40 -199t102 -69q139 0 139 401q0 306 -105 566h166q105 -258 105 -566q0 -552 -289 -552q-181 0 -231 178h-11
q-50 -178 -231 -178q-289 0 -289 552q0 302 105 566h165q-104 -262 -104 -566z" />
    <glyph glyph-name="uni03D1" unicode="&#x3d1;" 
d="M352 334q0 -209 205 -209q328 0 328 610q0 65 -4 105q-324 4 -491 137q-142 114 -142 295q0 218 184 284q64 23 160 23q194 0 312 -157t155 -445h143v-137h-137q4 -44 4 -157t-32 -250q-33 -137 -97 -237q-138 -216 -391 -216q-377 0 -377 344q0 64 16 181t15 151
q0 68 -62 67q-54 0 -94 -25l-37 127q94 43 167 43q75 0 109 -14q98 -40 97 -172q1 -36 -15 -168q-16 -130 -16 -180zM574 1432q-62 0 -105 -44t-43 -108q0 -133 108 -217t340 -86q-25 211 -106 333t-194 122z" />
    <glyph glyph-name="uni03D2" unicode="&#x3d2;" 
d="M1150 1321q-61 0 -124 -107q-242 -423 -321 -673v-541h-187v559l-487 903h202l379 -731q68 205 275 584q47 86 85 113q65 47 132 47q68 0 104 -17v-145q-32 8 -58 8z" />
    <glyph glyph-name="uni03D6" unicode="&#x3d6;" 
d="M975 456q0 142 -21 246t-71 242h-535q-92 -247 -92 -492q0 -246 77 -302q26 -19 62 -19q70 0 106 74t36 194v203h157v-203q0 -130 40 -199t102 -69q139 -1 139 325zM386 -20q-296 0 -296 468q0 156 21 259t71 237h-164v74l134 80h1052v-154h-155q75 -205 87 -348
q5 -58 5 -148q0 -214 -68 -341t-221 -127q-94 0 -150 44t-81 134h-11q-51 -178 -224 -178z" />
    <glyph glyph-name="uni0400" unicode="&#x400;" 
d="M738 1579h-121q-166 142 -272 307v21h219q86 -178 174 -301v-27zM1059 0h-842v1462h842v-164h-656v-452h617v-162h-617v-520h656v-164z" />
    <glyph glyph-name="afii10023" unicode="&#x401;" 
d="M826 1835q96 -1 96 -103t-96 -102t-96 102t96 103zM451 1835q96 -1 96 -103t-96 -102t-96 102t96 103zM1059 0h-842v1462h842v-164h-656v-452h617v-162h-617v-520h656v-164z" />
    <glyph glyph-name="afii10051" unicode="&#x402;" 
d="M799 143q180 0 180 226v133q0 231 -227 231h-244v-733h-186v1298h-299v164h841v-164h-356v-401h264q187 -1 290 -97t103 -274v-137q-1 -197 -95 -303t-265 -106q-88 0 -141 24v160q68 -21 135 -21z" />
    <glyph glyph-name="afii10052" unicode="&#x403;" 
d="M920 1907v-21q-112 -173 -272 -307h-121v27q94 133 174 301h219zM1071 1462v-166h-639v-1296h-186v1462h825z" />
    <glyph glyph-name="afii10053" unicode="&#x404;" 
d="M961 846v-162h-635q23 -541 471 -541q130 0 327 58v-162q-146 -59 -358 -59q-309 0 -473 196t-164 550t179 555q179 202 489 202q220 0 383 -86l-78 -156q-154 78 -305 78q-188 -1 -313 -125t-152 -348h629z" />
    <glyph glyph-name="afii10054" unicode="&#x405;" 
d="M555 141q350 0 350 240q-1 104 -71 160t-282 131q-212 74 -302 176t-90 270t128 266t356 99q226 0 413 -78l-64 -164q-193 78 -360 78q-293 0 -293 -209q0 -102 66 -164t290 -142q226 -80 308 -172q82 -94 83 -241q-1 -191 -139 -301t-398 -110t-409 69v178
q211 -86 414 -86z" />
    <glyph glyph-name="afii10055" unicode="&#x406;" 
d="M1001 0h-776v123l295 20v1176l-295 20v123h776v-123l-294 -20v-1176l294 -20v-123z" />
    <glyph glyph-name="afii10056" unicode="&#x407;" 
d="M803 1835q96 -1 96 -103t-96 -102t-96 102t96 103zM428 1835q96 -1 96 -103t-96 -102t-96 102t96 103zM1001 0h-776v123l295 20v1176l-295 20v123h776v-123l-294 -20v-1176l294 -20v-123z" />
    <glyph glyph-name="afii10057" unicode="&#x408;" 
d="M453 143q154 -1 247 79t93 227v1013h186v-1011q-1 -215 -141 -343t-367 -128t-334 59v166q162 -62 316 -62z" />
    <glyph glyph-name="afii10058" unicode="&#x409;" 
d="M723 160h45q268 0 268 268q0 134 -69 194t-224 60h-20v-522zM96 -20q-56 0 -96 18v145q32 -14 68 -14t62 35t38 127q12 93 34 525q20 432 23 646h498v-616h39q446 0 446 -418q0 -208 -114 -318t-330 -110h-207v1298h-182l-20 -548q-19 -574 -83 -672t-176 -98z" />
    <glyph glyph-name="afii10059" unicode="&#x40a;" 
d="M715 160h45q268 0 268 268q0 134 -69 194t-224 60h-20v-522zM549 0v682h-318v-682h-165v1462h165v-616h318v616h166v-616h39q218 0 332 -108t114 -312q0 -206 -114 -316t-330 -110h-207z" />
    <glyph glyph-name="afii10060" unicode="&#x40b;" 
d="M508 897h264q187 -1 290 -97t103 -274v-526h-186v502q0 231 -227 231h-244v-733h-186v1298h-299v164h841v-164h-356v-401z" />
    <glyph glyph-name="afii10061" unicode="&#x40c;" 
d="M967 1907v-21q-112 -173 -272 -307h-121v27q94 133 174 301h219zM397 0h-186v1462h186v-708l566 708h206l-565 -702l594 -760h-219l-582 741v-741z" />
    <glyph glyph-name="uni040D" unicode="&#x40d;" 
d="M736 1579h-121q-166 142 -272 307v21h219q86 -178 174 -301v-27zM137 1462h174v-800q0 -142 -7 -254l-7 -150h6l578 1204h213v-1462h-172v793q0 140 18 417h-8l-580 -1210h-215v1462z" />
    <glyph glyph-name="afii10062" unicode="&#x40e;" 
d="M614 1579q-195 0 -281 74t-96 244h170q8 -103 50 -145t161 -42q194 0 211 187h174q-20 -318 -389 -318zM283 -20q-115 0 -189 30v185q84 -45 186 -45t162 52t115 173l-530 1087h204l383 -809q12 -25 20 -49t17 -43h2l39 109l312 792h196l-428 -1030q-76 -182 -136 -268
t-149 -135t-204 -49z" />
    <glyph glyph-name="afii10145" unicode="&#x40f;" 
d="M1094 0h-394v-385h-176v385h-389v1462h187v-1296h585v1296h187v-1462z" />
    <glyph glyph-name="afii10017" unicode="&#x410;" 
d="M807 618l-133 424q-39 124 -62 226q-20 -99 -46 -183l-144 -467h385zM1004 0l-144 453h-491l-146 -453h-190l483 1468h195l485 -1468h-192z" />
    <glyph glyph-name="afii10018" unicode="&#x411;" 
d="M322 160h282q338 0 338 268q0 134 -86 194t-283 60h-251v-522zM135 0v1462h912v-164h-725v-452h272q541 0 541 -418q1 -208 -131 -318t-383 -110h-486z" />
    <glyph glyph-name="afii10019" unicode="&#x412;" 
d="M322 686v-528h307q311 0 311 274q0 254 -324 254h-294zM322 842h284q156 0 228 55t71 179t-77 175q-76 52 -242 52h-264v-461zM135 1462h440q273 0 397 -88t124 -282q0 -128 -78 -213t-213 -103v-10q332 -54 332 -342q1 -198 -127 -311t-348 -113h-527v1462z" />
    <glyph glyph-name="afii10020" unicode="&#x413;" 
d="M1071 1462v-166h-639v-1296h-186v1462h825z" />
    <glyph glyph-name="afii10021" unicode="&#x414;" 
d="M840 166v1130h-242q-16 -266 -98 -596t-189 -534h529zM1221 -385h-177v385h-862v-385h-176v551h113q129 236 216 594t99 702h592v-1296h195v-551z" />
    <glyph glyph-name="afii10022" unicode="&#x415;" 
d="M1059 0h-842v1462h842v-164h-656v-452h617v-162h-617v-520h656v-164z" />
    <glyph glyph-name="afii10024" unicode="&#x416;" 
d="M539 1462h155v-708l342 708h178l-356 -708l371 -754h-185l-350 741v-741h-155v741l-357 -741h-182l373 754l-361 708h178l349 -708v708z" />
    <glyph glyph-name="afii10025" unicode="&#x417;" 
d="M1071 416q0 -204 -142 -320q-141 -116 -393 -116t-397 79v170q184 -96 383 -96q355 0 355 283q0 264 -394 264h-190v151h176q181 0 281 74t100 188t-70 175t-188 61q-186 0 -354 -121l-93 125q194 150 455 150q208 0 326 -99t118 -250t-90 -244t-252 -120v-6
q178 -23 274 -114t95 -234z" />
    <glyph glyph-name="afii10026" unicode="&#x418;" 
d="M137 1462h174v-800q0 -142 -7 -254l-7 -150h6l578 1204h213v-1462h-172v793q0 140 18 417h-8l-580 -1210h-215v1462z" />
    <glyph glyph-name="afii10027" unicode="&#x419;" 
d="M608 1579q-195 0 -281 74t-96 244h170q8 -103 50 -145t161 -42q194 0 211 187h174q-20 -318 -389 -318zM137 1462h174v-800q0 -142 -7 -254l-7 -150h6l578 1204h213v-1462h-172v793q0 140 18 417h-8l-580 -1210h-215v1462z" />
    <glyph glyph-name="afii10028" unicode="&#x41a;" 
d="M397 0h-186v1462h186v-708l566 708h206l-565 -702l594 -760h-219l-582 741v-741z" />
    <glyph glyph-name="afii10029" unicode="&#x41b;" 
d="M1094 0h-187v1298h-297q-118 -977 -206 -1149t-263 -172q-71 0 -137 25v150q57 -25 113 -25q102 1 157 181t181 1154h639v-1462z" />
    <glyph glyph-name="afii10030" unicode="&#x41c;" 
d="M264 874v-874h-151v1462h247l248 -1192h6l250 1192h252v-1462h-153v887q0 102 14 391h-8l-283 -1278h-154l-278 1280h-8q18 -266 18 -406z" />
    <glyph glyph-name="afii10031" unicode="&#x41d;" 
d="M1094 0h-187v682h-585v-682h-187v1462h187v-616h585v616h187v-1462z" />
    <glyph glyph-name="afii10032" unicode="&#x41e;" 
d="M616 143q174 0 254 145q80 144 80 446t-82 444t-250 143q-337 0 -337 -589t335 -589zM616 -20q-532 0 -532 752t534 753q256 1 392 -195t137 -557q0 -361 -138 -557t-393 -196z" />
    <glyph glyph-name="afii10033" unicode="&#x41f;" 
d="M1094 0h-187v1298h-585v-1298h-187v1462h959v-1462z" />
    <glyph glyph-name="afii10034" unicode="&#x420;" 
d="M362 727h170q198 0 284 72t85 225q0 279 -338 279h-201v-576zM362 569v-569h-186v1462h404q514 0 514 -428q0 -219 -138 -342t-403 -123h-191z" />
    <glyph glyph-name="afii10035" unicode="&#x421;" 
d="M766 -20q-309 0 -473 196t-164 550t179 555q179 202 489 202q220 0 383 -86l-78 -156q-154 78 -305 78q-215 -1 -343 -159t-128 -437t120 -429t351 -151q130 0 327 58v-162q-146 -59 -358 -59z" />
    <glyph glyph-name="afii10036" unicode="&#x422;" 
d="M707 0h-187v1298h-418v164h1022v-164h-417v-1298z" />
    <glyph glyph-name="afii10037" unicode="&#x423;" 
d="M283 -20q-115 0 -189 30v185q84 -45 186 -45t162 52t115 173l-530 1087h204l383 -809q12 -25 20 -49t17 -43h2l39 109l312 792h196l-428 -1030q-76 -182 -136 -268t-149 -135t-204 -49z" />
    <glyph glyph-name="afii10038" unicode="&#x424;" 
d="M532 1143h-32q-143 -1 -222 -105t-79 -284t86 -286t241 -106h6v781zM698 362h7q155 0 241 106t86 286t-79 284t-222 105h-33v-781zM532 1483h166v-180h47q213 -1 336 -155t123 -390t-126 -394t-355 -159h-25v-225h-166v225h-24q-230 0 -356 159t-125 394t123 390t335 155
h47v180z" />
    <glyph glyph-name="afii10039" unicode="&#x425;" 
d="M1174 0h-211l-355 635l-366 -635h-189l453 764l-422 698h199l331 -559l334 559h191l-422 -692z" />
    <glyph glyph-name="afii10040" unicode="&#x426;" 
d="M1034 166h176v-551h-176v385h-899v1462h187v-1296h526v1296h186v-1296z" />
    <glyph glyph-name="afii10041" unicode="&#x427;" 
d="M1094 0h-187v598q-227 -90 -393 -90q-379 0 -379 371v583h187v-559q0 -131 52 -181t182 -50q132 0 351 80v710h187v-1462z" />
    <glyph glyph-name="afii10042" unicode="&#x428;" 
d="M1110 0h-989v1462h166v-1296h245v1296h166v-1296h246v1296h166v-1462z" />
    <glyph glyph-name="afii10043" unicode="&#x429;" 
d="M1051 166h178v-551h-176v385h-992v1462h166v-1296h246v1296h166v-1296h246v1296h166v-1296z" />
    <glyph glyph-name="afii10044" unicode="&#x42a;" 
d="M512 160h98q338 0 338 268q0 132 -86 193t-282 61h-68v-522zM326 0v1298h-299v164h485v-616h68q270 0 416 -109t145 -310t-139 -314t-396 -113h-280z" />
    <glyph glyph-name="afii10045" unicode="&#x42b;" 
d="M967 0v1462h166v-1462h-166zM262 160h78q338 0 338 268q0 134 -86 194t-283 60h-47v-522zM96 0v1462h166v-616h47q541 0 541 -418q0 -208 -132 -318t-382 -110h-240z" />
    <glyph glyph-name="afii10046" unicode="&#x42c;" 
d="M362 160h201q338 0 338 268q1 134 -85 194t-284 60h-170v-522zM176 0v1462h186v-616h191q541 0 541 -418q0 -208 -132 -318t-382 -110h-404z" />
    <glyph glyph-name="afii10047" unicode="&#x42d;" 
d="M451 1483q305 -1 477 -195t172 -548t-171 -558q-171 -202 -487 -202q-212 0 -358 59v162q197 -58 328 -58q473 0 489 541h-629v162h625q-19 222 -137 348t-309 125q-152 0 -306 -78l-77 156q161 86 383 86z" />
    <glyph glyph-name="afii10048" unicode="&#x42e;" 
d="M780 143q108 1 156 117t47 474q0 358 -48 473q-49 114 -155 114q-106 -1 -153 -119t-47 -468t46 -470q46 -121 154 -121zM264 682v-682h-166v1462h166v-616h144q18 349 106 494t274 145q188 -1 280 -177t91 -574q0 -398 -92 -576q-91 -178 -283 -178t-282 158t-99 544
h-139z" />
    <glyph glyph-name="afii10049" unicode="&#x42f;" 
d="M856 1303h-188q-310 0 -310 -256q0 -137 82 -211t236 -74h180v541zM166 1063q0 399 504 399h372v-1462h-186v604h-246l-334 -604h-219l381 655q-272 98 -272 408z" />
    <glyph glyph-name="afii10065" unicode="&#x430;" 
d="M324 305q0 -178 200 -178q146 -1 234 81t88 230v99l-162 -7q-196 -8 -278 -62t-82 -163zM466 -20q-146 0 -238 86t-93 241q0 332 510 348l203 7v69q0 236 -244 236q-147 0 -328 -82l-63 137q196 96 403 96q206 0 308 -87t102 -279v-752h-131l-37 152h-8
q-77 -96 -158 -134q-80 -38 -226 -38z" />
    <glyph glyph-name="afii10066" unicode="&#x431;" 
d="M625 131q266 -1 266 369t-240 370q-95 0 -183 -64t-136 -151q0 -524 293 -524zM684 1022q186 0 292 -132t107 -376q0 -244 -125 -389t-345 -145t-345 180t-125 499q0 395 114 588q52 88 121 141q69 54 170 82t492 101l33 -160q-397 -67 -499 -99q-223 -71 -238 -460h12
q116 170 336 170z" />
    <glyph glyph-name="afii10067" unicode="&#x432;" 
d="M358 494v-344h318q254 0 254 180q0 92 -65 128t-193 36h-314zM358 944v-297h293q134 0 191 36t57 120q0 141 -217 141h-324zM1108 317q0 -149 -106 -233t-314 -84h-512v1098h510q387 0 387 -277q0 -197 -229 -239v-7q264 -35 264 -258z" />
    <glyph glyph-name="afii10068" unicode="&#x433;" 
d="M1038 944h-565v-944h-182v1098h747v-154z" />
    <glyph glyph-name="afii10069" unicode="&#x434;" 
d="M795 154v804h-250q-36 -481 -234 -804h484zM1128 -381h-176v381h-743v-381h-176v535h86q262 389 266 944h592v-944h151v-535z" />
    <glyph glyph-name="afii10070" unicode="&#x435;" 
d="M899 662q1 305 -273 305t-300 -305h573zM1096 514h-774q8 -375 344 -375q195 0 370 76v-160q-166 -75 -364 -75q-245 0 -392 150t-147 413q-1 263 135 419t356 156t346 -134t126 -357v-113z" />
    <glyph glyph-name="afii10072" unicode="&#x436;" 
d="M535 1098h159v-533l350 533h185l-367 -533l365 -565h-195l-338 557v-557h-159v557l-338 -557h-195l367 565l-369 533h184l351 -533v533z" />
    <glyph glyph-name="afii10073" unicode="&#x437;" 
d="M506 647q172 -1 244 39t73 127q0 154 -250 154q-134 0 -309 -72l-63 147q159 76 367 76t318 -74t111 -215q0 -186 -192 -243v-11q227 -65 227 -272q0 -151 -120 -237t-350 -86t-357 69v166q180 -86 366 -86q283 0 283 180q0 185 -311 185h-150v153h113z" />
    <glyph glyph-name="afii10074" unicode="&#x438;" 
d="M332 1098v-668l-13 -252l517 920h233v-1098h-172v647l10 271l-514 -918h-233v1098h172z" />
    <glyph glyph-name="afii10075" unicode="&#x439;" 
d="M645 1241q-195 0 -281 74t-96 244h170q8 -103 50 -145t161 -42q194 0 211 187h174q-20 -318 -389 -318zM332 1098v-668l-13 -252l517 920h233v-1098h-172v647l10 271l-514 -918h-233v1098h172z" />
    <glyph glyph-name="afii10076" unicode="&#x43a;" 
d="M395 0h-180v1098h180v-533l518 533h222l-527 -527l566 -571h-232l-547 557v-557z" />
    <glyph glyph-name="afii10077" unicode="&#x43b;" 
d="M1040 0h-182v944h-340q-37 -494 -126 -726t-269 -232q-62 0 -92 12v131q21 -6 49 -6q110 -1 178 237t104 738h678v-1098z" />
    <glyph glyph-name="afii10078" unicode="&#x43c;" 
d="M1114 0h-151v897q-7 -27 -31 -119t-37 -131l-213 -647h-135l-213 647q-8 25 -68 250v-897h-151v1098h211l215 -656q25 -77 73 -268q5 14 34 122t40 142l219 660h207v-1098z" />
    <glyph glyph-name="afii10079" unicode="&#x43d;" 
d="M342 1098v-455h545v455h182v-1098h-182v489h-545v-489h-182v1098h182z" />
    <glyph glyph-name="afii10080" unicode="&#x43e;" 
d="M614 131q310 0 310 418t-310 418t-311 -418q1 -418 311 -418zM616 -20q-222 0 -362 156t-139 416q-1 262 135 414t360 152t363 -155t139 -416t-137 -414t-359 -153z" />
    <glyph glyph-name="afii10081" unicode="&#x43f;" 
d="M342 0h-182v1098h909v-1098h-182v944h-545v-944z" />
    <glyph glyph-name="afii10082" unicode="&#x440;" 
d="M340 551q0 -227 70 -323t221 -97q272 0 272 418t-274 418q-153 0 -219 -88t-70 -287v-41zM340 -23v-469h-182v1590h147l27 -148h8q110 168 316 168t322 -150q114 -150 114 -418q0 -270 -115 -420t-319 -150t-318 159h-12q12 -129 12 -162z" />
    <glyph glyph-name="afii10083" unicode="&#x441;" 
d="M731 958q-371 0 -371 -410t361 -409q157 0 321 62v-160q-134 -61 -329 -61q-257 0 -399 146t-142 422t145 423t408 147q178 0 336 -59l-62 -158q-150 57 -268 57z" />
    <glyph glyph-name="afii10084" unicode="&#x442;" 
d="M1106 944h-401v-944h-183v944h-401v154h985v-154z" />
    <glyph glyph-name="afii10085" unicode="&#x443;" 
d="M268 -492q-86 0 -168 17v145q62 -12 147 -12t139 41t95 141l58 150l-457 1108h188l262 -654q82 -205 89 -290h6q23 112 90 292l239 652h189l-475 -1241q-67 -173 -156 -261t-246 -88z" />
    <glyph glyph-name="afii10086" unicode="&#x444;" 
d="M985 548q0 380 -291 413v-826q291 33 291 413zM242 550q0 -384 295 -415v828q-295 -29 -295 -413zM1153 545q0 -519 -459 -561v-476h-157v476q-463 45 -463 567t463 563v442h157v-442q459 -50 459 -569z" />
    <glyph glyph-name="afii10087" unicode="&#x445;" 
d="M510 563l-393 535h207l290 -410l291 410h207l-395 -535l413 -563h-206l-310 436l-311 -436h-207z" />
    <glyph glyph-name="afii10088" unicode="&#x446;" 
d="M1180 -381h-176v381h-852v1098h182v-944h504v944h182v-944h160v-535z" />
    <glyph glyph-name="afii10089" unicode="&#x447;" 
d="M334 1098v-410q0 -174 205 -174q171 0 340 115v469h182v-1098h-182v489q-181 -127 -361 -127t-273 88t-93 226v422h182z" />
    <glyph glyph-name="afii10090" unicode="&#x448;" 
d="M696 154h248v944h162v-1098h-981v1098h162v-944h248v944h161v-944z" />
    <glyph glyph-name="afii10091" unicode="&#x449;" 
d="M680 154h248v944h162v-944h118v-535h-161v381h-938v1098h161v-944h248v944h162v-944z" />
    <glyph glyph-name="afii10092" unicode="&#x44a;" 
d="M586 494v-344h137q254 0 254 172q0 90 -59 131t-199 41h-133zM586 647h153q416 0 416 -311q0 -336 -420 -336h-332v944h-360v154h543v-451z" />
    <glyph glyph-name="afii10093" unicode="&#x44b;" 
d="M1114 0h-162v1098h162v-1098zM274 494v-344h138q254 0 254 172q0 90 -59 131t-199 41h-134zM274 647h134q415 0 415 -311q0 -336 -420 -336h-290v1098h161v-451z" />
    <glyph glyph-name="afii10094" unicode="&#x44c;" 
d="M399 494v-344h260q254 0 254 172q0 90 -59 131t-199 41h-256zM399 647h277q416 0 416 -311q0 -336 -420 -336h-455v1098h182v-451z" />
    <glyph glyph-name="afii10095" unicode="&#x44d;" 
d="M506 139q351 0 368 348h-538v154h536q-27 317 -364 317q-108 0 -262 -57l-62 158q153 59 332 59q267 0 406 -146t139 -423t-143 -423t-408 -146q-187 0 -320 61v160q163 -62 316 -62z" />
    <glyph glyph-name="afii10096" unicode="&#x44e;" 
d="M800 131q104 -1 150 97t47 320q0 222 -46 320q-46 99 -151 99q-106 0 -152 -96q-46 -97 -46 -319t46 -322q48 -100 152 -99zM285 489v-489h-162v1098h162v-455h151q35 475 367 475q171 0 267 -148t95 -419q0 -571 -368 -571q-335 0 -363 509h-149z" />
    <glyph glyph-name="afii10097" unicode="&#x44f;" 
d="M852 586v358h-295q-211 0 -211 -172q0 -186 238 -186h268zM172 776q0 150 102 236t275 86h485v-1098h-182v432h-285l-254 -432h-198l291 461q-234 67 -234 315z" />
    <glyph glyph-name="uni0450" unicode="&#x450;" 
d="M767 1241h-121q-166 142 -272 307v21h219q86 -178 174 -301v-27zM899 662q1 305 -273 305t-300 -305h573zM1096 514h-774q8 -375 344 -375q195 0 370 76v-160q-166 -75 -364 -75q-245 0 -392 150t-147 413q-1 263 135 419t356 156t346 -134t126 -357v-113z" />
    <glyph glyph-name="afii10071" unicode="&#x451;" 
d="M819 1497q96 -1 96 -103t-96 -102t-96 102t96 103zM444 1497q96 -1 96 -103t-96 -102t-96 102t96 103zM899 662q1 305 -273 305t-300 -305h573zM1096 514h-774q8 -375 344 -375q195 0 370 76v-160q-166 -75 -364 -75q-245 0 -392 150t-147 413q-1 263 135 419t356 156
t346 -134t126 -357v-113z" />
    <glyph glyph-name="afii10099" unicode="&#x452;" 
d="M760 -340q127 0 127 170v836q0 260 -236 260q-161 0 -235 -94t-74 -304v-528h-182v1237h-156v137h156v182h182v-182h379v-137h-379v-184l-8 -144h10q106 168 334 168q391 0 391 -401v-834q0 -334 -291 -334q-81 0 -133 25v148q54 -21 115 -21z" />
    <glyph glyph-name="afii10100" unicode="&#x453;" 
d="M915 1569v-21q-112 -173 -272 -307h-121v27q94 133 174 301h219zM1038 944h-565v-944h-182v1098h747v-154z" />
    <glyph glyph-name="afii10101" unicode="&#x454;" 
d="M737 958q-347 0 -377 -317h537v-154h-539q20 -348 369 -348q153 0 315 62v-160q-133 -61 -319 -61q-265 0 -408 146t-143 423t146 423t413 146q178 0 330 -59l-62 -158q-150 57 -262 57z" />
    <glyph glyph-name="afii10102" unicode="&#x455;" 
d="M573 129q275 0 275 162q0 57 -49 99t-254 118t-265 148t-61 171q-1 135 111 213t310 78t368 -74l-60 -149q-182 72 -319 72q-236 0 -236 -133q1 -62 51 -98t246 -107t266 -145t70 -183q0 -149 -117 -235t-348 -86t-358 69v166q193 -86 370 -86z" />
    <glyph glyph-name="afii10103" unicode="&#x456;" 
d="M272 1098h451v-955l352 -20v-123h-878v123l344 20v811l-269 21v123zM633 1321q-107 1 -107 115t106 114t107 -114q1 -58 -31 -86t-75 -29z" />
    <glyph glyph-name="afii10104" unicode="&#x457;" 
d="M801 1497q96 -1 96 -103t-96 -102t-96 102t96 103zM426 1497q96 -1 96 -103t-96 -102t-96 102t96 103zM272 1098h451v-955l352 -20v-123h-878v123l344 20v811l-269 21v123z" />
    <glyph glyph-name="afii10105" unicode="&#x458;" 
d="M405 -342q135 0 201 57t66 158v1081l-420 21v123h602v-1215q0 -179 -113 -277t-298 -98t-308 35v154q134 -39 270 -39zM744 1550q106 0 106 -114t-106 -115q-106 1 -107 115q1 114 107 114z" />
    <glyph glyph-name="afii10106" unicode="&#x459;" 
d="M713 494v-344h55q254 0 254 172q0 90 -59 131t-199 41h-51zM713 647h51q416 0 416 -311q0 -336 -420 -336h-209v944h-186q-33 -474 -59 -662t-72 -242t-125 -54t-109 12v131q22 -6 56 -6t58 42t48 233q22 191 57 700h494v-451z" />
    <glyph glyph-name="afii10107" unicode="&#x45a;" 
d="M729 494v-344h55q254 0 254 172q0 90 -59 131t-199 41h-51zM268 1098v-455h299v455h162v-451h51q416 0 416 -311q0 -336 -420 -336h-209v489h-299v-489h-162v1098h162z" />
    <glyph glyph-name="afii10108" unicode="&#x45b;" 
d="M887 0v666q0 260 -236 260q-161 0 -235 -94t-74 -304v-528h-182v1237h-156v137h156v182h184v-182h418v-137h-420v-184l-10 -144h10q108 168 346 168q192 1 286 -95t95 -306v-676h-182z" />
    <glyph glyph-name="afii10109" unicode="&#x45c;" 
d="M901 1569v-21q-112 -173 -272 -307h-121v27q94 133 174 301h219zM395 0h-180v1098h180v-291l-16 -299h4l137 166l402 424h213l-494 -510l522 -588h-213l-426 469l-129 -82v-387z" />
    <glyph glyph-name="uni045D" unicode="&#x45d;" 
d="M734 1241h-121q-166 142 -272 307v21h219q86 -178 174 -301v-27zM332 1098v-668l-13 -252l517 920h233v-1098h-172v647l10 271l-514 -918h-233v1098h172z" />
    <glyph glyph-name="afii10110" unicode="&#x45e;" 
d="M618 1241q-195 0 -281 74t-96 244h170q8 -103 50 -145t161 -42q194 0 211 187h174q-20 -318 -389 -318zM268 -492q-86 0 -168 17v145q62 -12 147 -12t139 41t95 141l58 150l-457 1108h188l262 -654q82 -205 89 -290h6q23 112 90 292l239 652h189l-475 -1241
q-67 -173 -156 -261t-246 -88z" />
    <glyph glyph-name="afii10193" unicode="&#x45f;" 
d="M342 154h545v944h182v-1098h-354v-381h-183v381h-372v1098h182v-944z" />
    <glyph glyph-name="uni0460" unicode="&#x460;" 
d="M258 766q0 -623 178 -623q57 0 94 43v476h170v-476q39 -43 95 -43q176 0 176 623q0 275 -39 413t-105 138q-55 0 -96 -29l-47 152q61 41 170 41q293 0 293 -717q0 -399 -76 -591q-76 -193 -258 -193q-91 0 -155 56q-22 18 -44 42q-49 -53 -92 -75q-43 -23 -120 -23
q-78 0 -142 50t-104 150q-74 187 -74 584q0 717 293 717q109 0 170 -41l-47 -152q-41 29 -97 29q-67 0 -105 -138t-38 -413z" />
    <glyph glyph-name="uni0461" unicode="&#x461;" 
d="M1008 1098h153q0 -346 -63 -602t-230 -496h-163l-84 340q-13 48 -21 102q-19 -78 -29 -104l-106 -338h-182l-287 1098h160l163 -676q48 -205 62 -293h4q5 18 13 46q32 120 55 190l86 272l-109 461h150l137 -592q15 -62 34 -147t30 -133t18 -81h6q171 282 195 673
q8 129 8 280z" />
    <glyph glyph-name="uni0462" unicode="&#x462;" 
d="M506 160h104q174 0 256 66t82 202q0 200 -206 240q-69 14 -162 14h-74v-522zM506 846h94q285 0 413 -114t128 -304q0 -310 -283 -398q-97 -30 -231 -30h-308v1120h-299v164h299v272h187v-272h393v-164h-393v-274z" />
    <glyph glyph-name="uni0463" unicode="&#x463;" 
d="M680 150q254 0 254 172q0 138 -146 164q-48 8 -112 8h-236v-344h240zM1112 336q0 -336 -420 -336h-434v944h-238v154h238v221h182v-221h299v-154h-299v-297h256q416 0 416 -311z" />
    <glyph glyph-name="uni0464" unicode="&#x464;" 
d="M578 684q12 -541 347 -541q89 0 232 58v-162q-92 -46 -159 -53q-67 -6 -111 -6q-233 0 -354 186t-130 516h-139v-682h-166v1462h166v-616h144q23 294 154 465q131 172 351 172q170 0 293 -86l-73 -156q-110 78 -220 78q-137 0 -225 -126t-106 -347h467v-162h-471z" />
    <glyph glyph-name="uni0465" unicode="&#x465;" 
d="M322 489v-489h-162v1098h162v-455h151q21 244 136 359q116 116 294 116q141 0 244 -59l-47 -154q-111 53 -197 53q-123 0 -187 -76t-77 -241h418v-154h-420q13 -268 151 -328q46 -20 107 -20q116 0 235 62v-162q-96 -59 -208 -59t-186 29t-132 91q-122 131 -133 389h-149
z" />
    <glyph glyph-name="uni0466" unicode="&#x466;" 
d="M473 836h285l-39 110q-65 185 -107 350q-18 -74 -48 -166t-58 -184zM528 682h-112l-238 -682h-178l520 1462h187l522 -1462h-182l-238 682h-115v-682h-166v682z" />
    <glyph glyph-name="uni0467" unicode="&#x467;" 
d="M737 643q-96 239 -121 334h-12q-23 -82 -119 -334h252zM694 489v-489h-162v489h-104l-184 -489h-183l437 1098h231l436 -1098h-188l-184 489h-99z" />
    <glyph glyph-name="uni0468" unicode="&#x468;" 
d="M719 842h182l-18 84q-22 98 -42 174t-32 151q-12 -75 -31 -151t-39 -168zM727 682h-47l-168 -682h-168l176 682h-256v-682h-166v1462h166v-620h295l162 620h174l381 -1462h-168l-172 682h-45v-682h-164v682z" />
    <glyph glyph-name="uni0469" unicode="&#x469;" 
d="M827 979q-11 -66 -44 -184q-34 -117 -46 -152h183q-70 204 -91 336h-2zM909 489v-489h-161v489h-58l-158 -489h-165l163 489h-245v-489h-162v1098h162v-455h295l151 455h195l364 -1098h-168l-155 489h-58z" />
    <glyph glyph-name="uni046A" unicode="&#x46a;" 
d="M618 864l293 434h-587zM125 1462h981v-139l-334 -487q164 -11 239 -111q57 -76 105 -272l113 -453h-170l-113 449q-38 150 -69 187q-32 36 -67 48t-89 12h-23v-696h-168v696h-22q-104 0 -146 -48t-79 -199l-113 -449h-170l113 453q47 192 108 270q79 102 238 113
l-334 487v139z" />
    <glyph glyph-name="uni046B" unicode="&#x46b;" 
d="M612 643l246 301h-487zM141 1098h949v-105l-302 -356q143 -14 213 -95q46 -53 99 -202l119 -340h-181l-118 336q-42 113 -72 141q-31 29 -64 37t-84 8h-4v-522h-164v522h-4q-98 0 -138 -36t-83 -150l-119 -336h-178l119 340q21 62 42 112t54 88q69 80 213 97l-297 356
v105z" />
    <glyph glyph-name="uni046C" unicode="&#x46c;" 
d="M805 858l223 440h-446zM258 682v-682h-166v1462h166v-620h383l-246 481v139h826v-139l-258 -487q121 -10 174 -110q43 -80 65 -273l55 -453h-170l-55 449q-19 157 -36 190t-40 45t-61 12h-8v-696h-164v696h-8q-72 0 -95 -45t-42 -202l-56 -449h-170l56 453q8 81 18 135
t33 94h-201z" />
    <glyph glyph-name="uni046D" unicode="&#x46d;" 
d="M829 643l193 301h-387zM285 489v-489h-162v1098h162v-455h385l-230 350v105h779v-105l-238 -354q111 -15 165 -95q39 -59 71 -204l73 -340h-164l-73 336q-26 117 -43 142q-28 44 -90 44h-9v-522h-161v522h-9q-63 0 -85 -36t-48 -150l-76 -336h-161l73 340q18 81 54 149
h-213z" />
    <glyph glyph-name="uni046E" unicode="&#x46e;" 
d="M586 1552q142 197 257 197q64 0 103 -14v-119q-26 12 -55 12q-99 0 -191 -153q161 -25 249 -120q87 -95 87 -237t-94 -233t-248 -115v-6q268 -34 344 -216q24 -60 25 -144q0 -186 -135 -305t-378 -119t-243 -114q0 -49 35 -74t123 -25l377 12q140 0 205 -39v-182
q-61 53 -224 53l-356 -8q-283 0 -335 161q-16 48 -15 106q0 122 103 192q103 71 312 71q336 0 336 283q0 264 -393 264h-190v151h176q181 0 281 74t100 189t-71 175t-187 60q-185 0 -355 -121l-92 125q132 107 328 140q-55 69 -203 239v27h121q51 -35 100 -83t103 -104z" />
    <glyph glyph-name="uni046F" unicode="&#x46f;" 
d="M455 -365q-312 0 -312 246t375 246q252 1 314 97q22 34 22 85q0 185 -313 185h-148v153h121q143 0 199 23q57 23 83 56t27 87q0 154 -250 154q-133 0 -309 -72l-63 147q123 55 250 70q-81 108 -181 213v27h121q55 -35 105 -83t106 -104q79 96 120 129q85 68 171 68
q42 0 70 -10v-117q-28 6 -62 6q-34 1 -80 -37t-88 -100q190 -39 245 -172q19 -46 19 -105q0 -183 -192 -241v-11q227 -63 227 -282t-272 -289q-96 -24 -200 -24q-168 0 -211 -24q-44 -24 -44 -74t26 -67q46 -30 138 -30l391 10q134 0 164 -41v-151q-41 41 -156 41z" />
    <glyph glyph-name="uni0470" unicode="&#x470;" 
d="M1174 983q0 -287 -116 -412t-343 -125h-17v-446h-166v446h-16q-230 0 -344 126t-115 407v483h172v-479q0 -231 69 -305t218 -74h16v858h166v-858h17q149 0 217 72t69 303v483h173v-479z" />
    <glyph glyph-name="uni0471" unicode="&#x471;" 
d="M682 1554v-1421q301 28 301 436q0 250 -63 529h172q63 -276 63 -523q0 -567 -473 -593v-474h-158v474q-232 8 -338 143t-106 430v543h172v-529q0 -422 272 -438v1423h158z" />
    <glyph glyph-name="uni0472" unicode="&#x472;" 
d="M618 1321q-164 0 -245 -126q-80 -126 -90 -370h665q-16 367 -186 463q-60 34 -144 33zM616 143q168 0 246 132t86 389h-665q13 -386 185 -486q62 -36 148 -35zM1013 181q-134 -201 -402 -201t-397 199q-130 199 -130 556q0 543 290 697q102 54 240 53q138 1 238 -53
t166 -152q130 -195 129 -547q0 -351 -134 -552z" />
    <glyph glyph-name="uni0473" unicode="&#x473;" 
d="M612 967q-273 0 -305 -326h613q-35 326 -308 326zM305 487q22 -356 309 -356q282 0 308 356h-617zM974 131q-138 -151 -358 -151q-219 0 -360 153t-141 419t137 416t357 150q221 0 362 -152t141 -418t-138 -417z" />
    <glyph glyph-name="uni0474" unicode="&#x474;" 
d="M1213 1325q-75 0 -115 -67q-39 -67 -78 -211l-297 -1047h-209l-451 1462h197l266 -915q49 -174 88 -357q31 173 82 363l142 512q67 237 134 323q67 87 212 87q61 0 129 -21v-151q-56 22 -100 22z" />
    <glyph glyph-name="uni0475" unicode="&#x475;" 
d="M1056 931q-30 -38 -61 -132l-266 -799h-231l-416 1098h188l224 -606q8 -22 18 -54t23 -66q65 -188 75 -251h6q33 143 105 364l102 320q60 186 116 244q56 57 175 57q37 0 84 -10v-135q-29 8 -71 8q-41 0 -71 -38z" />
    <glyph glyph-name="uni0476" unicode="&#x476;" 
d="M546 1579h-101q-107 87 -225 239q-32 40 -47 68v21h198q87 -185 175 -301v-27zM908 1579h-100q-102 83 -225 239q-32 40 -48 68v21h199q82 -173 174 -301v-27zM1213 1325q-75 0 -115 -67q-39 -67 -78 -211l-297 -1047h-209l-451 1462h197l266 -915q49 -174 88 -357
q31 173 82 363l142 512q67 237 134 323q67 87 212 87q61 0 129 -21v-151q-56 22 -100 22z" />
    <glyph glyph-name="uni0477" unicode="&#x477;" 
d="M534 1241h-101q-107 87 -225 239q-32 40 -47 68v21h198q87 -185 175 -301v-27zM896 1241h-100q-102 83 -225 239q-32 40 -48 68v21h199q82 -173 174 -301v-27zM1056 931q-30 -38 -61 -132l-266 -799h-231l-416 1098h188l224 -606q8 -22 18 -54t23 -66q65 -188 75 -251h6
q33 143 105 364l102 320q60 186 116 244q56 57 175 57q37 0 84 -10v-135q-29 8 -71 8q-41 0 -71 -38z" />
    <glyph glyph-name="uni0478" unicode="&#x478;" 
d="M718 -342q93 0 128 186l24 136l-211 1118h156l100 -609q23 -131 33 -233h4q14 171 25 233l106 609h156l-242 -1266q-32 -166 -91 -245t-177 -79q-46 0 -106 17v145q49 -12 95 -12zM252 289q25 -146 92 -146q69 0 93 148t24 364q0 382 -24 524t-91 142q-98 0 -114 -341
q-5 -109 -5 -327t25 -364zM618 731q0 -181 -8 -321t-36 -236t-82 -144q-54 -50 -148 -50t-148 49t-82 145q-44 151 -44 557q0 407 44 557q28 96 84 146q54 50 148 51q94 -1 147 -51q54 -50 82 -146q27 -96 35 -237q8 -140 8 -320z" />
    <glyph glyph-name="uni0479" unicode="&#x479;" 
d="M707 -342q93 0 129 186l24 136l-211 1118h156l100 -609q23 -131 33 -233h4q14 171 25 233l106 609h156l-242 -1266q-32 -166 -91 -245t-177 -79q-45 0 -107 17v145q48 -12 95 -12zM471 549q-1 418 -117 418t-116 -418t116 -418t117 418zM558 106q-69 -126 -203 -126
q-135 0 -200 117q-75 135 -75 454q0 459 164 541q50 26 108 26t109 -26t87 -90q80 -140 79 -455q0 -315 -69 -441z" />
    <glyph glyph-name="uni047A" unicode="&#x47a;" 
d="M477 1290q-196 -100 -196 -558t198 -560q31 82 134 82t135 -84q202 95 202 562t-202 562q-29 -88 -135 -88q-105 0 -136 84zM1147 734q0 -299 -98 -492q-98 -192 -293 -244q-26 -115 -142 -115q-117 0 -143 115q-387 98 -387 737q0 463 211 643q73 62 176 88q13 62 49 86
t92 25q118 0 144 -109q292 -76 367 -464q24 -124 24 -270z" />
    <glyph glyph-name="uni047B" unicode="&#x47b;" 
d="M612 219q95 0 117 -69q195 71 195 399t-195 399q-13 -42 -41 -56t-78 -15t-76 15q-28 16 -40 56q-191 -71 -191 -398t191 -398q11 38 39 52t79 15zM1011 178q-101 -146 -276 -184q-9 -54 -39 -76t-86 -22t-86 22t-37 76q-167 41 -270 187q-102 146 -102 370q0 225 99 369
t273 184q10 54 39 74t71 20q71 0 101 -21t37 -73q170 -40 274 -186q103 -146 103 -370t-101 -370z" />
    <glyph glyph-name="uni047C" unicode="&#x47c;" 
d="M971 766q0 275 -39 413t-105 138q-55 0 -96 -29l-47 152q61 41 170 41q293 0 293 -717q0 -399 -76 -591q-76 -193 -258 -193q-95 0 -155 46q-22 16 -44 40q-44 -49 -88 -67q-43 -19 -122 -19q-167 0 -245 193q-77 193 -77 591q0 717 293 717q109 0 170 -41l-47 -152
q-41 29 -97 29q-67 0 -105 -138t-38 -413q0 -623 178 -623q50 0 88 30t86 93h8q78 -123 177 -123q176 0 176 623zM520 1821q0 75 96 75q59 0 93 -35t34 -102q1 -67 -59 -125t-182 -88v76q116 43 116 92q0 19 -16 28t-33 17q-49 22 -49 62zM283 1901q0 208 221 208
q54 0 107 -18t109 -39q152 -57 255 -57h14v-129h-14q-117 0 -272 57q-57 21 -104 39t-87 18t-68 -22t-28 -76v-16h-133v35z" />
    <glyph glyph-name="uni047D" unicode="&#x47d;" 
d="M514 1511q0 76 96 76q59 0 93 -35t34 -102q0 -66 -60 -124t-181 -89v76q116 41 116 92q0 19 -16 28t-33 17q-49 22 -49 61zM977 1686v-130h-8q-117 0 -264 58q-55 22 -103 39q-48 18 -92 18q-100 0 -100 -98v-17h-134v23q0 109 59 165t163 56q62 0 116 -18t108 -39
t114 -39t133 -18h8zM826 1118q90 0 144 -31q168 -96 169 -544q0 -285 -91 -424t-251 -139q-118 0 -185 67q-67 -67 -180 -67q-344 0 -344 563q0 447 170 544q54 31 112 31q124 0 187 -45l-51 -145q-48 30 -116 30q-136 0 -136 -410t197 -409q82 0 161 84q84 -84 166 -84
q195 0 195 406q0 213 -34 313t-108 100q-58 0 -108 -30l-51 145q64 45 154 45z" />
    <glyph glyph-name="uni047E" unicode="&#x47e;" 
d="M258 766q0 -623 178 -623q57 0 94 43v476h170v-476q39 -43 95 -43q176 0 176 623q0 275 -39 413t-105 138q-55 0 -96 -29l-47 152q61 41 170 41q293 0 293 -717q0 -399 -76 -591q-76 -193 -258 -193q-91 0 -155 56q-22 18 -44 42q-49 -53 -92 -75q-43 -23 -120 -23
q-78 0 -142 50t-104 150q-74 187 -74 584q0 717 293 717q109 0 170 -41l-47 -152q-41 29 -97 29q-67 0 -105 -138t-38 -413zM989 1796v-27l-82 -172h-35l-49 103h-143l-49 -103h-35l-49 103h-144l-49 -103h-35l-79 172v27h749z" />
    <glyph glyph-name="uni047F" unicode="&#x47f;" 
d="M1008 1098h153q0 -346 -63 -602t-230 -496h-163l-84 340q-13 48 -21 102q-19 -78 -29 -104l-106 -338h-182l-287 1098h160l163 -676q48 -205 62 -293h4q5 18 13 46q32 120 55 190l86 272l-109 461h150l137 -592q15 -62 34 -147t30 -133t18 -81h6q171 282 195 673
q8 129 8 280zM975 1444v-27l-82 -172h-35l-49 103h-143l-50 -103h-34l-50 103h-143l-49 -103h-35l-80 172v27h750z" />
    <glyph glyph-name="uni0480" unicode="&#x480;" 
d="M819 1319q-238 0 -365 -158q-128 -158 -128 -430q0 -432 265 -549q88 -39 192 -39t186 35v-670h-187v472h-16q-318 0 -478 201q-159 201 -159 547t176 550q176 205 492 205q221 0 383 -86l-78 -156q-154 78 -283 78z" />
    <glyph glyph-name="uni0481" unicode="&#x481;" 
d="M725 139q92 0 172 33v-664h-182v472h-6q-375 0 -495 306q-42 106 -42 260q0 295 150 434q150 138 411 138q172 0 328 -59l-62 -158q-150 57 -268 57q-191 0 -281 -102t-90 -311q0 -406 365 -406z" />
    <glyph glyph-name="uni0482" unicode="&#x482;" 
d="M578 432l284 -166l-71 -123l-285 164l-180 -313l-129 74l180 315l-283 164l70 123l287 -164l198 346l-284 164l71 125l285 -164l182 313l127 -73l-182 -316l287 -164l-74 -123l-283 164z" />
    <glyph glyph-name="uni0483" unicode="&#x483;" 
d="M887 1464q56 0 77 -25t21 -81q1 -56 -21 -76t-79 -20h-449q-13 -95 -98 -95q-56 -1 -76 25t-20 68q0 70 21 90t77 20h448q10 94 99 94z" />
    <glyph glyph-name="uni0484" unicode="&#x484;" 
d="M856 1270q0 98 -104 98q-42 0 -92 -18t-112 -40q-162 -58 -290 -57h-16v129h14q110 0 270 58q60 22 116 39q56 18 114 18q233 0 233 -209v-35h-133v17z" />
    <glyph glyph-name="uni0485" unicode="&#x485;" 
d="M606 1407q0 -51 117 -92v-76q-122 31 -182 89t-60 124q0 67 34 102t93 35q97 0 97 -76q1 -40 -49 -61q-18 -8 -34 -17t-16 -28z" />
    <glyph glyph-name="uni0486" unicode="&#x486;" 
d="M500 1513q0 76 96 76q59 0 93 -35t34 -102q0 -66 -60 -124t-182 -89v76q117 41 117 92q0 19 -16 28t-33 17q-49 22 -49 61z" />
    <glyph glyph-name="uni0488" unicode="&#x488;" 
d="M175 635q65 0 99 -39t37 -104h-73q-4 34 -22 42t-42 9q-26 0 -41 -8t-18 -43h-74q3 66 37 104t97 39zM1051 635q63 0 99 -39t38 -104h-74q-3 51 -63 51q-29 0 -43 -8t-17 -43h-73q7 143 133 143zM276 823q-26 1 -42 -7t-19 -42h-70q9 141 131 141q66 1 100 -39t40 -102
h-72q-6 32 -24 40t-44 9zM940 915q64 1 99 -39t38 -102h-73q-4 32 -20 40t-44 9q-26 1 -41 -7t-18 -42h-74q3 63 37 102q32 39 96 39zM276 256q-26 0 -42 -8t-19 -43h-70q9 141 131 141q66 0 100 -40t40 -101h-72q-6 35 -24 43t-44 8zM940 346q64 0 99 -40t38 -101h-73
q-4 35 -20 43t-44 8q-26 0 -41 -8t-18 -43h-74q3 63 37 102q32 39 96 39zM608 184q66 0 98 -38q33 -38 39 -99h-69q-6 33 -24 41t-45 8t-43 -8t-19 -41h-72q1 63 35 100t100 37zM608 1077q124 0 137 -139h-69q-6 32 -24 40t-45 9t-43 -7t-19 -42h-72q1 63 35 101t100 38z
" />
    <glyph glyph-name="uni0489" unicode="&#x489;" 
d="M963 70q-112 168 -138 204l74 72l23 -2q48 -81 100 -211zM266 1001q91 -144 135 -202l-71 -72l-25 2q-61 111 -100 209zM147 188q74 45 205 138l72 -74l-2 -25q-140 -72 -211 -98zM1079 885q-181 -121 -202 -137l-70 71v25q103 59 209 100zM41 631q167 -39 235 -45v-103
l-16 -16q-85 22 -219 82v82zM1188 465q-181 42 -236 47v100l19 17q96 -26 217 -80v-84zM698 1122q-35 -141 -47 -235h-100l-16 16q17 73 79 219h84zM535 -25q42 215 45 236h100l16 -16q-24 -96 -82 -220h-79z" />
    <glyph glyph-name="uni048A" unicode="&#x48a;" 
d="M612 1710q193 0 211 186h174q-12 -160 -104 -239q-91 -78 -288 -78t-280 76t-94 241h170q10 -111 56 -149q47 -37 155 -37zM922 793q0 140 18 417h-8l-580 -1210h-215v1462h174v-800q0 -54 -2 -122l-2 -67q-1 -33 -4 -86t-6 -129h6l578 1204h213v-1296h194l-143 -551
h-217l166 385h-172v793z" />
    <glyph glyph-name="uni048B" unicode="&#x48b;" 
d="M612 1372q193 0 211 187h174q-18 -239 -218 -297q-71 -20 -173 -21q-199 0 -282 76t-93 242h170q10 -112 56 -150q47 -37 155 -37zM862 0v647l10 271l-454 -918h-240v1098h172v-668l-12 -252l457 920h239v-944h183l-123 -535h-183l123 381h-172z" />
    <glyph glyph-name="uni048C" unicode="&#x48c;" 
d="M385 160h178q175 0 257 66t81 202q-1 200 -207 240q-70 14 -162 14h-147v-522zM385 846h168q285 0 413 -114t128 -304q0 -310 -283 -398q-97 -30 -231 -30h-381v1120h-152v164h152v178h186v-178h334v-164h-334v-274z" />
    <glyph glyph-name="uni048D" unicode="&#x48d;" 
d="M659 150q254 0 254 172q0 138 -146 164q-48 8 -112 8h-256v-344h260zM1092 336q0 -336 -420 -336h-455v1176h-156v137h156v243h182v-243h279v-137h-279v-529h277q416 0 416 -311z" />
    <glyph glyph-name="uni048E" unicode="&#x48e;" 
d="M901 1024q1 142 -81 210t-257 69h-201v-576h170q75 0 117 8l-94 135l109 76l118 -170q119 67 119 248zM580 1462q514 0 514 -428q0 -276 -215 -395l104 -147l-106 -78l-125 176q-84 -21 -199 -21h-191v-569h-186v1462h404z" />
    <glyph glyph-name="uni048F" unicode="&#x48f;" 
d="M340 551q0 -214 65 -317t226 -103q43 0 67 8l-106 152l108 76l111 -160q92 104 92 329t-66 328t-215 103t-213 -91q-65 -91 -69 -284v-41zM340 -23v-469h-182v1590h147l27 -148h8q110 168 315 168t321 -147t116 -420q0 -341 -179 -488l107 -151l-107 -78l-116 166
q-71 -20 -135 -20q-208 0 -322 159h-12q12 -136 12 -162z" />
    <glyph glyph-name="afii10050" unicode="&#x490;" 
d="M883 1462v301h176v-467h-627v-1296h-186v1462h637z" />
    <glyph glyph-name="afii10098" unicode="&#x491;" 
d="M1018 961h-545v-961h-182v1098h545v319h182v-456z" />
    <glyph glyph-name="uni0492" unicode="&#x492;" 
d="M1124 1462v-166h-639v-491h336v-162h-336v-643h-186v643h-152v162h152v657h825z" />
    <glyph glyph-name="uni0493" unicode="&#x493;" 
d="M291 0v481h-156v137h156v480h747v-154h-565v-326h279v-137h-279v-481h-182z" />
    <glyph glyph-name="uni0494" unicode="&#x494;" 
d="M565 -348q375 0 375 495q0 237 -126 367q-126 129 -345 129q-71 0 -123 -10v-633h-186v1462h760v-166h-574v-501q46 8 173 8q126 0 246 -46q121 -45 203 -131q170 -176 169 -491q0 -315 -150 -481t-397 -166q-138 0 -197 18q-58 18 -90 31v162q129 -47 262 -47z" />
    <glyph glyph-name="uni0495" unicode="&#x495;" 
d="M569 637q247 0 395 -138t148 -431t-133 -431q-133 -139 -340 -139q-113 0 -185 34q-24 12 -51 26v161q90 -47 138 -54t86 -7q297 0 297 405q0 211 -90 313t-289 101q-80 0 -150 -12v-465h-180v1098h680v-154h-500v-317q69 10 174 10z" />
    <glyph glyph-name="uni0496" unicode="&#x496;" 
d="M1053 0h-49l-330 741v-741h-156v741l-336 -741h-182l352 754l-340 708h178l328 -708v708h156v-708l321 708h179l-336 -708l272 -588h119v-551h-176v385z" />
    <glyph glyph-name="uni0497" unicode="&#x497;" 
d="M674 0h-160v557l-317 -557h-195l346 565l-348 533h184l330 -533v533h160v-533l330 533h184l-346 -533l250 -411h116v-535h-161v381h-56l-317 557v-557z" />
    <glyph glyph-name="uni0498" unicode="&#x498;" 
d="M521 -326q95 0 95 88q0 98 -120 218q-221 5 -357 79v170q184 -96 383 -96q355 0 355 283q0 264 -394 264h-190v151h176q181 0 281 74t100 188t-70 175t-188 61q-186 0 -354 -121l-93 125q194 150 455 150q208 0 326 -99t118 -250t-90 -244t-252 -120v-6q178 -23 274 -114
t95 -234q0 -204 -142 -320q-114 -93 -304 -111q140 -112 140 -237q0 -90 -50 -142t-133 -52t-136 16v113q32 -9 75 -9z" />
    <glyph glyph-name="uni0499" unicode="&#x499;" 
d="M519 -326q95 0 95 88q0 99 -121 220q-182 9 -288 67v166q180 -86 366 -86q283 0 283 180q0 185 -311 185h-150v153h113q172 -1 244 39t73 127q0 154 -250 154q-134 0 -309 -72l-63 147q159 76 367 76t318 -74t111 -215q0 -186 -192 -243v-11q227 -65 227 -272
q0 -151 -112 -231t-293 -90q136 -111 136 -234q0 -90 -50 -142q-49 -52 -133 -52q-83 0 -136 16v113q32 -9 75 -9z" />
    <glyph glyph-name="uni049A" unicode="&#x49a;" 
d="M1210 166v-551h-176v385h-55l-582 741v-741h-186v1462h186v-708l566 708h206l-565 -702l463 -594h143z" />
    <glyph glyph-name="uni049B" unicode="&#x49b;" 
d="M395 0h-180v1098h180v-533l518 533h222l-527 -527l414 -417h158v-535h-176v381h-62l-547 557v-557z" />
    <glyph glyph-name="uni049C" unicode="&#x49c;" 
d="M649 295h-133v356l-119 -98v-553h-186v1462h186v-762l119 164v355h133v-179l322 422h209l-521 -667l539 -795h-211l-338 500v-205z" />
    <glyph glyph-name="uni049D" unicode="&#x49d;" 
d="M395 0h-180v1098h180v-533l133 137v312h125v-185l260 269h222l-527 -527l566 -571h-232l-289 295v-205h-125v332l-133 135v-557z" />
    <glyph glyph-name="uni049E" unicode="&#x49e;" 
d="M397 0h-186v1120h-152v164h152v178h186v-178h213v-164h-213v-389l121 168l453 563h209l-521 -637l539 -825h-211l-450 698l-140 -114v-584z" />
    <glyph glyph-name="uni049F" unicode="&#x49f;" 
d="M59 1374h156v182h180v-182h379v-137h-379v-395l-16 -289h4l135 152l395 393h222l-494 -475l522 -623h-213l-426 504l-129 -82v-422h-180v1237h-156v137z" />
    <glyph glyph-name="uni04A0" unicode="&#x4a0;" 
d="M508 0h-186v1298h-299v164h485v-760l104 170l373 590h195l-412 -633l430 -829h-203l-350 696l-137 -153v-543z" />
    <glyph glyph-name="uni04A1" unicode="&#x4a1;" 
d="M584 0h-181v944h-360v154h541v-533l407 533h197l-416 -527l455 -571h-207l-436 557v-557z" />
    <glyph glyph-name="uni04A2" unicode="&#x4a2;" 
d="M1034 166h176v-551h-176v385h-186v682h-526v-682h-187v1462h187v-616h526v616h186v-1296z" />
    <glyph glyph-name="uni04A3" unicode="&#x4a3;" 
d="M838 0v489h-496v-489h-182v1098h182v-455h496v455h182v-944h160v-535h-176v381h-166z" />
    <glyph glyph-name="uni04A4" unicode="&#x4a4;" 
d="M924 0h-187v682h-415v-682h-187v1462h187v-616h415v616h469v-164h-282v-1298z" />
    <glyph glyph-name="uni04A5" unicode="&#x4a5;" 
d="M967 0h-183v489h-442v-489h-182v1098h182v-455h442v455h422v-154h-239v-944z" />
    <glyph glyph-name="uni04A6" unicode="&#x4a6;" 
d="M807 803q373 1 373 -657t-370 -658q-91 0 -175 39v162q88 -37 158 -37q115 0 165 124t50 368q0 246 -52 372t-163 127q-51 0 -78 -12v-631h-166v1298h-277v-1298h-166v1462h609v-671q43 12 92 12z" />
    <glyph glyph-name="uni04A7" unicode="&#x4a7;" 
d="M1155 61q0 -563 -330 -563q-110 0 -192 43v162q86 -45 158 -45t107 24t57 72q22 50 32 126t10 183q0 220 -45 317t-155 97q-55 0 -88 -10v-467h-162v944h-258v-944h-162v1098h582v-473q42 12 106 12q155 0 248 -132q92 -132 92 -444z" />
    <glyph glyph-name="uni04A8" unicode="&#x4a8;" 
d="M836 1044q-113 0 -113 -350q0 -298 104 -469q89 97 115 327q8 70 8 148t-6 144t-18 110q-28 90 -90 90zM526 688q0 508 310 508t311 -494q-1 -302 -121 -498q-36 -58 -74 -95q88 -50 234 2v-170q-56 -25 -129 -25q-148 0 -262 96q-77 -32 -194 -32q-245 0 -381 191
t-136 552q0 571 301 715q98 47 208 47t198 -35l-56 -154q-64 25 -134 25q-320 0 -320 -598q0 -451 197 -549q62 -32 116 -31q54 0 82 7q-150 219 -150 538z" />
    <glyph glyph-name="uni04A9" unicode="&#x4a9;" 
d="M598 -20q-216 0 -349 150q-134 150 -134 413q0 262 132 418q132 157 365 157q92 0 168 -26l-45 -146q-66 21 -123 21q-309 0 -309 -426q-1 -298 173 -382q58 -28 134 -28h15q5 0 14 2q-141 162 -141 362q0 279 189 351q57 22 122 22q138 0 220 -87q83 -87 83 -275
q0 -254 -176 -397q38 -19 96 -19t107 14v-147q-41 -16 -117 -16q-143 0 -246 67q-76 -28 -178 -28zM926 507q0 220 -117 220q-61 0 -93 -61q-32 -62 -32 -140q0 -125 33 -202t86 -134q123 97 123 317z" />
    <glyph glyph-name="uni04AA" unicode="&#x4aa;" 
d="M932 -252q0 -90 -50 -142t-134 -52t-135 16v113q32 -9 75 -9q95 0 95 88q0 101 -126 225q-230 30 -364 189q-164 196 -164 550t179 555q179 202 489 202q220 0 383 -86l-78 -156q-154 78 -305 78q-215 -1 -343 -159t-128 -437t120 -429t351 -151q130 0 327 58v-162
q-135 -55 -327 -59q135 -110 135 -232z" />
    <glyph glyph-name="uni04AB" unicode="&#x4ab;" 
d="M585 -326q95 0 95 88q0 106 -139 237q-136 35 -227 127q-142 146 -142 422t145 423t408 147q178 0 336 -59l-62 -158q-150 57 -268 57q-371 0 -371 -410t361 -409q157 0 321 62v-160q-134 -61 -329 -61h-19q135 -111 135 -232q0 -90 -50 -142q-49 -52 -133 -52t-136 16
v113q32 -9 75 -9z" />
    <glyph glyph-name="uni04AC" unicode="&#x4ac;" 
d="M707 0h-187v1298h-418v164h1022v-164h-417v-1132h176v-551h-176v385z" />
    <glyph glyph-name="uni04AD" unicode="&#x4ad;" 
d="M522 0v944h-401v154h985v-154h-401v-790h159v-535h-182v381h-160z" />
    <glyph glyph-name="uni04AE" unicode="&#x4ae;" 
d="M707 0h-187v559l-487 903h203l376 -739l381 739h201l-487 -893v-569z" />
    <glyph glyph-name="uni04AF" unicode="&#x4af;" 
d="M705 -492h-183v492l-440 1098h190l238 -623q80 -213 100 -330h6q28 135 101 330l239 623h189l-440 -1098v-492z" />
    <glyph glyph-name="uni04B0" unicode="&#x4b0;" 
d="M707 508h294v-164h-294v-344h-187v344h-295v164h295v51l-487 903h203l376 -739l381 739h201l-487 -893v-61z" />
    <glyph glyph-name="uni04B1" unicode="&#x4b1;" 
d="M971 0v-137h-266v-355h-183v355h-266v137h266l-440 1098h190l238 -623q80 -213 100 -330h6q28 135 101 330l239 623h189l-440 -1098h266z" />
    <glyph glyph-name="uni04B2" unicode="&#x4b2;" 
d="M1210 166v-551h-176v385h-71l-355 635l-366 -635h-189l453 764l-422 698h199l331 -559l334 559h191l-422 -692l358 -604h135z" />
    <glyph glyph-name="uni04B3" unicode="&#x4b3;" 
d="M1180 154v-535h-176v381h-80l-310 436l-311 -436h-207l414 563l-393 535h207l290 -410l291 410h207l-395 -535l301 -409h162z" />
    <glyph glyph-name="uni04B4" unicode="&#x4b4;" 
d="M444 166h404v1296h186v-1296h176v-551h-176v385h-776v1298h-235v164h657v-164h-236v-1132z" />
    <glyph glyph-name="uni04B5" unicode="&#x4b5;" 
d="M1180 -381h-176v381h-762v944h-222v154h633v-154h-229v-790h414v944h182v-944h160v-535z" />
    <glyph glyph-name="uni04B6" unicode="&#x4b6;" 
d="M848 1462h186v-1296h176v-551h-176v385h-186v575q-187 -67 -354 -67t-263 96t-96 275v583h187v-559q0 -121 48 -176t174 -55q127 0 304 59v731z" />
    <glyph glyph-name="uni04B7" unicode="&#x4b7;" 
d="M539 514q150 0 299 88v496h182v-944h160v-535h-176v381h-166v463q-158 -101 -330 -101t-264 88t-92 226v422h182v-410q0 -174 205 -174z" />
    <glyph glyph-name="uni04B8" unicode="&#x4b8;" 
d="M907 1462h187v-1462h-187v598q-141 -54 -227 -72v-313h-133v295h-33q-187 0 -283 96t-96 275v583h187v-559q0 -121 48 -176t165 -55h12v344h133v-332q79 14 227 68v710z" />
    <glyph glyph-name="uni04B9" unicode="&#x4b9;" 
d="M670 131h-125v231h-47q-162 0 -254 88t-92 226v422h182v-410q0 -174 205 -174h6v301h125v-285q104 29 209 99v469h182v-1098h-182v489q-106 -74 -209 -104v-254z" />
    <glyph glyph-name="uni04BA" unicode="&#x4ba;" 
d="M672 791q-136 0 -350 -80v-711h-187v1462h187v-598q220 90 398 90t276 -94t98 -276v-584h-187v559q0 116 -50 174q-49 58 -185 58z" />
    <glyph glyph-name="uni04BB" unicode="&#x4bb;" 
d="M350 608q180 127 361 127t274 -87q92 -87 92 -226v-422h-182v410q0 174 -205 174q-171 0 -340 -115v-469h-182v1098h182v-490z" />
    <glyph glyph-name="uni04BC" unicode="&#x4bc;" 
d="M954 825q0 258 -40 365q-49 131 -179 131q-128 0 -189 -124t-71 -372h479zM156 922q0 -97 102 -97h21q35 487 261 615q82 46 200 45q228 1 324 -195q82 -168 83 -536v-90h-672q11 -262 83 -391q73 -130 243 -130q123 0 229 46q32 14 66 30v-170q-116 -53 -191 -61
t-135 -8q-359 0 -453 397q-30 127 -38 287q-143 3 -215 60t-72 179q0 72 28 131h156q-20 -50 -20 -112z" />
    <glyph glyph-name="uni04BD" unicode="&#x4bd;" 
d="M682 967q-115 0 -181 -78t-77 -227h491q0 220 -127 283q-44 22 -106 22zM-43 741q0 66 27 123h149q-20 -47 -20 -106q0 -96 98 -96h27q28 216 148 336t308 120q189 0 303 -135q115 -135 115 -356v-113h-692q5 -193 81 -284t237 -91t325 76v-162q-154 -73 -354 -73
t-335 140t-143 394q-274 4 -274 227z" />
    <glyph glyph-name="uni04BE" unicode="&#x4be;" 
d="M954 825q0 258 -40 365q-49 131 -179 131q-128 0 -189 -124t-71 -372h479zM156 922q0 -97 102 -97h21q35 487 261 615q82 46 200 45q228 1 324 -195q82 -168 83 -536v-90h-672q11 -262 83 -391q73 -130 243 -130q123 0 229 46q32 14 66 30v-170q-135 -63 -283 -69v-365
h-176v381q-258 66 -329 417q-23 113 -29 251q-143 3 -215 60t-72 179q0 72 28 131h156q-20 -50 -20 -112z" />
    <glyph glyph-name="uni04BF" unicode="&#x4bf;" 
d="M682 967q-115 0 -181 -78t-77 -227h491q0 220 -127 283q-44 22 -106 22zM113 758q0 -96 98 -96h27q28 216 148 336t308 120q189 0 303 -135q115 -135 115 -356v-113h-692q5 -193 81 -284t237 -91t325 76v-162q-127 -61 -277 -71v-363h-176v373q-262 53 -348 322
q-28 89 -31 200q-274 4 -274 227q0 66 27 123h149q-20 -47 -20 -106z" />
    <glyph glyph-name="uni04C0" unicode="&#x4c0;" 
d="M1001 0h-776v123l295 20v1176l-295 20v123h776v-123l-294 -20v-1176l294 -20v-123z" />
    <glyph glyph-name="uni04C1" unicode="&#x4c1;" 
d="M608 1579q-195 0 -281 74t-96 244h170q8 -103 50 -145t161 -42q194 0 211 187h174q-20 -318 -389 -318zM539 1462h155v-708l342 708h178l-356 -708l371 -754h-185l-350 741v-741h-155v741l-357 -741h-182l373 754l-361 708h178l349 -708v708z" />
    <glyph glyph-name="uni04C2" unicode="&#x4c2;" 
d="M608 1241q-195 0 -281 74t-96 244h170q8 -103 50 -145t161 -42q194 0 211 187h174q-20 -318 -389 -318zM535 1098h159v-533l350 533h185l-367 -533l365 -565h-195l-338 557v-557h-159v557l-338 -557h-195l367 565l-369 533h184l351 -533v533z" />
    <glyph glyph-name="uni04C3" unicode="&#x4c3;" 
d="M541 -348q374 0 374 495q0 244 -119 367t-300 123q-102 0 -174 -29v-608h-187v1462h187v-708l565 708h207l-559 -680h6q261 0 416 -165t155 -481t-150 -482t-397 -166q-138 0 -197 18q-58 18 -89 31v162q129 -47 262 -47z" />
    <glyph glyph-name="uni04C4" unicode="&#x4c4;" 
d="M618 -342q306 0 306 405q0 306 -218 379q-68 23 -152 23t-159 -29v-436h-180v1098h180v-506l484 506h215l-476 -488q344 -6 454 -296q40 -104 40 -254q0 -284 -132 -423t-349 -139q-131 0 -228 60v161q112 -61 215 -61z" />
    <glyph glyph-name="uni04C5" unicode="&#x4c5;" 
d="M112 127q90 0 138 112q36 85 69 281q67 406 136 942h577v-1296h195l-144 -551h-217l166 385h-186v1298h-236q-77 -625 -113 -807q-37 -182 -63 -263q-82 -251 -293 -251q-73 0 -137 25v150q55 -25 108 -25z" />
    <glyph glyph-name="uni04C6" unicode="&#x4c6;" 
d="M80 123q162 -1 238 541q26 184 44 434h654v-944h182l-123 -535h-182l123 381h-182v944h-316q-40 -516 -131 -737t-252 -221q-74 0 -104 12v131q21 -6 49 -6z" />
    <glyph glyph-name="uni04C7" unicode="&#x4c7;" 
d="M569 -348q164 0 251 120t87 367v543h-585v-682h-187v1462h187v-616h585v616h187v-1315q0 -327 -135 -493t-359 -166q-126 0 -178 18q-53 18 -82 31v162q114 -47 229 -47z" />
    <glyph glyph-name="uni04C8" unicode="&#x4c8;" 
d="M645 -342q242 0 242 397v434h-545v-489h-182v1098h182v-455h545v455h182v-1037q0 -286 -113 -424q-113 -139 -299 -139q-130 0 -227 60v161q109 -61 215 -61z" />
    <glyph glyph-name="uni04C9" unicode="&#x4c9;" 
d="M1032 166h195l-144 -551h-217l166 385h-186v682h-524v-682h-187v1462h187v-616h524v616h186v-1296z" />
    <glyph glyph-name="uni04CA" unicode="&#x4ca;" 
d="M834 0v489h-492v-489h-182v1098h182v-455h492v455h182v-944h182l-123 -535h-182l123 381h-182z" />
    <glyph glyph-name="uni04CB" unicode="&#x4cb;" 
d="M907 1462h187v-1462h-187v-385h-176v551h176v432q-233 -90 -407 -90q-173 0 -269 96t-96 275v583h187v-559q0 -121 48 -176t180 -55q133 0 357 80v710z" />
    <glyph glyph-name="uni04CC" unicode="&#x4cc;" 
d="M539 514q171 0 340 115v469h182v-1098h-166v-381h-176v535h160v335q-186 -127 -367 -127q-175 0 -268 88q-92 88 -92 226v422h182v-410q0 -174 205 -174z" />
    <glyph glyph-name="uni04CD" unicode="&#x4cd;" 
d="M258 874v-874h-145v1462h237l236 -1192h6l239 1192h242v-1296h154l-185 -551h-176l166 385h-108v887q0 50 14 391h-8l-264 -1278h-156l-262 1280h-8q18 -266 18 -406z" />
    <glyph glyph-name="uni04CE" unicode="&#x4ce;" 
d="M1053 1098v-944h145l-123 -535h-168l123 381h-123v897q-4 -21 -12 -55t-21 -92q-13 -57 -26 -103l-199 -647h-131l-196 647q-22 78 -62 250v-897h-145v1098h204l197 -656q18 -63 40 -151q21 -89 28 -117q5 18 12 48q38 165 53 216l203 660h201z" />
    <glyph glyph-name="uni04CF" unicode="&#x4cf;" 
d="M1001 0h-776v123l295 20v1176l-295 20v123h776v-123l-294 -20v-1176l294 -20v-123z" />
    <glyph glyph-name="uni04D0" unicode="&#x4d0;" 
d="M607 1579q-195 0 -281 74t-96 244h170q8 -103 50 -145t161 -42q194 0 211 187h174q-20 -318 -389 -318zM807 618l-133 424q-39 124 -62 226q-20 -99 -46 -183l-144 -467h385zM1004 0l-144 453h-491l-146 -453h-190l483 1468h195l485 -1468h-192z" />
    <glyph glyph-name="uni04D1" unicode="&#x4d1;" 
d="M612 1241q-195 0 -281 74t-96 244h170q8 -103 50 -145t161 -42q194 0 211 187h174q-20 -318 -389 -318zM324 305q0 -178 200 -178q146 -1 234 81t88 230v99l-162 -7q-196 -8 -278 -62t-82 -163zM466 -20q-146 0 -238 86t-93 241q0 332 510 348l203 7v69q0 236 -244 236
q-147 0 -328 -82l-63 137q196 96 403 96q206 0 308 -87t102 -279v-752h-131l-37 152h-8q-77 -96 -158 -134q-80 -38 -226 -38z" />
    <glyph glyph-name="uni04D2" unicode="&#x4d2;" 
d="M801 1835q96 -1 96 -103t-96 -102t-96 102t96 103zM426 1835q96 -1 96 -103t-96 -102t-96 102t96 103zM807 618l-133 424q-39 124 -62 226q-20 -99 -46 -183l-144 -467h385zM1004 0l-144 453h-491l-146 -453h-190l483 1468h195l485 -1468h-192z" />
    <glyph glyph-name="uni04D3" unicode="&#x4d3;" 
d="M813 1497q96 -1 96 -103t-96 -102t-96 102t96 103zM438 1497q96 -1 96 -103t-96 -102t-96 102t96 103zM324 305q0 -178 200 -178q146 -1 234 81t88 230v99l-162 -7q-196 -8 -278 -62t-82 -163zM466 -20q-146 0 -238 86t-93 241q0 332 510 348l203 7v69q0 236 -244 236
q-147 0 -328 -82l-63 137q196 96 403 96q206 0 308 -87t102 -279v-752h-131l-37 152h-8q-77 -96 -158 -134q-80 -38 -226 -38z" />
    <glyph glyph-name="uni04D4" unicode="&#x4d4;" 
d="M557 618v680h-106l-146 -680h252zM1210 0h-653v453h-289l-96 -453h-172l338 1462h872v-164h-477v-452h438v-162h-438v-520h477v-164z" />
    <glyph glyph-name="uni04D5" unicode="&#x4d5;" 
d="M215 305q0 -83 32 -131t87 -47q82 1 134 83t52 228v99l-88 -7q-217 -17 -217 -225zM1010 662q0 141 -40 223t-110 82t-115 -78t-51 -227h316zM522 731q0 236 -139 236q-107 0 -211 -82l-57 137q131 96 276 96q188 0 246 -178q78 178 240 178q137 0 223 -136t86 -355v-113
h-496q3 -192 67 -284t172 -91q108 0 230 76v-162q-107 -73 -241 -73q-222 0 -316 229q-105 -229 -301 -229q-115 0 -185 86t-71 241q0 332 328 348l149 7v69z" />
    <glyph glyph-name="uni04D6" unicode="&#x4d6;" 
d="M631 1579q-195 0 -281 74t-96 244h170q8 -103 50 -145t161 -42q194 0 211 187h174q-20 -318 -389 -318zM1059 0h-842v1462h842v-164h-656v-452h617v-162h-617v-520h656v-164z" />
    <glyph glyph-name="uni04D7" unicode="&#x4d7;" 
d="M624 1241q-195 0 -281 74t-96 244h170q8 -103 50 -145t161 -42q194 0 211 187h174q-20 -318 -389 -318zM899 662q1 305 -273 305t-300 -305h573zM1096 514h-774q8 -375 344 -375q195 0 370 76v-160q-166 -75 -364 -75q-245 0 -392 150t-147 413q-1 263 135 419t356 156
t346 -134t126 -357v-113z" />
    <glyph glyph-name="uni04D8" unicode="&#x4d8;" 
d="M592 143q160 0 252 129t104 367h-669q5 -368 171 -462q60 -34 142 -34zM84 719v82h866q-20 379 -234 485q-72 36 -169 35q-181 0 -369 -76v170q135 53 228 62q94 8 161 8q278 0 429 -204t151 -553q0 -350 -145 -549t-412 -199q-506 0 -506 739z" />
    <glyph glyph-name="uni04D9" unicode="&#x4d9;" 
d="M602 131q133 0 211 78t90 227h-573q0 -219 150 -283q52 -22 122 -22zM557 1118q242 0 391 -147q148 -147 148 -415t-136 -422t-357 -154q-220 0 -345 134t-125 357v113h774q-5 194 -91 284t-262 90q-177 0 -361 -75v159q163 76 364 76z" />
    <glyph glyph-name="uni04DA" unicode="&#x4da;" 
d="M803 1835q96 -1 96 -103t-96 -102t-96 102t96 103zM428 1835q96 -1 96 -103t-96 -102t-96 102t96 103zM592 143q160 0 252 129t104 367h-669q5 -368 171 -462q60 -34 142 -34zM84 719v82h866q-20 379 -234 485q-72 36 -169 35q-181 0 -369 -76v170q135 53 228 62
q94 8 161 8q278 0 429 -204t151 -553q0 -350 -145 -549t-412 -199q-506 0 -506 739z" />
    <glyph glyph-name="uni04DB" unicode="&#x4db;" 
d="M803 1497q96 -1 96 -103t-96 -102t-96 102t96 103zM428 1497q96 -1 96 -103t-96 -102t-96 102t96 103zM602 131q133 0 211 78t90 227h-573q0 -219 150 -283q52 -22 122 -22zM557 1118q242 0 391 -147q148 -147 148 -415t-136 -422t-357 -154q-220 0 -345 134t-125 357
v113h774q-5 194 -91 284t-262 90q-177 0 -361 -75v159q163 76 364 76z" />
    <glyph glyph-name="uni04DC" unicode="&#x4dc;" 
d="M801 1835q96 -1 96 -103t-96 -102t-96 102t96 103zM426 1835q96 -1 96 -103t-96 -102t-96 102t96 103zM539 1462h155v-708l342 708h178l-356 -708l371 -754h-185l-350 741v-741h-155v741l-357 -741h-182l373 754l-361 708h178l349 -708v708z" />
    <glyph glyph-name="uni04DD" unicode="&#x4dd;" 
d="M801 1497q96 -1 96 -103t-96 -102t-96 102t96 103zM426 1497q96 -1 96 -103t-96 -102t-96 102t96 103zM535 1098h159v-533l350 533h185l-367 -533l365 -565h-195l-338 557v-557h-159v557l-338 -557h-195l367 565l-369 533h184l351 -533v533z" />
    <glyph glyph-name="uni04DE" unicode="&#x4de;" 
d="M782 1835q96 -1 96 -103t-96 -102t-96 102t96 103zM407 1835q96 -1 96 -103t-96 -102t-96 102t96 103zM1071 416q0 -204 -142 -320q-141 -116 -393 -116t-397 79v170q184 -96 383 -96q355 0 355 283q0 264 -394 264h-190v151h176q181 0 281 74t100 188t-70 175t-188 61
q-186 0 -354 -121l-93 125q194 150 455 150q208 0 326 -99t118 -250t-90 -244t-252 -120v-6q178 -23 274 -114t95 -234z" />
    <glyph glyph-name="uni04DF" unicode="&#x4df;" 
d="M798 1497q96 -1 96 -103t-96 -102t-96 102t96 103zM423 1497q96 -1 96 -103t-96 -102t-96 102t96 103zM506 647q172 -1 244 39t73 127q0 154 -250 154q-134 0 -309 -72l-63 147q159 76 367 76t318 -74t111 -215q0 -186 -192 -243v-11q227 -65 227 -272q0 -151 -120 -237
t-350 -86t-357 69v166q180 -86 366 -86q283 0 283 180q0 185 -311 185h-150v153h113z" />
    <glyph glyph-name="uni04E0" unicode="&#x4e0;" 
d="M528 133q367 0 367 283q1 136 -103 200t-290 64h-123v151l422 465h-602v166h829v-145l-442 -490q364 -13 468 -233q36 -76 36 -175q0 -202 -139 -320q-139 -119 -391 -119t-402 79v170q179 -96 370 -96z" />
    <glyph glyph-name="uni04E1" unicode="&#x4e1;" 
d="M557 -342q155 0 252 93q96 93 96 254q0 160 -108 241q-108 80 -301 80h-119v125l438 493h-618v154h829v-133l-442 -496q219 -15 359 -133t140 -332t-146 -355t-393 -141q-246 0 -374 70l2 166q177 -86 385 -86z" />
    <glyph glyph-name="uni04E2" unicode="&#x4e2;" 
d="M328 1729h575v-150h-575v150zM137 1462h174v-800q0 -142 -7 -254l-7 -150h6l578 1204h213v-1462h-172v793q0 140 18 417h-8l-580 -1210h-215v1462z" />
    <glyph glyph-name="uni04E3" unicode="&#x4e3;" 
d="M328 1391h575v-150h-575v150zM332 1098v-668l-13 -252l517 920h233v-1098h-172v647l10 271l-514 -918h-233v1098h172z" />
    <glyph glyph-name="uni04E4" unicode="&#x4e4;" 
d="M803 1835q96 -1 96 -103t-96 -102t-96 102t96 103zM428 1835q96 -1 96 -103t-96 -102t-96 102t96 103zM137 1462h174v-800q0 -142 -7 -254l-7 -150h6l578 1204h213v-1462h-172v793q0 140 18 417h-8l-580 -1210h-215v1462z" />
    <glyph glyph-name="uni04E5" unicode="&#x4e5;" 
d="M803 1497q96 -1 96 -103t-96 -102t-96 102t96 103zM428 1497q96 -1 96 -103t-96 -102t-96 102t96 103zM332 1098v-668l-13 -252l517 920h233v-1098h-172v647l10 271l-514 -918h-233v1098h172z" />
    <glyph glyph-name="uni04E6" unicode="&#x4e6;" 
d="M803 1835q96 -1 96 -103t-96 -102t-96 102t96 103zM428 1835q96 -1 96 -103t-96 -102t-96 102t96 103zM616 143q174 0 254 145q80 144 80 446t-82 444t-250 143q-337 0 -337 -589t335 -589zM616 -20q-532 0 -532 752t534 753q256 1 392 -195t137 -557q0 -361 -138 -557
t-393 -196z" />
    <glyph glyph-name="uni04E7" unicode="&#x4e7;" 
d="M794 1497q96 -1 96 -103t-96 -102t-96 102t96 103zM419 1497q96 -1 96 -103t-96 -102t-96 102t96 103zM614 131q310 0 310 418t-310 418t-311 -418q1 -418 311 -418zM616 -20q-222 0 -362 156t-139 416q-1 262 135 414t360 152t363 -155t139 -416t-137 -414t-359 -153z
" />
    <glyph glyph-name="uni04E8" unicode="&#x4e8;" 
d="M618 1321q-164 0 -245 -126q-80 -126 -90 -370h665q-16 367 -186 463q-60 34 -144 33zM616 143q168 0 246 132t86 389h-665q13 -386 185 -486q62 -36 148 -35zM1013 181q-134 -201 -402 -201t-397 199q-130 199 -130 556q0 543 290 697q102 54 240 53q138 1 238 -53
t166 -152q130 -195 129 -547q0 -351 -134 -552z" />
    <glyph glyph-name="uni04E9" unicode="&#x4e9;" 
d="M612 967q-273 0 -305 -326h613q-35 326 -308 326zM305 487q22 -356 309 -356q282 0 308 356h-617zM974 131q-138 -151 -358 -151q-219 0 -360 153t-141 419t137 416t357 150q221 0 362 -152t141 -418t-138 -417z" />
    <glyph glyph-name="uni04EA" unicode="&#x4ea;" 
d="M803 1835q96 -1 96 -103t-96 -102t-96 102t96 103zM428 1835q96 -1 96 -103t-96 -102t-96 102t96 103zM618 1321q-164 0 -245 -126q-80 -126 -90 -370h665q-16 367 -186 463q-60 34 -144 33zM616 143q168 0 246 132t86 389h-665q13 -386 185 -486q62 -36 148 -35z
M1013 181q-134 -201 -402 -201t-397 199q-130 199 -130 556q0 543 290 697q102 54 240 53q138 1 238 -53t166 -152q130 -195 129 -547q0 -351 -134 -552z" />
    <glyph glyph-name="uni04EB" unicode="&#x4eb;" 
d="M794 1497q96 -1 96 -103t-96 -102t-96 102t96 103zM419 1497q96 -1 96 -103t-96 -102t-96 102t96 103zM612 967q-273 0 -305 -326h613q-35 326 -308 326zM305 487q22 -356 309 -356q282 0 308 356h-617zM974 131q-138 -151 -358 -151q-219 0 -360 153t-141 419t137 416
t357 150q221 0 362 -152t141 -418t-138 -417z" />
    <glyph glyph-name="uni04EC" unicode="&#x4ec;" 
d="M681 1835q96 -1 96 -103t-96 -102t-96 102t96 103zM306 1835q96 -1 96 -103t-96 -102t-96 102t96 103zM451 1483q305 -1 477 -195t172 -548t-171 -558q-171 -202 -487 -202q-212 0 -358 59v162q197 -58 328 -58q473 0 489 541h-629v162h625q-19 222 -137 348t-309 125
q-152 0 -306 -78l-77 156q161 86 383 86z" />
    <glyph glyph-name="uni04ED" unicode="&#x4ed;" 
d="M753 1497q96 -1 96 -103t-96 -102t-96 102t96 103zM378 1497q96 -1 96 -103t-96 -102t-96 102t96 103zM506 139q351 0 368 348h-538v154h536q-27 317 -364 317q-108 0 -262 -57l-62 158q153 59 332 59q267 0 406 -146t139 -423t-143 -423t-408 -146q-187 0 -320 61v160
q163 -62 316 -62z" />
    <glyph glyph-name="uni04EE" unicode="&#x4ee;" 
d="M334 1729h575v-150h-575v150zM283 -20q-115 0 -189 30v185q84 -45 186 -45t162 52t115 173l-530 1087h204l383 -809q12 -25 20 -49t17 -43h2l39 109l312 792h196l-428 -1030q-76 -182 -136 -268t-149 -135t-204 -49z" />
    <glyph glyph-name="uni04EF" unicode="&#x4ef;" 
d="M328 1391h575v-150h-575v150zM268 -492q-86 0 -168 17v145q62 -12 147 -12t139 41t95 141l58 150l-457 1108h188l262 -654q82 -205 89 -290h6q23 112 90 292l239 652h189l-475 -1241q-67 -173 -156 -261t-246 -88z" />
    <glyph glyph-name="uni04F0" unicode="&#x4f0;" 
d="M800 1835q96 -1 96 -103t-96 -102t-96 102t96 103zM425 1835q96 -1 96 -103t-96 -102t-96 102t96 103zM283 -20q-115 0 -189 30v185q84 -45 186 -45t162 52t115 173l-530 1087h204l383 -809q12 -25 20 -49t17 -43h2l39 109l312 792h196l-428 -1030q-76 -182 -136 -268
t-149 -135t-204 -49z" />
    <glyph glyph-name="uni04F1" unicode="&#x4f1;" 
d="M809 1497q96 -1 96 -103t-96 -102t-96 102t96 103zM434 1497q96 -1 96 -103t-96 -102t-96 102t96 103zM268 -492q-86 0 -168 17v145q62 -12 147 -12t139 41t95 141l58 150l-457 1108h188l262 -654q82 -205 89 -290h6q23 112 90 292l239 652h189l-475 -1241
q-67 -173 -156 -261t-246 -88z" />
    <glyph glyph-name="uni04F2" unicode="&#x4f2;" 
d="M1063 1907v-21q-112 -173 -272 -307h-101v27q87 118 174 301h199zM700 1907v-21q-112 -173 -272 -307h-100v27q94 133 174 301h198zM283 -20q-115 0 -189 30v185q84 -45 186 -45t162 52t115 173l-530 1087h204l383 -809q12 -25 20 -49t17 -43h2l39 109l312 792h196
l-428 -1030q-76 -182 -136 -268t-149 -135t-204 -49z" />
    <glyph glyph-name="uni04F3" unicode="&#x4f3;" 
d="M1075 1569v-21q-112 -173 -272 -307h-101v27q87 118 174 301h199zM712 1569v-21q-112 -173 -272 -307h-100v27q94 133 174 301h198zM268 -492q-86 0 -168 17v145q62 -12 147 -12t139 41t95 141l58 150l-457 1108h188l262 -654q82 -205 89 -290h6q23 112 90 292l239 652
h189l-475 -1241q-67 -173 -156 -261t-246 -88z" />
    <glyph glyph-name="uni04F4" unicode="&#x4f4;" 
d="M803 1835q96 -1 96 -103t-96 -102t-96 102t96 103zM428 1835q96 -1 96 -103t-96 -102t-96 102t96 103zM1094 0h-187v598q-227 -90 -393 -90q-379 0 -379 371v583h187v-559q0 -131 52 -181t182 -50q132 0 351 80v710h187v-1462z" />
    <glyph glyph-name="uni04F5" unicode="&#x4f5;" 
d="M796 1497q96 -1 96 -103t-96 -102t-96 102t96 103zM421 1497q96 -1 96 -103t-96 -102t-96 102t96 103zM334 1098v-410q0 -174 205 -174q171 0 340 115v469h182v-1098h-182v489q-181 -127 -361 -127t-273 88t-93 226v422h182z" />
    <glyph glyph-name="uni04F6" unicode="&#x4f6;" 
d="M1124 1462v-166h-639v-1130h177v-551h-177v385h-186v1462h825z" />
    <glyph glyph-name="uni04F7" unicode="&#x4f7;" 
d="M291 0v1098h747v-154h-565v-790h160v-535h-176v381h-166z" />
    <glyph glyph-name="uni04F8" unicode="&#x4f8;" 
d="M803 1835q96 -1 96 -103t-96 -102t-96 102t96 103zM428 1835q96 -1 96 -103t-96 -102t-96 102t96 103zM967 0v1462h166v-1462h-166zM262 160h78q338 0 338 268q0 134 -86 194t-283 60h-47v-522zM96 0v1462h166v-616h47q541 0 541 -418q0 -208 -132 -318t-382 -110h-240z
" />
    <glyph glyph-name="uni04F9" unicode="&#x4f9;" 
d="M803 1497q96 -1 96 -103t-96 -102t-96 102t96 103zM428 1497q96 -1 96 -103t-96 -102t-96 102t96 103zM1114 0h-162v1098h162v-1098zM274 494v-344h138q254 0 254 172q0 90 -59 131t-199 41h-134zM274 647h134q415 0 415 -311q0 -336 -420 -336h-290v1098h161v-451z" />
    <glyph glyph-name="uni04FA" unicode="&#x4fa;" 
d="M389 -248q96 0 96 98v150h-186v643h-152v162h152v657h825v-166h-639v-491h336v-162h-336v-477h156v-295q0 -132 -55 -203t-180 -71q-62 0 -123 26v150q42 -21 106 -21z" />
    <glyph glyph-name="uni04FB" unicode="&#x4fb;" 
d="M377 -248q96 0 96 98v150h-182v481h-156v137h156v480h747v-154h-565v-326h279v-137h-279v-315h156v-295q0 -132 -55 -203t-181 -71q-59 0 -123 26v150q42 -21 107 -21z" />
    <glyph glyph-name="uni04FC" unicode="&#x4fc;" 
d="M977 -248q96 0 96 98v150h-110l-355 635l-366 -635h-189l453 764l-422 698h199l331 -559l334 559h191l-422 -692l358 -604h154v-295q-3 -205 -129 -256q-44 -18 -105 -18t-125 26v150q42 -21 107 -21z" />
    <glyph glyph-name="uni04FD" unicode="&#x4fd;" 
d="M891 -248q96 0 96 98v150h-63l-310 436l-311 -436h-207l414 563l-393 535h207l290 -410l291 410h207l-395 -535l300 -409h126v-283q-3 -205 -129 -256q-44 -18 -105 -18t-125 26v150q42 -21 107 -21z" />
    <glyph glyph-name="uni04FE" unicode="&#x4fe;" 
d="M174 692v162h277l-367 608h199l331 -559l334 559h191l-371 -608h285v-162h-291l412 -692h-211l-355 635l-366 -635h-189l410 692h-289z" />
    <glyph glyph-name="uni04FF" unicode="&#x4ff;" 
d="M166 635h297l-346 463h207l290 -410l291 410h207l-348 -463h301v-137h-305l370 -498h-206l-310 436l-311 -436h-207l371 498h-301v137z" />
    <glyph glyph-name="uni0500" unicode="&#x500;" 
d="M827 682h-129q-190 0 -279 -59t-89 -195t82 -202t256 -66h159v522zM137 423q0 195 128 309t413 114h149v616h187v-1462h-363q-385 0 -483 252q-30 79 -31 171z" />
    <glyph glyph-name="uni0501" unicode="&#x501;" 
d="M889 547q1 227 -69 323t-222 97q-272 0 -272 -418t274 -418q152 1 218 89t71 286v41zM571 -20q-205 0 -319 150t-115 418q0 270 115 420t318 150t319 -160h12q-12 129 -12 162v436h182v-1556h-147l-27 147h-8q-113 -167 -318 -167z" />
    <glyph glyph-name="uni0502" unicode="&#x502;" 
d="M557 682h-80q-133 0 -191 -64q-57 -64 -57 -205q0 -140 39 -205t133 -65q127 1 149 135q6 40 7 82v322zM49 414q0 432 426 432h82v616h174v-1102q1 -114 33 -166t100 -51q91 -1 110 115q7 42 7 102v488h174v-488q0 -380 -285 -380q-92 0 -146 44t-89 130
q-76 -172 -254 -172q-332 0 -332 432z" />
    <glyph glyph-name="uni0503" unicode="&#x503;" 
d="M389 967q-160 0 -160 -422q1 -209 39 -311t124 -103q86 0 125 92q38 92 40 283v41q0 317 -88 393q-32 28 -80 27zM557 1141v415h174v-1134q-1 -142 17 -194t43 -74t65 -23q66 0 96 62t29 192v315h174v-319q-1 -309 -153 -378q-50 -23 -138 -23q-185 0 -252 202h-4
q-47 -101 -84 -136q-72 -66 -180 -66q-154 0 -224 143t-71 422q0 279 79 426t221 147t208 -139h8q-8 136 -8 162z" />
    <glyph glyph-name="uni0504" unicode="&#x504;" 
d="M1108 381q0 -401 -295 -401q-149 0 -226 92t-77 319q0 159 -39 224t-147 65h-156v151h156q82 0 128 67t46 192q0 239 -174 239q-111 0 -207 -74l-82 117q134 111 305 111q172 0 253 -99t81 -264q0 -278 -215 -348v-6q116 -26 170 -107q55 -81 55 -237t22 -203t46 -61
t57 -15q65 -1 95 57t30 191v457h174v-467z" />
    <glyph glyph-name="uni0505" unicode="&#x505;" 
d="M1118 381q0 -401 -295 -401q-145 0 -217 65t-81 211q-9 145 -37 179q-28 35 -63 47t-91 12h-139v153h139q82 0 128 43t46 124t-38 118t-135 37q-98 0 -231 -68l-61 141q134 74 306 74t253 -76q82 -76 82 -196q0 -158 -126 -226q-40 -22 -89 -36v-4q111 -13 164 -66
t60 -167t28 -148q21 -33 43 -43t55 -11q65 -1 95 57t30 191v309h174v-319z" />
    <glyph glyph-name="uni0506" unicode="&#x506;" 
d="M39 1333q183 150 473 150q194 0 310 -100t116 -254q0 -153 -94 -244t-248 -115v-6q267 -34 344 -216q25 -60 25 -132v-250h176v-551h-176v385h-187v416q0 198 -234 248q-74 16 -167 16h-191v151h176q181 0 281 74t100 189t-70 175t-188 60q-186 0 -354 -121z" />
    <glyph glyph-name="uni0507" unicode="&#x507;" 
d="M489 1118q311 0 403 -161q30 -53 30 -115q0 -110 -50 -168t-143 -88v-11q227 -55 227 -276v-145h160v-535h-176v381h-166v299q0 99 -61 147t-205 48h-236v153h203q273 0 273 166q0 154 -271 154q-126 1 -249 -41q-40 -14 -85 -31l-63 147q181 76 409 76z" />
    <glyph glyph-name="uni0508" unicode="&#x508;" 
d="M56 139q44 0 71 120t64 573q38 453 53 630h487v-1071q-1 -129 29 -189t97 -59q67 -1 95 59t29 189v457h174v-467q-1 -304 -175 -378q-54 -23 -122 -23q-141 0 -221 96t-80 305v917h-164q-67 -864 -91 -1007t-48 -198q-49 -113 -164 -113q-51 0 -90 22v154q30 -17 56 -17z
" />
    <glyph glyph-name="uni0509" unicode="&#x509;" 
d="M33 123q145 0 196 975h502v-707q-1 -135 27 -197t96 -63t98 61q29 62 29 199v309h174v-319q0 -309 -164 -378q-55 -23 -127 -23q-152 0 -230 85q-77 85 -77 285v594h-174q-37 -696 -154 -874q-54 -83 -139 -84q-60 0 -90 12v131q16 -6 33 -6z" />
    <glyph glyph-name="uni050A" unicode="&#x50a;" 
d="M731 391q0 -129 31 -189t100 -59q69 -1 98 59t29 189v457h166v-467q-1 -309 -167 -378q-56 -23 -130 -23q-152 0 -222 94t-71 307v301h-278v-682h-166v1462h166v-616h278v616h166v-1071z" />
    <glyph glyph-name="uni050B" unicode="&#x50b;" 
d="M864 131q121 0 121 260v309h162v-319q1 -309 -157 -378q-52 -23 -122 -23q-145 0 -219 85t-74 285v139h-290v-489h-162v1098h162v-455h290v455h162v-707q-1 -131 27 -195t100 -65z" />
    <glyph glyph-name="uni050C" unicode="&#x50c;" 
d="M999 1235q-143 84 -311 84q-167 0 -271 -158t-104 -430q0 -417 200 -545q67 -42 151 -43q161 0 223 106q63 106 63 345h-278v164h463v-142q0 -335 -108 -486q-108 -150 -364 -150q-257 0 -402 200q-144 200 -144 550t156 551q156 202 427 202q217 0 371 -86z" />
    <glyph glyph-name="uni050D" unicode="&#x50d;" 
d="M301 552q0 -424 346 -425q226 -1 271 181q14 56 14 124h-297v154h481v-68q0 -269 -111 -404q-111 -134 -367 -134q-257 0 -391 149t-134 418q0 268 143 419q143 152 414 152q210 0 360 -76l-61 -145q-153 74 -299 74q-272 1 -346 -245q-24 -78 -23 -174z" />
    <glyph glyph-name="uni050E" unicode="&#x50e;" 
d="M625 391q0 -129 41 -189t133 -59q92 -1 133 59t41 189v457h182v-467q0 -305 -209 -378q-66 -23 -146 -23q-174 0 -268 92t-94 309v917h-418v164h1022v-164h-417v-907z" />
    <glyph glyph-name="uni050F" unicode="&#x50f;" 
d="M756 -20q-396 0 -396 399v565h-319v154h821v-154h-319v-553q0 -200 110 -244q40 -16 99 -16q104 0 152 65t48 195v309h183v-319q1 -309 -213 -378q-72 -23 -166 -23z" />
    <glyph glyph-name="uni0510" unicode="&#x510;" 
d="M166 403q0 145 97 242t272 119v6q-233 37 -301 217q-22 60 -23 136q0 158 120 259t346 101q227 0 415 -150l-93 -125q-166 121 -343 121q-177 1 -236 -129q-19 -42 -19 -100q0 -122 89 -195q89 -74 260 -74h194v-151h-190q-186 0 -290 -66t-104 -203q0 -136 85 -207
t275 -71t370 92v-170q-166 -75 -411 -75t-379 113q-134 114 -134 310z" />
    <glyph glyph-name="uni0511" unicode="&#x511;" 
d="M840 647v-153h-160q-301 0 -301 -185q0 -180 283 -180q196 0 366 86v-160q-134 -75 -361 -75t-347 84t-119 235q0 193 237 268v11q-202 66 -202 249q0 135 112 213t314 78t370 -76l-63 -147q-161 72 -316 72q-243 0 -243 -154q0 -166 276 -166h154z" />
    <glyph glyph-name="uni0512" unicode="&#x512;" 
d="M1094 0h-187v1298h-297q-118 -977 -206 -1149t-263 -172q-71 0 -137 25v150q57 -25 113 -25q102 1 157 181t181 1154h639v-1462z" />
    <glyph glyph-name="uni0513" unicode="&#x513;" 
d="M1040 0h-182v944h-340q-37 -494 -126 -726t-269 -232q-62 0 -92 12v131q21 -6 49 -6q110 -1 178 237t104 738h678v-1098z" />
    <glyph glyph-name="uni1E00" unicode="&#x1e00;" 
d="M725 -340q1 53 -31 83t-82 30t-80 -30q-32 -30 -32 -83t28 -83t82 -30q52 0 84 30t31 83zM777 -497q-65 -58 -165 -58q-157 1 -207 125q-16 40 -16 90q0 100 61 157q61 58 161 58t166 -58q65 -58 65 -157t-65 -157zM807 618l-133 424q-39 124 -62 226q-20 -99 -46 -183
l-144 -467h385zM1004 0l-144 453h-491l-146 -453h-190l483 1468h195l485 -1468h-192z" />
    <glyph glyph-name="uni1E01" unicode="&#x1e01;" 
d="M718 -340q0 53 -32 83t-80 30q-50 0 -82 -30t-31 -83t29 -83t80 -30t84 30t32 83zM770 -497q-65 -58 -165 -58q-157 1 -207 125q-16 40 -16 90q0 100 61 157q61 58 161 58t166 -58q65 -58 65 -157t-65 -157zM324 305q0 -178 200 -178q146 -1 234 81t88 230v99l-162 -7
q-196 -8 -278 -62t-82 -163zM466 -20q-146 0 -238 86t-93 241q0 332 510 348l203 7v69q0 236 -244 236q-147 0 -328 -82l-63 137q196 96 403 96q206 0 308 -87t102 -279v-752h-131l-37 152h-8q-77 -96 -158 -134q-80 -38 -226 -38z" />
    <glyph glyph-name="uni1E3E" unicode="&#x1e3e;" 
d="M911 1909v-21q-112 -173 -272 -307h-121v27q94 133 174 301h219zM264 874v-874h-151v1462h247l248 -1192h6l250 1192h252v-1462h-153v887q0 102 14 391h-8l-283 -1278h-154l-278 1280h-8q18 -266 18 -406z" />
    <glyph glyph-name="uni1E3F" unicode="&#x1e3f;" 
d="M938 1569v-21q-112 -173 -272 -307h-121v27q94 133 174 301h219zM977 0v707q-1 146 -27 203t-88 57q-86 0 -126 -83t-40 -278v-606h-161v707q0 260 -125 260q-84 1 -120 -79t-36 -319v-569h-162v1098h127l27 -148h10q67 168 201 168q163 0 213 -182h6q76 182 212 182
t193 -92q58 -92 58 -309v-717h-162z" />
    <glyph glyph-name="Wgrave" unicode="&#x1e80;" 
d="M730 1579h-121q-166 142 -272 307v21h219q86 -178 174 -301v-27zM528 1008h177l145 -521q61 -219 72 -307q2 53 65 619l70 663h170l-187 -1462h-190l-168 580q-40 138 -66 282q-32 -173 -65 -284l-156 -578h-190l-203 1462h170l88 -663q23 -176 40 -378t17 -241
q24 151 70 312z" />
    <glyph glyph-name="wgrave" unicode="&#x1e81;" 
d="M697 1241h-121q-166 142 -272 307v21h219q86 -178 174 -301v-27zM813 0l-131 596l-68 330h-6l-65 -334l-135 -592h-189l-223 1098h162l98 -543q34 -186 57 -393h6q31 185 68 358l133 578h193l127 -578q43 -195 67 -358h6q31 242 60 393l102 543h158l-225 -1098h-195z" />
    <glyph glyph-name="Wacute" unicode="&#x1e82;" 
d="M893 1907v-21q-112 -173 -272 -307h-121v27q94 133 174 301h219zM528 1008h177l145 -521q61 -219 72 -307q2 53 65 619l70 663h170l-187 -1462h-190l-168 580q-40 138 -66 282q-32 -173 -65 -284l-156 -578h-190l-203 1462h170l88 -663q23 -176 40 -378t17 -241
q24 151 70 312z" />
    <glyph glyph-name="wacute" unicode="&#x1e83;" 
d="M915 1569v-21q-112 -173 -272 -307h-121v27q94 133 174 301h219zM813 0l-131 596l-68 330h-6l-65 -334l-135 -592h-189l-223 1098h162l98 -543q34 -186 57 -393h6q31 185 68 358l133 578h193l127 -578q43 -195 67 -358h6q31 242 60 393l102 543h158l-225 -1098h-195z" />
    <glyph glyph-name="Wdieresis" unicode="&#x1e84;" 
d="M805 1835q96 -1 96 -103t-96 -102t-96 102t96 103zM430 1835q96 -1 96 -103t-96 -102t-96 102t96 103zM528 1008h177l145 -521q61 -219 72 -307q2 53 65 619l70 663h170l-187 -1462h-190l-168 580q-40 138 -66 282q-32 -173 -65 -284l-156 -578h-190l-203 1462h170
l88 -663q23 -176 40 -378t17 -241q24 151 70 312z" />
    <glyph glyph-name="wdieresis" unicode="&#x1e85;" 
d="M800 1497q96 -1 96 -103t-96 -102t-96 102t96 103zM425 1497q96 -1 96 -103t-96 -102t-96 102t96 103zM813 0l-131 596l-68 330h-6l-65 -334l-135 -592h-189l-223 1098h162l98 -543q34 -186 57 -393h6q31 185 68 358l133 578h193l127 -578q43 -195 67 -358h6
q31 242 60 393l102 543h158l-225 -1098h-195z" />
    <glyph glyph-name="uni1EA0" unicode="&#x1ea0;" 
d="M508 -246q0 60 30 88t76 27q44 1 76 -27t31 -72q0 -71 -30 -101q-30 -29 -76 -29q-47 0 -77 28q-30 26 -30 86zM807 618l-133 424q-39 124 -62 226q-20 -99 -46 -183l-144 -467h385zM1004 0l-144 453h-491l-146 -453h-190l483 1468h195l485 -1468h-192z" />
    <glyph glyph-name="uni1EA1" unicode="&#x1ea1;" 
d="M489 -246q1 60 31 88t74 27q44 1 76 -27t32 -72q0 -71 -30 -101q-30 -29 -76 -29t-76 28q-30 26 -31 86zM324 305q0 -178 200 -178q146 -1 234 81t88 230v99l-162 -7q-196 -8 -278 -62t-82 -163zM466 -20q-146 0 -238 86t-93 241q0 332 510 348l203 7v69q0 236 -244 236
q-147 0 -328 -82l-63 137q196 96 403 96q206 0 308 -87t102 -279v-752h-131l-37 152h-8q-77 -96 -158 -134q-80 -38 -226 -38z" />
    <glyph glyph-name="uni1EA2" unicode="&#x1ea2;" 
d="M568 2017q266 0 266 -188q0 -133 -166 -172l-10 -111h-113l-14 176q119 18 149 62q12 16 12 41q0 82 -135 82q-64 0 -96 -6v108q43 8 107 8zM807 618l-133 424q-39 124 -62 226q-20 -99 -46 -183l-144 -467h385zM1004 0l-144 453h-491l-146 -453h-190l483 1468h195
l485 -1468h-192z" />
    <glyph glyph-name="uni1EA3" unicode="&#x1ea3;" 
d="M560 1679q266 0 266 -188q0 -133 -166 -172l-10 -111h-113l-14 176q119 18 149 62q12 16 12 41q0 82 -135 82q-64 0 -96 -6v108q43 8 107 8zM324 305q0 -178 200 -178q146 -1 234 81t88 230v99l-162 -7q-196 -8 -278 -62t-82 -163zM466 -20q-146 0 -238 86t-93 241
q0 332 510 348l203 7v69q0 236 -244 236q-147 0 -328 -82l-63 137q196 96 403 96q206 0 308 -87t102 -279v-752h-131l-37 152h-8q-77 -96 -158 -134q-80 -38 -226 -38z" />
    <glyph glyph-name="uni1EA4" unicode="&#x1ea4;" 
d="M1161 2001v-21q-81 -109 -206 -206h-101v26q80 104 127 201h180zM309 1579v27q51 59 109 125t106 135h193q48 -69 106 -135t109 -125v-27h-100q-112 75 -211 166q-114 -101 -211 -166h-101zM807 618l-133 424q-39 124 -62 226q-20 -99 -46 -183l-144 -467h385zM1004 0
l-144 453h-491l-146 -453h-190l483 1468h195l485 -1468h-192z" />
    <glyph glyph-name="uni1EA5" unicode="&#x1ea5;" 
d="M1165 1663v-21q-81 -109 -206 -206h-101v26q80 104 127 201h180zM313 1241v27q51 59 109 125t106 135h193q48 -69 106 -135t109 -125v-27h-100q-112 75 -211 166q-114 -101 -211 -166h-101zM324 305q0 -178 200 -178q146 -1 234 81t88 230v99l-162 -7q-196 -8 -278 -62
t-82 -163zM466 -20q-146 0 -238 86t-93 241q0 332 510 348l203 7v69q0 236 -244 236q-147 0 -328 -82l-63 137q196 96 403 96q206 0 308 -87t102 -279v-752h-131l-37 152h-8q-77 -96 -158 -134q-80 -38 -226 -38z" />
    <glyph glyph-name="uni1EA6" unicode="&#x1ea6;" 
d="M388 1774h-101q-127 99 -207 206v21h181q47 -97 127 -201v-26zM310 1579v27q51 59 109 125t106 135h192q48 -69 106 -135t109 -125v-27h-100q-97 65 -211 166q-106 -96 -211 -166h-100zM807 618l-133 424q-39 124 -62 226q-20 -99 -46 -183l-144 -467h385zM1004 0
l-144 453h-491l-146 -453h-190l483 1468h195l485 -1468h-192z" />
    <glyph glyph-name="uni1EA7" unicode="&#x1ea7;" 
d="M393 1436h-101q-127 99 -207 206v21h181q47 -97 127 -201v-26zM315 1241v27q51 59 109 125t106 135h192q48 -69 106 -135t109 -125v-27h-100q-97 65 -211 166q-106 -96 -211 -166h-100zM324 305q0 -178 200 -178q146 -1 234 81t88 230v99l-162 -7q-196 -8 -278 -62
t-82 -163zM466 -20q-146 0 -238 86t-93 241q0 332 510 348l203 7v69q0 236 -244 236q-147 0 -328 -82l-63 137q196 96 403 96q206 0 308 -87t102 -279v-752h-131l-37 152h-8q-77 -96 -158 -134q-80 -38 -226 -38z" />
    <glyph glyph-name="uni1EA8" unicode="&#x1ea8;" 
d="M897 2122q199 0 199 -142q0 -99 -125 -129l-6 -81h-86l-11 131q56 9 88 25t33 52q0 62 -100 62q-50 0 -72 -6v82q21 6 80 6zM309 1579v27q51 59 109 125t106 135h193q48 -69 106 -135t109 -125v-27h-101q-105 70 -211 166q-117 -104 -210 -166h-101zM807 618l-133 424
q-39 124 -62 226q-20 -99 -46 -183l-144 -467h385zM1004 0l-144 453h-491l-146 -453h-190l483 1468h195l485 -1468h-192z" />
    <glyph glyph-name="uni1EA9" unicode="&#x1ea9;" 
d="M901 1784q199 0 199 -142q0 -99 -125 -129l-6 -81h-86l-11 131q56 9 88 25t33 52q0 62 -100 62q-50 0 -72 -6v82q21 6 80 6zM313 1241v27q51 59 109 125t106 135h193q48 -69 106 -135t109 -125v-27h-101q-105 70 -211 166q-117 -104 -210 -166h-101zM324 305
q0 -178 200 -178q146 -1 234 81t88 230v99l-162 -7q-196 -8 -278 -62t-82 -163zM466 -20q-146 0 -238 86t-93 241q0 332 510 348l203 7v69q0 236 -244 236q-147 0 -328 -82l-63 137q196 96 403 96q206 0 308 -87t102 -279v-752h-131l-37 152h-8q-77 -96 -158 -134
q-80 -38 -226 -38z" />
    <glyph glyph-name="uni1EAA" unicode="&#x1eaa;" 
d="M614 1970q-91 45 -129 45t-59 -21t-35 -71h-92q16 157 114 205q33 16 73 16q58 0 148 -45q91 -45 126 -45q36 0 57 22t35 70h92q-13 -154 -114 -204q-33 -16 -79 -17q-46 0 -137 45zM309 1579v27q51 59 109 125t106 135h193q48 -69 106 -135t109 -125v-27h-101
q-97 65 -211 166q-99 -91 -211 -166h-100zM807 618l-133 424q-39 124 -62 226q-20 -99 -46 -183l-144 -467h385zM1004 0l-144 453h-491l-146 -453h-190l483 1468h195l485 -1468h-192z" />
    <glyph glyph-name="uni1EAB" unicode="&#x1eab;" 
d="M618 1632q-91 45 -129 45t-59 -21t-35 -71h-92q16 157 114 205q33 16 73 16q58 0 148 -45q91 -45 126 -45q36 0 57 22t35 70h92q-13 -154 -114 -204q-33 -16 -79 -17q-46 0 -137 45zM313 1241v27q51 59 109 125t106 135h193q48 -69 106 -135t109 -125v-27h-101
q-97 65 -211 166q-99 -91 -211 -166h-100zM324 305q0 -178 200 -178q146 -1 234 81t88 230v99l-162 -7q-196 -8 -278 -62t-82 -163zM466 -20q-146 0 -238 86t-93 241q0 332 510 348l203 7v69q0 236 -244 236q-147 0 -328 -82l-63 137q196 96 403 96q206 0 308 -87t102 -279
v-752h-131l-37 152h-8q-77 -96 -158 -134q-80 -38 -226 -38z" />
    <glyph glyph-name="uni1EAC" unicode="&#x1eac;" 
d="M508 -246q0 60 30 88t76 27q44 1 76 -27t31 -72q0 -71 -30 -101q-30 -29 -76 -29q-47 0 -77 28q-30 26 -30 86zM946 1579h-121q-85 56 -211 186q-133 -136 -211 -186h-120v27q25 29 59 67q139 155 176 234h193q37 -79 176 -234l59 -67v-27zM807 618l-133 424
q-39 124 -62 226q-20 -99 -46 -183l-144 -467h385zM1004 0l-144 453h-491l-146 -453h-190l483 1468h195l485 -1468h-192z" />
    <glyph glyph-name="uni1EAD" unicode="&#x1ead;" 
d="M489 -246q1 60 31 88t74 27q44 1 76 -27t32 -72q0 -71 -30 -101q-30 -29 -76 -29t-76 28q-30 26 -31 86zM954 1241h-121q-85 56 -211 186q-133 -136 -211 -186h-120v27q25 29 59 67q139 155 176 234h193q37 -79 176 -234l59 -67v-27zM324 305q0 -178 200 -178
q146 -1 234 81t88 230v99l-162 -7q-196 -8 -278 -62t-82 -163zM466 -20q-146 0 -238 86t-93 241q0 332 510 348l203 7v69q0 236 -244 236q-147 0 -328 -82l-63 137q196 96 403 96q206 0 308 -87t102 -279v-752h-131l-37 152h-8q-77 -96 -158 -134q-80 -38 -226 -38z" />
    <glyph glyph-name="uni1EAE" unicode="&#x1eae;" 
d="M610 1579q-282 0 -297 266h109q7 -79 50 -102q42 -23 109 -23q116 0 165 26t57 99h112q-13 -190 -179 -247q-55 -19 -126 -19zM856 2067v-21q-81 -108 -207 -207h-100v27q75 94 127 201h180zM807 618l-133 424q-39 124 -62 226q-20 -99 -46 -183l-144 -467h385zM1004 0
l-144 453h-491l-146 -453h-190l483 1468h195l485 -1468h-192z" />
    <glyph glyph-name="uni1EAF" unicode="&#x1eaf;" 
d="M609 1241q-282 0 -297 266h109q7 -79 50 -102q42 -23 109 -23q116 0 165 26t57 99h112q-13 -190 -179 -247q-55 -19 -126 -19zM855 1729v-21q-81 -108 -207 -207h-100v27q75 94 127 201h180zM324 305q0 -178 200 -178q146 -1 234 81t88 230v99l-162 -7q-196 -8 -278 -62
t-82 -163zM466 -20q-146 0 -238 86t-93 241q0 332 510 348l203 7v69q0 236 -244 236q-147 0 -328 -82l-63 137q196 96 403 96q206 0 308 -87t102 -279v-752h-131l-37 152h-8q-77 -96 -158 -134q-80 -38 -226 -38z" />
    <glyph glyph-name="uni1EB0" unicode="&#x1eb0;" 
d="M610 1579q-282 0 -297 266h109q7 -79 50 -102q42 -23 109 -23q116 0 165 26t57 99h112q-13 -190 -179 -247q-55 -19 -126 -19zM664 1839h-101q-126 99 -207 207v21h181q52 -107 127 -201v-27zM807 618l-133 424q-39 124 -62 226q-20 -99 -46 -183l-144 -467h385zM1004 0
l-144 453h-491l-146 -453h-190l483 1468h195l485 -1468h-192z" />
    <glyph glyph-name="uni1EB1" unicode="&#x1eb1;" 
d="M609 1241q-282 0 -297 266h109q7 -79 50 -102q42 -23 109 -23q116 0 165 26t57 99h112q-13 -190 -179 -247q-55 -19 -126 -19zM663 1501h-101q-126 99 -207 207v21h181q52 -107 127 -201v-27zM324 305q0 -178 200 -178q146 -1 234 81t88 230v99l-162 -7q-196 -8 -278 -62
t-82 -163zM466 -20q-146 0 -238 86t-93 241q0 332 510 348l203 7v69q0 236 -244 236q-147 0 -328 -82l-63 137q196 96 403 96q206 0 308 -87t102 -279v-752h-131l-37 152h-8q-77 -96 -158 -134q-80 -38 -226 -38z" />
    <glyph glyph-name="uni1EB2" unicode="&#x1eb2;" 
d="M561 2136q199 0 199 -141q0 -99 -125 -129l-6 -41h-86l-11 90q56 9 88 25t33 53q-1 37 -29 49t-75 12t-68 -6v82q22 6 80 6zM610 1579q-282 0 -297 266h109q7 -79 50 -102q42 -23 109 -23q116 0 165 26t57 99h112q-13 -190 -179 -247q-55 -19 -126 -19zM807 618l-133 424
q-39 124 -62 226q-20 -99 -46 -183l-144 -467h385zM1004 0l-144 453h-491l-146 -453h-190l483 1468h195l485 -1468h-192z" />
    <glyph glyph-name="uni1EB3" unicode="&#x1eb3;" 
d="M560 1798q199 0 199 -141q0 -99 -125 -129l-6 -41h-86l-11 90q57 9 89 25t32 53t-28 49t-75 12q-46 0 -69 -6v82q22 6 80 6zM609 1241q-282 0 -297 266h109q7 -79 50 -102q42 -23 109 -23q116 0 165 26t57 99h112q-13 -190 -179 -247q-55 -19 -126 -19zM324 305
q0 -178 200 -178q146 -1 234 81t88 230v99l-162 -7q-196 -8 -278 -62t-82 -163zM466 -20q-146 0 -238 86t-93 241q0 332 510 348l203 7v69q0 236 -244 236q-147 0 -328 -82l-63 137q196 96 403 96q206 0 308 -87t102 -279v-752h-131l-37 152h-8q-77 -96 -158 -134
q-80 -38 -226 -38z" />
    <glyph glyph-name="uni1EB4" unicode="&#x1eb4;" 
d="M606 1970q-91 45 -129 45t-59 -21t-35 -71h-92q16 157 114 205q33 16 73 16q58 0 148 -45q91 -45 126 -45q36 0 57 22t35 70h92q-13 -154 -114 -204q-33 -16 -79 -17q-46 0 -137 45zM602 1579q-146 -1 -218 69t-79 197h109q7 -79 50 -102q42 -23 109 -23q115 0 164 26
t58 99h112q-13 -190 -179 -247q-55 -19 -126 -19zM807 618l-133 424q-39 124 -62 226q-20 -99 -46 -183l-144 -467h385zM1004 0l-144 453h-491l-146 -453h-190l483 1468h195l485 -1468h-192z" />
    <glyph glyph-name="uni1EB5" unicode="&#x1eb5;" 
d="M604 1632q-91 45 -128 45q-38 0 -59 -21t-35 -71h-92q16 157 114 205q32 16 72 16q56 0 148 -45q91 -45 127 -45t57 22t35 70h92q-13 -154 -114 -204q-33 -16 -79 -17q-47 0 -138 45zM601 1241q-147 -1 -219 69t-78 197h109q7 -79 50 -102q42 -23 109 -23q115 0 164 26
t58 99h112q-13 -190 -179 -247q-55 -19 -126 -19zM324 305q0 -178 200 -178q146 -1 234 81t88 230v99l-162 -7q-196 -8 -278 -62t-82 -163zM466 -20q-146 0 -238 86t-93 241q0 332 510 348l203 7v69q0 236 -244 236q-147 0 -328 -82l-63 137q196 96 403 96q206 0 308 -87
t102 -279v-752h-131l-37 152h-8q-77 -96 -158 -134q-80 -38 -226 -38z" />
    <glyph glyph-name="uni1EB6" unicode="&#x1eb6;" 
d="M508 -246q0 60 30 88t76 27q44 1 76 -27t31 -72q0 -71 -30 -101q-30 -29 -76 -29q-47 0 -77 28q-30 26 -30 86zM607 1579q-280 0 -297 277h109q7 -76 47 -100t143 -25q181 0 191 125h112q-9 -127 -89 -202t-216 -75zM807 618l-133 424q-39 124 -62 226q-20 -99 -46 -183
l-144 -467h385zM1004 0l-144 453h-491l-146 -453h-190l483 1468h195l485 -1468h-192z" />
    <glyph glyph-name="uni1EB7" unicode="&#x1eb7;" 
d="M489 -246q1 60 31 88t74 27q44 1 76 -27t32 -72q0 -71 -30 -101q-30 -29 -76 -29t-76 28q-30 26 -31 86zM599 1241q-280 0 -297 277h109q7 -76 47 -100t143 -25q181 0 191 125h112q-9 -127 -89 -202t-216 -75zM324 305q0 -178 200 -178q146 -1 234 81t88 230v99l-162 -7
q-196 -8 -278 -62t-82 -163zM466 -20q-146 0 -238 86t-93 241q0 332 510 348l203 7v69q0 236 -244 236q-147 0 -328 -82l-63 137q196 96 403 96q206 0 308 -87t102 -279v-752h-131l-37 152h-8q-77 -96 -158 -134q-80 -38 -226 -38z" />
    <glyph glyph-name="uni1EB8" unicode="&#x1eb8;" 
d="M531 -246q1 60 31 88t74 27q44 1 76 -27t32 -72q0 -71 -30 -101q-30 -29 -76 -29t-76 28q-30 26 -31 86zM1059 0h-842v1462h842v-164h-656v-452h617v-162h-617v-520h656v-164z" />
    <glyph glyph-name="uni1EB9" unicode="&#x1eb9;" 
d="M531 -246q1 60 31 88t74 27q44 1 76 -27t32 -72q0 -71 -30 -101q-30 -29 -76 -29t-76 28q-30 26 -31 86zM899 662q1 305 -273 305t-300 -305h573zM1096 514h-774q8 -375 344 -375q195 0 370 76v-160q-166 -75 -364 -75q-245 0 -392 150t-147 413q-1 263 135 419t356 156
t346 -134t126 -357v-113z" />
    <glyph glyph-name="uni1EBA" unicode="&#x1eba;" 
d="M574 2017q266 0 266 -188q0 -133 -166 -172l-10 -111h-113l-14 176q119 18 149 62q12 16 12 41q0 82 -135 82q-64 0 -96 -6v108q43 8 107 8zM1059 0h-842v1462h842v-164h-656v-452h617v-162h-617v-520h656v-164z" />
    <glyph glyph-name="uni1EBB" unicode="&#x1ebb;" 
d="M592 1679q266 0 266 -188q0 -133 -166 -172l-10 -111h-113l-14 176q119 18 149 62q12 16 12 41q0 82 -135 82q-64 0 -96 -6v108q43 8 107 8zM899 662q1 305 -273 305t-300 -305h573zM1096 514h-774q8 -375 344 -375q195 0 370 76v-160q-166 -75 -364 -75q-245 0 -392 150
t-147 413q-1 263 135 419t356 156t346 -134t126 -357v-113z" />
    <glyph glyph-name="uni1EBC" unicode="&#x1ebc;" 
d="M490 1843q58 0 160 -56t137 -56q80 0 106 114h105q-27 -264 -211 -264q-57 1 -157 57t-140 56q-82 0 -107 -115h-104q25 264 211 264zM1059 0h-842v1462h842v-164h-656v-452h617v-162h-617v-520h656v-164z" />
    <glyph glyph-name="uni1EBD" unicode="&#x1ebd;" 
d="M498 1505q58 0 160 -56t137 -56q80 0 106 114h105q-27 -264 -211 -264q-57 1 -157 57t-140 56q-82 0 -107 -115h-104q25 264 211 264zM899 662q1 305 -273 305t-300 -305h573zM1096 514h-774q8 -375 344 -375q195 0 370 76v-160q-166 -75 -364 -75q-245 0 -392 150
t-147 413q-1 263 135 419t356 156t346 -134t126 -357v-113z" />
    <glyph glyph-name="uni1EBE" unicode="&#x1ebe;" 
d="M1169 2001v-21q-81 -109 -206 -206h-101v26q80 104 127 201h180zM317 1579v27q51 59 109 125t106 135h193q48 -69 106 -135t109 -125v-27h-100q-112 75 -211 166q-114 -101 -211 -166h-101zM1059 0h-842v1462h842v-164h-656v-452h617v-162h-617v-520h656v-164z" />
    <glyph glyph-name="uni1EBF" unicode="&#x1ebf;" 
d="M1157 1663v-21q-81 -109 -206 -206h-101v26q80 104 127 201h180zM305 1241v27q51 59 109 125t106 135h193q48 -69 106 -135t109 -125v-27h-100q-112 75 -211 166q-114 -101 -211 -166h-101zM899 662q1 305 -273 305t-300 -305h573zM1096 514h-774q8 -375 344 -375
q195 0 370 76v-160q-166 -75 -364 -75q-245 0 -392 150t-147 413q-1 263 135 419t356 156t346 -134t126 -357v-113z" />
    <glyph glyph-name="uni1EC0" unicode="&#x1ec0;" 
d="M397 1774h-101q-127 99 -207 206v21h181q47 -97 127 -201v-26zM319 1579v27q51 59 109 125t106 135h192q48 -69 106 -135t109 -125v-27h-100q-97 65 -211 166q-106 -96 -211 -166h-100zM1059 0h-842v1462h842v-164h-656v-452h617v-162h-617v-520h656v-164z" />
    <glyph glyph-name="uni1EC1" unicode="&#x1ec1;" 
d="M384 1436h-101q-127 99 -207 206v21h181q47 -97 127 -201v-26zM306 1241v27q51 59 109 125t106 135h192q48 -69 106 -135t109 -125v-27h-100q-97 65 -211 166q-106 -96 -211 -166h-100zM899 662q1 305 -273 305t-300 -305h573zM1096 514h-774q8 -375 344 -375
q195 0 370 76v-160q-166 -75 -364 -75q-245 0 -392 150t-147 413q-1 263 135 419t356 156t346 -134t126 -357v-113z" />
    <glyph glyph-name="uni1EC2" unicode="&#x1ec2;" 
d="M905 2122q199 0 199 -142q0 -99 -125 -129l-6 -81h-86l-11 131q56 9 88 25t33 52q0 62 -100 62q-50 0 -72 -6v82q21 6 80 6zM317 1579v27q51 59 109 125t106 135h193q48 -69 106 -135t109 -125v-27h-101q-105 70 -211 166q-117 -104 -210 -166h-101zM1059 0h-842v1462
h842v-164h-656v-452h617v-162h-617v-520h656v-164z" />
    <glyph glyph-name="uni1EC3" unicode="&#x1ec3;" 
d="M893 1784q199 0 199 -142q0 -99 -125 -129l-6 -81h-86l-11 131q56 9 88 25t33 52q0 62 -100 62q-50 0 -72 -6v82q21 6 80 6zM305 1241v27q51 59 109 125t106 135h193q48 -69 106 -135t109 -125v-27h-101q-105 70 -211 166q-117 -104 -210 -166h-101zM899 662
q1 305 -273 305t-300 -305h573zM1096 514h-774q8 -375 344 -375q195 0 370 76v-160q-166 -75 -364 -75q-245 0 -392 150t-147 413q-1 263 135 419t356 156t346 -134t126 -357v-113z" />
    <glyph glyph-name="uni1EC4" unicode="&#x1ec4;" 
d="M622 1970q-91 45 -129 45t-59 -21t-35 -71h-92q16 157 114 205q33 16 73 16q58 0 148 -45q91 -45 126 -45q36 0 57 22t35 70h92q-13 -154 -114 -204q-33 -16 -79 -17q-46 0 -137 45zM317 1579v27q51 59 109 125t106 135h193q48 -69 106 -135t109 -125v-27h-101
q-97 65 -211 166q-99 -91 -211 -166h-100zM1059 0h-842v1462h842v-164h-656v-452h617v-162h-617v-520h656v-164z" />
    <glyph glyph-name="uni1EC5" unicode="&#x1ec5;" 
d="M610 1632q-91 45 -129 45t-59 -21t-35 -71h-92q16 157 114 205q33 16 73 16q58 0 148 -45q91 -45 126 -45q36 0 57 22t35 70h92q-13 -154 -114 -204q-33 -16 -79 -17q-46 0 -137 45zM305 1241v27q51 59 109 125t106 135h193q48 -69 106 -135t109 -125v-27h-101
q-97 65 -211 166q-99 -91 -211 -166h-100zM899 662q1 305 -273 305t-300 -305h573zM1096 514h-774q8 -375 344 -375q195 0 370 76v-160q-166 -75 -364 -75q-245 0 -392 150t-147 413q-1 263 135 419t356 156t346 -134t126 -357v-113z" />
    <glyph glyph-name="uni1EC6" unicode="&#x1ec6;" 
d="M531 -246q1 60 31 88t74 27q44 1 76 -27t32 -72q0 -71 -30 -101q-30 -29 -76 -29t-76 28q-30 26 -31 86zM981 1579h-121q-85 56 -211 186q-133 -136 -211 -186h-120v27q25 29 59 67q139 155 176 234h193q37 -79 176 -234l59 -67v-27zM1059 0h-842v1462h842v-164h-656
v-452h617v-162h-617v-520h656v-164z" />
    <glyph glyph-name="uni1EC7" unicode="&#x1ec7;" 
d="M531 -246q1 60 31 88t74 27q44 1 76 -27t32 -72q0 -71 -30 -101q-30 -29 -76 -29t-76 28q-30 26 -31 86zM962 1241h-121q-85 56 -211 186q-133 -136 -211 -186h-120v27q25 29 59 67q139 155 176 234h193q37 -79 176 -234l59 -67v-27zM899 662q1 305 -273 305t-300 -305
h573zM1096 514h-774q8 -375 344 -375q195 0 370 76v-160q-166 -75 -364 -75q-245 0 -392 150t-147 413q-1 263 135 419t356 156t346 -134t126 -357v-113z" />
    <glyph glyph-name="uni1EC8" unicode="&#x1ec8;" 
d="M566 2017q266 0 266 -188q0 -133 -166 -172l-10 -111h-113l-14 176q119 18 149 62q12 16 12 41q0 82 -135 82q-64 0 -96 -6v108q43 8 107 8zM1001 0h-776v123l295 20v1176l-295 20v123h776v-123l-294 -20v-1176l294 -20v-123z" />
    <glyph glyph-name="uni1EC9" unicode="&#x1ec9;" 
d="M582 1679q266 0 266 -188q0 -133 -166 -172l-10 -111h-113l-14 176q119 18 149 62q12 16 12 41q0 82 -135 82q-64 0 -96 -6v108q43 8 107 8zM272 1098h451v-955l352 -20v-123h-878v123l344 20v811l-269 21v123z" />
    <glyph glyph-name="uni1ECA" unicode="&#x1eca;" 
d="M508 -246q0 60 30 88t76 27q44 1 76 -27t31 -72q0 -71 -30 -101q-30 -29 -76 -29q-47 0 -77 28q-30 26 -30 86zM1001 0h-776v123l295 20v1176l-295 20v123h776v-123l-294 -20v-1176l294 -20v-123z" />
    <glyph glyph-name="uni1ECB" unicode="&#x1ecb;" 
d="M528 -246q0 60 30 88t76 27q44 1 76 -27t31 -72q0 -71 -30 -101q-30 -29 -76 -29q-47 0 -77 28q-30 26 -30 86zM272 1098h451v-955l352 -20v-123h-878v123l344 20v811l-269 21v123zM633 1321q-107 1 -107 115t106 114t107 -114q1 -58 -31 -86t-75 -29z" />
    <glyph glyph-name="uni1ECC" unicode="&#x1ecc;" 
d="M508 -246q0 60 30 88t76 27q44 1 76 -27t31 -72q0 -71 -30 -101q-30 -29 -76 -29q-47 0 -77 28q-30 26 -30 86zM616 143q174 0 254 145q80 144 80 446t-82 444t-250 143q-337 0 -337 -589t335 -589zM616 -20q-532 0 -532 752t534 753q256 1 392 -195t137 -557
q0 -361 -138 -557t-393 -196z" />
    <glyph glyph-name="uni1ECD" unicode="&#x1ecd;" 
d="M508 -246q0 60 30 88t76 27q44 1 76 -27t31 -72q0 -71 -30 -101q-30 -29 -76 -29q-47 0 -77 28q-30 26 -30 86zM614 131q310 0 310 418t-310 418t-311 -418q1 -418 311 -418zM616 -20q-222 0 -362 156t-139 416q-1 262 135 414t360 152t363 -155t139 -416t-137 -414
t-359 -153z" />
    <glyph glyph-name="uni1ECE" unicode="&#x1ece;" 
d="M558 2017q266 0 266 -188q0 -133 -166 -172l-10 -111h-113l-14 176q119 18 149 62q12 16 12 41q0 82 -135 82q-64 0 -96 -6v108q43 8 107 8zM616 143q174 0 254 145q80 144 80 446t-82 444t-250 143q-337 0 -337 -589t335 -589zM616 -20q-532 0 -532 752t534 753
q256 1 392 -195t137 -557q0 -361 -138 -557t-393 -196z" />
    <glyph glyph-name="uni1ECF" unicode="&#x1ecf;" 
d="M566 1679q266 0 266 -188q0 -133 -166 -172l-10 -111h-113l-14 176q119 18 149 62q12 16 12 41q0 82 -135 82q-64 0 -96 -6v108q43 8 107 8zM614 131q310 0 310 418t-310 418t-311 -418q1 -418 311 -418zM616 -20q-222 0 -362 156t-139 416q-1 262 135 414t360 152
t363 -155t139 -416t-137 -414t-359 -153z" />
    <glyph glyph-name="uni1ED0" unicode="&#x1ed0;" 
d="M1155 2001v-21q-81 -109 -206 -206h-101v26q80 104 127 201h180zM303 1579v27q51 59 109 125t106 135h193q48 -69 106 -135t109 -125v-27h-100q-112 75 -211 166q-114 -101 -211 -166h-101zM616 143q174 0 254 145q80 144 80 446t-82 444t-250 143q-337 0 -337 -589
t335 -589zM616 -20q-532 0 -532 752t534 753q256 1 392 -195t137 -557q0 -361 -138 -557t-393 -196z" />
    <glyph glyph-name="uni1ED1" unicode="&#x1ed1;" 
d="M1155 1663v-21q-81 -109 -206 -206h-101v26q80 104 127 201h180zM303 1241v27q51 59 109 125t106 135h193q48 -69 106 -135t109 -125v-27h-100q-112 75 -211 166q-114 -101 -211 -166h-101zM614 131q310 0 310 418t-310 418t-311 -418q1 -418 311 -418zM616 -20
q-222 0 -362 156t-139 416q-1 262 135 414t360 152t363 -155t139 -416t-137 -414t-359 -153z" />
    <glyph glyph-name="uni1ED2" unicode="&#x1ed2;" 
d="M382 1774h-101q-127 99 -207 206v21h181q47 -97 127 -201v-26zM304 1579v27q51 59 109 125t106 135h192q48 -69 106 -135t109 -125v-27h-100q-97 65 -211 166q-106 -96 -211 -166h-100zM616 143q174 0 254 145q80 144 80 446t-82 444t-250 143q-337 0 -337 -589t335 -589
zM616 -20q-532 0 -532 752t534 753q256 1 392 -195t137 -557q0 -361 -138 -557t-393 -196z" />
    </font>
</defs>
</svg>
